<svg xmlns="http://www.w3.org/2000/svg" viewBox="0 0 1000 1000"><defs><style>.cls-1{opacity:0.27;}.cls-2{fill:#bdb4a5;}.cls-3{fill:#f5efe6;}.cls-4{fill:#fc998f;}.cls-5{fill:#dd968e;}.cls-6{fill:#fff;}</style></defs><g id="レイヤー_1" data-name="レイヤー 1"><path class="cls-1" d="M499.2,778.61c-6.77-1.49-13.15-4.4-19.56-7-11.88-4.55-23.68-9.82-33.41-18.19-4.24-3.42-8-7.67-13-9.93-9.64-4.31-21.73-2.78-31.47.57-7.25,2.57-13.63,7.09-19.89,11.47-3.19,2.28-6.24,4.89-9.78,6.63-5.4,2.51-12.66,4.63-18.65,4.16-4.08-.48-7.69-2.77-11-5-7-4.78-10-12-8.35-20.27.6-3.87,2.18-7.48,3.17-11.25,1.9-7.7-5.18-7.58-1.85-20.28a25.81,25.81,0,0,1,1.59-4.68,28.38,28.38,0,0,1,5.3-6.57c5.17-5.06,11.5-9,15.66-15.08a15.66,15.66,0,0,0,2.34-5.34,12,12,0,0,0-.95-7.35c-1.55-3.07-4.32-5.25-7-7.31a46.9,46.9,0,0,0-9.55-6.37A84.69,84.69,0,0,0,334,653.1a68.42,68.42,0,0,0-10.58-2.52c-7.49-1-15.1-1-22.65-1-7.1-.05-14.22-.35-21.31-.61-8.16-.57-16.35-1.29-24.54-1.08-7,.09-14.12.43-21.15.71-6.15.15-12.34.26-18.5.48-4.78.15-9.58.75-14.37.65s-9.75-.89-14.64-1c-9.95,0-19.88.92-29.83.93a111.59,111.59,0,0,1-16.13-1c-2.25-.36-4.5-.88-6.74-1.27s-4.69-.69-7-1.15c-4.65-1-9.27-2.28-14-2.49-4.35-.43-9-.79-12.76-3.23-3.2-2.36-5.76-6-5.65-10.14A43,43,0,0,1,96,620.16a23.2,23.2,0,0,1,4-6.74,39.33,39.33,0,0,1,4.15-3.58,17.33,17.33,0,0,1,3.09-2.19c2.27.2,10.06,2.26,11.82,1.64,3.31-.44,6.71-.89,10.05-1.11,9.8-.48,19.59-1.76,29.41-1.84,10.29-.08,20.62-.16,30.9-.58a185.43,185.43,0,0,0,20.72-2.92A162.73,162.73,0,0,0,227.52,598a194.89,194.89,0,0,0,32.09-12.82c4.44-2.4,8.64-5.25,12.94-7.88,6.93-4.21,13.69-8.76,20.32-13.42s13.95-8.17,20.89-12.21c15.22-8.86,30.89-17.08,46.9-24.4,14.23-6.38,28.43-13.29,43.49-17.48a102.75,102.75,0,0,1,12.22-1.89c6.78-.86,13.61-1.76,20.39-2.55,22.76-2.09,45.32-6,68-8.87,26.49-3.34,53.26-4.85,79.89-6.84,15.63-1.06,31.53-.67,47.18-.07,14.82.6,29.9,1.21,44.65,2.77,32.25,3.76,64.44,8.65,96.69,12.37,25.42,2.68,51,4.67,76.45,6.89,13.53,1.1,27.12,2.57,40.52,4.77,15,1.91,30,6.17,42.53,14.79,6.13,4.63,14.09,11.92,11.68,20.31-.72,2.39-1.77,5.54-4.44,6.3a25.09,25.09,0,0,1-4.82.48c-3.28.13-6.61.09-9.89,0-15.65-.12-31.32-.62-47-1a311.3,311.3,0,0,0-32.33.45c-8.1.67-16.23,1.73-24.31,2.58-13.51,1.69-26.93,4.29-40.46,5.84-9.14,1.18-18.39,1.83-27.59,2.19a199.61,199.61,0,0,1-21.6.35c-9.27-.43-18.53-1.88-27.83-1.5-11.39.29-23.16,3.06-32.43,9.93-7.21,5.6-10.47,14.55-14,22.66-3.17,7.48-5.58,15.33-9,22.69a95.94,95.94,0,0,1-11.34,18.1,151.72,151.72,0,0,1-9.8,11.8,72.27,72.27,0,0,1-11.19,9.14,140.52,140.52,0,0,1-15.2,9.39,203,203,0,0,1-21.39,8.64c-6,2.1-12.09,3.93-18.06,6a174.72,174.72,0,0,1-21.21,6,91.25,91.25,0,0,1-11.52,1.87c-3.87.42-7.92.71-11.5,2.39-3.94,1.69-4.5,6-4.56,9.88s-.06,7.74-.11,11.59c-.07,4.3-.33,8.65,0,12.94.32,4.91,1.12,9.79,1.76,14.66.56,5.34,2.34,10.62,1.87,16-.31,4.45-3.35,8-6.33,11.06a35.08,35.08,0,0,1-3.68,3.43A24.24,24.24,0,0,1,503.5,777C502.12,777.58,500.74,778.49,499.2,778.61Z"/></g><g id="レイヤー_5" data-name="レイヤー 5"><path class="cls-2" d="M154.82,584.17c-.81,0-2.44-.17-3.24-.25v0l6,.47Z"/><path class="cls-3" d="M492.33,737.82a4.78,4.78,0,0,1-3-1,9.77,9.77,0,0,0-4.5-1.57,36.2,36.2,0,0,0-5.25.8,13.22,13.22,0,0,1-2.46.38c-.33.28-.85.21-1.25.33-.7.1-1.41.2-2.11.23a15.13,15.13,0,0,1-5.36-.51c-1.34-.53-2-1.94-3.28-2.59a19,19,0,0,0-4.25-1.43c-3.56-.74-6.7-2.73-9.59-4.86-1.14-1-2-2.31-3-3.42s-1.77-2.51-2.73-3.7a44.68,44.68,0,0,1-3.52-5.77l.07-.13-.17,0c-1.6-2.77-2.16-5.93-3.08-9s-2.38-6-2.62-9.28a60.81,60.81,0,0,1,.48-10.09c.32-3,.39-6,.8-9a43.4,43.4,0,0,1,1.14-6.08c.24-.91.56-1.81.8-2.72a3.67,3.67,0,0,0,.17-1.73l-.12-.06c-.92.8-1.73,1.74-2.66,2.53-1.8,1.56-3.56,3.17-5.48,4.58-2.91,2.09-6.06,3.83-9.09,5.73s-5.86,3.78-8.81,5.64c-1.07.72-2.17,1.44-3.27,2.13a8.65,8.65,0,0,1-1.57.93c-.09.26-.35.38-.54.55s-.6.52-.88.79c-1,1-1.95,2-3,2.92-1.89,1.61-3.63,3.37-5.67,4.79-1.52,1.11-3.13,2.08-4.66,3.18a27,27,0,0,0-5.84,7.18c-2.35,3.7-4.06,7.75-6.19,11.57a76.81,76.81,0,0,1-6.14,9.28,14.67,14.67,0,0,1-2.83,2.19c-2,1.36-5,1.53-6.65-.52-.39-.41-.74-1-1.33-1.11-.95-.08-1.75.7-2.48,1.21-3.53,2.89-6.27,4.44-10.42,1.43l-.07-.18c-.26.07-.43-.23-.64-.34a8,8,0,0,1-1.06-1,9.67,9.67,0,0,1-1.95-6.91,15.32,15.32,0,0,1,.92-3.58c.16-.44.37-.88.51-1.33.1-.25.23-.6.06-.84s-.61-.05-.88,0-.82.33-1.22.5a24.23,24.23,0,0,1-3.84,1.41,4.88,4.88,0,0,1-4.45-1.13,4.67,4.67,0,0,1-1.23-2.55,17.21,17.21,0,0,1,.19-5.26,11.93,11.93,0,0,0,.24-3,24.73,24.73,0,0,0-.84-3.34c-.13-.52-.29-1.06-.43-1.58-.13-.27-.15-.65-.41-.84a1.13,1.13,0,0,1-.48-.05c-.62-.52-.08-1.41.07-2a27.92,27.92,0,0,1,3.59-6.24c.82-1.2,1.59-2.43,2.45-3.6l1.43-1.92c.22-.38.63-.71.75-1.12l.12-.05c2.51-3.76,5-7.52,7.79-11.09,1.13-1.43,2.45-2.71,3.54-4.16,1-1.29,1.85-2.7,2.72-4.08,1.23-2,2.14-4.17,3.37-6.16,1-1.58,2.11-3.13,3.1-4.73.67-1.14,1.31-2.3,2-3.42a44.1,44.1,0,0,0,3.5-8c.56-1.72,1.21-3.42,1.63-5.18l.09-.09c.09-1.32.55-2.62.75-3.95l.15-.14a.24.24,0,0,1-.06-.29l.13-.13c-.16-.17,0-.4,0-.6.07-.4.13-.83.19-1.24a8.3,8.3,0,0,0-.09-3.14,3.76,3.76,0,0,0-.93-1.76,8.39,8.39,0,0,0-.63-.56c-.13-.13-.43-.28-.4-.48-.41-.06-.68-.46-1-.68-.56-.48-1.14-1-1.73-1.39a56.81,56.81,0,0,0-7.2-4.72,58,58,0,0,0-10.57-3.5c-1.7-.38-3.39-.86-5.13-1.08-4.16-.54-8.38-.51-12.56-.7-3.9-.2-7.81-.31-11.72-.29a102,102,0,0,0-13.07.64,79.58,79.58,0,0,0-11.25,2c-2.37.65-4.69,1.47-7,2.19-3.65,1.18-7.39,2.06-11,3.35-3.87,1.28-7.68,2.79-11.54,4.13-2.25.78-4.52,1.53-6.74,2.4-1.71.66-3.39,1.41-5.11,2a66.68,66.68,0,0,1-9.27,2.38,47.83,47.83,0,0,1-11.36,1.48c-4.19-.15-8.33.78-12.52.77-2.9,0-5.79-.44-8.67-.74-4.59-.48-9.14-1.29-13.69-2-5.73-.7-11.54-1.16-17.17-2.47-3.82-1-7.43-2.67-11.13-4a28.87,28.87,0,0,0-5.07-1.4c-3-.35-6-.19-9-.41q-6.21-.57-12.39-1.37c-1.54-.2-3.09-.41-4.62-.65-.55-.08-1.12-.19-1.67-.28-.31-.11-.71,0-1-.28l-.17.07a54.66,54.66,0,0,0-5.82-.94,30.64,30.64,0,0,0-7.28.5l-.14-.07-.08.12c-.42.08-.86.18-1.26.29s-.81.2-1.2.3l-.18-.07-.11.13-.45.1-.14-.07-.18.14-.21-.06-.12.14a18.4,18.4,0,0,1-3.3.42,16.07,16.07,0,0,1-2.77-.29l-.15-.14-.14.09a44.38,44.38,0,0,1-7.45-2.42,36,36,0,0,1-5.69-2.47,12,12,0,0,1-2.71-2.89A8.65,8.65,0,0,0,97,614.09,19.84,19.84,0,0,1,92.73,611c-1.27-1.41-2.08-3.48-1.19-5.29a12.24,12.24,0,0,1,2.23-3.48,33.53,33.53,0,0,1,2.86-2.6,8.11,8.11,0,0,0,1.78-2c.82-1.63,1.16-3.5,2.34-4.94,2-3,6.28-.49,8.57-3.14,1.09-1.36,1.09-3.42,2.54-4.56a6.24,6.24,0,0,1,2.83-1c1-.08,1.94,0,2.91,0a37.75,37.75,0,0,0,5.3-.43c2.91-.42,5.76-1.2,8.68-1.57a50.17,50.17,0,0,1,8.13.09c2.73.18,5.48.13,8.2.5a10.79,10.79,0,0,1,3.33.78l0,.15h.17a.7.7,0,0,1,.12.46c1.61.32,6.87.17,8.42.8l.07-.08c.74.12,1.49.28,2.22.45.27,0,.59.14.86.18s.5.06.58.25a16.26,16.26,0,0,1,2.87.59c1.7.39,3.41.77,5.07,1.3,4.39,1.43,8.65,3.4,13.23,4.22a48.48,48.48,0,0,0,22.74-1,60.84,60.84,0,0,0,7.54-2.45,40.7,40.7,0,0,0,7.2-4.11,101.4,101.4,0,0,0,13-11.25c5.29-5.45,9.92-11.51,14.91-17.22a99.57,99.57,0,0,1,21.45-18.68c8.46-5.6,17.31-10.64,26.08-15.7s17.33-10.22,26-15.18c13.24-7.64,26.75-14.92,39.39-23.53A147.39,147.39,0,0,0,383,467.13c3.71-3.6,7.05-7.59,10.65-11.28A171,171,0,0,1,408.81,442a279.22,279.22,0,0,1,37.79-26.53c11.56-6.67,23.51-12.82,36.11-17.29a190.12,190.12,0,0,1,18.62-6.1c3.13-.92,6.36-1.56,9.46-2.59,3.45-1.12,6.95-2.14,10.41-3.23,1.73-.62,3.5-1.15,5.27-1.64a32.63,32.63,0,0,1,3.87-1.07s.13,0,.13,0a.92.92,0,0,0,.36-.13c0-.51.41-.31.75-.62s1-.59,1.51-.85a51.52,51.52,0,0,1,6.34-2.5c2.65-.93,5.13-2.31,7.83-3.14a52.12,52.12,0,0,1,8-2,65.32,65.32,0,0,0,9.44-1.61,50.26,50.26,0,0,0,8.63-3.64c1.79-1,3.48-2.1,5.35-2.92,3.64-1.71,7.59-2.61,11.4-3.87a29,29,0,0,0,6.59-3,32.14,32.14,0,0,1,4.51-2.6,28.77,28.77,0,0,1,8.39-1.93c1.48-.16,3-.18,4.45-.23,2.73-.27,5.45-.54,8.19-.68a25.34,25.34,0,0,1,5.49.57c.76.1,1.54.23,2.3.37.35.1.83.07,1.08.33a3.57,3.57,0,0,1,1.46.25c.84.22,1.67.49,2.5.76h0c.48.19,1.21.18,1.6.49l.19-.08c.61.14,1.26.21,1.87.37a13.07,13.07,0,0,1,2.05.61h0a20.65,20.65,0,0,0,2.78.94,6.72,6.72,0,0,0,1.1.1c.2.05.58-.18.71,0,.17-.26.54-.4.74-.63a21.36,21.36,0,0,0,1.31-1.85c.69-1,1.37-2,2-3h.14v-.17c2-2.77,2.49-3.14,5.94-3.08a12.66,12.66,0,0,1,3.45.58,24.53,24.53,0,0,1,3.34,1.72c2,1.11,3.85,2.31,5.77,3.48,1.76,1,3.51,2.07,5.3,3a10.28,10.28,0,0,0,4.65.18c2-.18,4-.74,6.07-.78a10.21,10.21,0,0,1,3,.45,28.39,28.39,0,0,1,3.16,1c1.59.63,3.24,1.13,4.84,1.73,3.67,1.35,7.52,2.22,11,4a50.22,50.22,0,0,1,6.29,3.72c1.75,1.09,3.48,2.21,5.2,3.34l.06.17h.17c3.53,2.5,6.41,5.75,9.71,8.51,1.27,1.07,2.62,2.05,3.9,3.11,1.62,1.37,3.18,2.82,4.74,4.25,1.28,1.2,2.58,2.41,3.74,3.73.35.41.69.86,1,1.29.16.24.44.47.44.78l.17.06c1.2,1.93,2.7,3.67,3.74,5.7a61.64,61.64,0,0,1,3.63,8.58c1,2.24,2.24,4.33,3.12,6.61,1,2.77,1.71,5.67,2.47,8.53s1.71,5.53,2.08,8.4a45.33,45.33,0,0,1,0,7.64c0,1.95.14,3.9.23,5.84a14.07,14.07,0,0,1-.2,3.43c-.13.45-.1,1-.42,1.39l.06.21a53.94,53.94,0,0,1-3.21,8.21,21.83,21.83,0,0,1-2.48,4.26,9,9,0,0,1-1.85,1.79c-.9.59-2,.88-2.87,1.5l0,.15c3,2.76,6.75,4.55,10.37,6.36,2.34,1.25,4.67,2.54,7,3.73a39.59,39.59,0,0,0,5.17,2.38c4.08,1.44,8.4,2.08,12.5,3.44,2.42.81,4.8,1.8,7.23,2.57,1.57.44,3.13,1,4.68,1.44.68.19,1.37.36,2,.56.37.14.85.13,1.15.4.34-.1.71.11,1,.15l1.68.39,1.68.39a2.35,2.35,0,0,1,1,.31l.2-.07a1,1,0,0,1,.53.23,5.31,5.31,0,0,1,1.61.29c.39.15.91.09,1.22.38l.17-.08c2.46.54,5,.84,7.45,1.24,4.86.92,9.77,1.58,14.67,2.23,4.59.6,9.15,1.5,13.77,1.88,4.85.55,9.72.79,14.59,1.15,6.06.49,12.11,1.12,18.16,1.73,8.86.89,17.7,2,26.57,2.66,3.37.2,6.75,0,10.12.25s6.57.64,9.83,1.13c2.55.46,5.09,1,7.62,1.54s5,.66,7.33,1.5a13.22,13.22,0,0,1,2.78,1.8c.62.48,1.32.88,1.92,1.38a12.58,12.58,0,0,1,1.51,1.67,5.23,5.23,0,0,1,.82,1.57c.07.24.27.6,0,.77.22,0,.16.32.19.47a5.55,5.55,0,0,1-.07,1.08,12.23,12.23,0,0,1-1.34,4,11.19,11.19,0,0,0,2.62,1.5c3,.86,3.79,1.71,2.72,4.83a8.4,8.4,0,0,1-3.43,4.14c-1.43.89-3.82,1.14-4.08,3.15-.06.49-.11,1-.2,1.5-.09.21,0,.64-.23.74a4.2,4.2,0,0,1-.92,2.4,6.85,6.85,0,0,1-2.46,1.51,27.84,27.84,0,0,1-8.57,1.8c-3.18.27-6.36.59-9.55.64a109.88,109.88,0,0,1-12.82-.56c-5.21-.44-10.43-.9-15.66-1-7.15-.23-14.31-.72-21.47-.63-2.44,0-4.88.12-7.31.17-2.16,0-4.31-.12-6.47-.08s-4.35,0-6.53,0c-2.78-.14-5.55-.38-8.33-.51-4.31-.26-8.63-.45-12.93-.71-1.84-.1-3.69-.22-5.53-.2-1.56,0-3.11.2-4.67.21-4.05.18-8.12,0-12.18.19-3.22.1-6.42.61-9.65.62-4,0-8.1-.3-12.15-.44-6.41-.14-12.82-.07-19.23,0-6.2-.07-12.36-.71-18.52-1.38-4.72-.53-9.46-.89-14.16-1.52-4.11-.56-8.18-1.38-12.28-2-2.51-.32-5-.49-7.54-.76-4.8-.48-9.61-1.05-14.44-1.11-2.83,0-5.66.28-8.48.51-4.58.39-9.05,1.6-13.64,1.87a35.8,35.8,0,0,1-3.73.16,10.24,10.24,0,0,1-1.1-.11l-.44-.1-.12-.06.05-.18c-.17-.3.59-.44.78-.59a39.54,39.54,0,0,0-4.85,1.94,16.26,16.26,0,0,0-3.87,2.4,35.42,35.42,0,0,0-7.8,10.32c-1,2.11-1.91,4.3-3.05,6.35-1.43,2.81-3,5.54-4.71,8.2-2.23,3.27-4.56,6.47-7,9.57-4.34,5.44-9.84,9.77-15,14.4-3.12,2.9-6.1,5.94-9.41,8.61-1.05.93-2.15,1.82-3.27,2.66-.41.32-.85.63-1.27.94-.25.17-.5.44-.82.47l-.09.19a79.11,79.11,0,0,1-8.12,4.85c-2.21,1.18-4.51,2.19-6.62,3.53a31.19,31.19,0,0,1-5.41,2.81c-1.59.61-3.24,1.07-4.88,1.57s-3.21,1.06-4.84,1.52c-.49.14-1,.28-1.51.4-.22,0-.48.18-.7.07l-.12.13c-.38.1-.79.19-1.18.27l-.18-.06c-.13.23-.43.16-.64.25-.4.09-.8.2-1.19.3a36.8,36.8,0,0,1-4.84,1.1c-2.79.38-5.65.54-8.29,1.6a30.46,30.46,0,0,0-4.1,1.79,7.78,7.78,0,0,0-1.89,3c-.75,1.68-1.18,3.48-1.86,5.18a58.91,58.91,0,0,1-2.71,5.31,41.22,41.22,0,0,1-5.7,7.2c-3.37,3.66-6.59,7.45-10.09,11-1.78,1.83-3.77,3.42-5.66,5.13-2.3,2.06-4.5,4.23-6.9,6.17-1.5,1.2-3,2.45-4.39,3.77-.51.48-1,1-1.5,1.53a2.6,2.6,0,0,0-.6.88c.22.21-.13.42-.21.63l-.7,1.12a17.59,17.59,0,0,0-1.54,2.91,24.22,24.22,0,0,0-1,3.54c-.11.5-.21,1-.33,1.54-.06.25-.06.56-.25.75l.06.2c-.11.28-.06.67-.3.89l.05.23-.14.19.06.18c-.9,4-.6,8.06-.75,12.09-.07,1.71-.22,3.42-.29,5.12a12.22,12.22,0,0,0,.51,4.66c1.08,2.39,2.69,4.5,3.89,6.83.65,1.21,1.13,2.51,1.71,3.75a26.15,26.15,0,0,1,2,5.33c.76,2.75-.58,5.07-1.63,7.51-.56,1.36-1.12,2.73-1.78,4a7.72,7.72,0,0,1-1.93,2.82,10.91,10.91,0,0,1-3.33,1.78c-1.44.69-3,1.21-4.44,1.82a52.35,52.35,0,0,1-6.62,2.62A16,16,0,0,1,492.33,737.82Z"/></g><g id="レイヤー_4" data-name="レイヤー 4"><path class="cls-4" d="M126.42,612.4a2.79,2.79,0,0,1-1.2-.92c-6.77-1.82-.92-9.79,4.07-9.08,4-3.36,8.68,1.31,4.56,4.92C133.29,610.58,129.83,613.77,126.42,612.4Z"/><path class="cls-4" d="M119.27,598.12c-7.55-.2-7.55-10-.24-6.13C124.26,592.11,125.22,599.25,119.27,598.12Z"/><path class="cls-4" d="M128,614.74c-5.4-2.08-.73-12.24,4-12.08H132l.3,0c3.15-2.29,6.17,2.76,2.87,4.66C134.1,610.51,132.16,615.61,128,614.74Z"/><path class="cls-4" d="M108.41,608.48c-12-3.79-1.66-14.53,2.77-4.33C112.57,606.06,110.69,608.82,108.41,608.48Z"/><path class="cls-4" d="M104.38,618c-2.29-1.11-3.38-4.73-.52-5.85,2.24-2.78,7.8-.74,5.7,3.07A3.28,3.28,0,0,1,104.38,618Z"/><path class="cls-5" d="M869.78,519.26c-6.19-1.77-.43-8.28,3.81-5.39C876.85,516,872.83,521.6,869.78,519.26Z"/><path class="cls-5" d="M872,519.94c-7.07-2-2-9.74,3.75-7.34C881.22,514.6,875.93,520.6,872,519.94Z"/><path class="cls-5" d="M907.67,525.49a2.46,2.46,0,0,1-1.2-1.26c-9-5.51,9.77-19.46,11.7-8.81,5.56,1.34,2.31,7.65-2.16,7.79C913.21,523.62,910.77,526.84,907.67,525.49Z"/><path class="cls-5" d="M923.73,512a3,3,0,0,1,.66-5.17h0a3.35,3.35,0,0,1,.92-.32v0a4.51,4.51,0,0,1,3.3.48l-.12-.07a2.7,2.7,0,0,1,1.36,1.46h0a2.72,2.72,0,0,1-2.31,3.62A3.58,3.58,0,0,1,923.73,512Z"/><path class="cls-5" d="M930.7,524c-6.27-.43-4.55-6.85,1.17-5.65C935.52,519.12,934.61,525.27,930.7,524Z"/><path class="cls-5" d="M925.41,510.41a2.7,2.7,0,0,1-.1-3.88h0a2.69,2.69,0,0,1,4.55,1.85h0A2.69,2.69,0,0,1,925.41,510.41Z"/><path class="cls-5" d="M923.88,534.45c-3.09-.32-6.45-3.09-2.81-5.64,2.6-1.06,8,1.05,6.42,4.49A2.7,2.7,0,0,1,923.88,534.45Z"/><path class="cls-6" d="M378.43,708.53a1.91,1.91,0,0,1-.58-.26l-.1-.08a36.27,36.27,0,0,0-6.46-4.92,40,40,0,0,0-8.11-4,30.19,30.19,0,0,0-16.13-.84,33.25,33.25,0,0,0-6.79,2.55c-1.67.84-5.07,2.78-5.58,1.43a8.63,8.63,0,0,1,1.09-3.2,55.49,55.49,0,0,1,3.14-5.3,59.43,59.43,0,0,1,6.06-8.22c3.32-3.73,7.34-6.73,10.9-10.2a68.64,68.64,0,0,0,13.85-21.18,108.89,108.89,0,0,0,5.19-14.89c1-3.72,2-7.45,2.65-11.24,1.12-5.51,1.67-11.07,2.85-16.55a183.8,183.8,0,0,1,6.48-23.54,140.1,140.1,0,0,1,8.63-18c2.25-4,4.07-8.18,6.48-12.05a108.12,108.12,0,0,1,8.16-11.42c1.86-2.17,3.89-4.19,5.9-6.21,3.69-3.69,7.15-7.63,11-11.17,1.95-1.7,4.17-3.1,6.25-4.64,2.55-1.94,5.11-3.89,7.78-5.66,3.88-2.52,7.54-5.52,11.63-7.67a72,72,0,0,1,9.13-3.64c2.88-1,5.74-2,8.62-3a61.59,61.59,0,0,1,8-2.19c2.38-.44,4.81-.69,7.21-1a17.5,17.5,0,0,0,3.6-.7,7.17,7.17,0,0,0,2.09-1.67,8.62,8.62,0,0,0,1.81-2.73,2.33,2.33,0,0,0,.14-1.2c-.05-.09-.05-.29-.12-.38s-.15-.19-.17-.37a7.23,7.23,0,0,1-1-.52,13,13,0,0,0-2.71-.81,53.74,53.74,0,0,0-9.23-.68,115.49,115.49,0,0,0-32.09,4c-6.92,2.08-13.81,4.49-20.51,7.17a177.62,177.62,0,0,0-17.82,8.95c-9.44,5.56-17.81,12.8-27.25,18.36a48.29,48.29,0,0,1-18,6.65,87.53,87.53,0,0,1-15.73,1.7c-7.2.07-14.44-.31-21.63.31-6,.49-12.07.79-18,2.1A82.77,82.77,0,0,0,280,554.43c-4.56,3-9.34,5.89-12.7,10.27-4,5.24-7.15,11.12-11.46,16.14-4.12,4.88-9.22,8.81-14.13,12.85a45.21,45.21,0,0,1-9.27,5.9c-7.21,2.47-15,.88-22.39.33a115.76,115.76,0,0,0-13.3-.33c-3.49.11-7,.33-10.46.11a59.09,59.09,0,0,1-12.55-2c-2.54-.77-4.93-2-7.44-2.84-4.34-1.5-8.66-3.07-13-4.68-2.22-.89-4.42-1.85-6.69-2.6a34.72,34.72,0,0,0-10.38-2c-5-.34,5.53-.54,5.45-.46,4-.11,8-.62,12-.68,2.22,0,4.43.23,6.64.35h0c3.68.17,7.36,0,11,.07,1.94,0,3.87.33,5.8.45,3.89.26,7.77-.59,11.66-.48a22.84,22.84,0,0,0,6.78-.83c1.61-.52,3.13-1.32,4.68-2a31.07,31.07,0,0,0,5.63-3.15,34.57,34.57,0,0,0,9.21-10.63c2.22-3.79,4.35-7.65,6.84-11.28a101.5,101.5,0,0,1,6.74-9.6c3.75-4.26,8.4-7.6,12.48-11.52,2.11-2,4.16-4.16,6.22-6.26a46,46,0,0,1,4.22-4.16c4.32-3.54,9.43-5.9,14.28-8.63,2.15-1.22,4.37-2.34,6.49-3.61,3.66-2.32,7.4-4.51,11.14-6.72a145.22,145.22,0,0,1,17.79-9.82c2.9-1.17,5.86-2.23,8.69-3.57,2.36-1.14,4.72-2.33,7-3.57,1.92-1.07,3.8-2.24,5.73-3.32,4.8-2.67,9.78-5,14.62-7.59,1.93-1,3.88-1.9,5.88-2.67s3.78-1.33,5.6-2.13a34,34,0,0,0,6.65-4.85,49.7,49.7,0,0,0,3.8-4.38c3.18-3.77,5.9-7.93,9.29-11.52a84.47,84.47,0,0,1,6.94-6.57c3.44-2.77,7-5.39,10.47-8.13,2.44-1.94,4.83-4,7.37-5.8,3.43-2.2,6.93-4.31,10.41-6.43,3.72-2.16,7.28-4.6,11-6.77,3.21-1.89,6.58-3.53,9.94-5.15,5.38-2.61,10.51-5.75,15.92-8.32,4.71-2.17,9.62-3.87,14.4-5.9,6-2.49,12-4.92,18.14-6.83a128.64,128.64,0,0,1,15.36-3.47,121.4,121.4,0,0,1,13.21-1c2.63-.16,5.25-.6,7.88-.84,2-.19,4.1-.21,6.12-.5a70.57,70.57,0,0,0,8.74-1.8c2.3-.72,4.51-1.71,6.74-2.63,1.57-.66,3.13-1.37,4.74-1.91a41.39,41.39,0,0,1,6.44-1.45c1.72-.2,3.61-.58,5.22.25a6.3,6.3,0,0,1,1.55,2.09c2.25,4.41,5.1,8.68,9.18,11.6a26.81,26.81,0,0,0,8.18,3.68,24.46,24.46,0,0,0,5.46.63c2.42.07,4.84.28,7.25.44a43.59,43.59,0,0,1,5,.6,6.38,6.38,0,0,1,3.42,1.45c.72,1,.58,2.47,1.3,3.54,1.44,2.76,4.72,2.28,7.28,2.87a11.49,11.49,0,0,1,5.7,3.21,31.31,31.31,0,0,0,2.66,2.62,10.94,10.94,0,0,0,5.61,1.72,37.43,37.43,0,0,0,11.46-.92A30.26,30.26,0,0,0,628.4,411a.21.21,0,0,1,.24,0,3.1,3.1,0,0,1,.85-.62c.43-.27.85-.56,1.26-.85a32.84,32.84,0,0,0,6.48-5.5,53.5,53.5,0,0,0,3.37-4.83,57.62,57.62,0,0,0,3.45-6.13c.89-2,1.66-4,2.53-6s1.77-3.76,2.52-5.69a36,36,0,0,0,1.63-4.86,15.06,15.06,0,0,1,1.58-4.34,5.39,5.39,0,0,1,1.89-1.41l2.22-1.16c2-1.07,4.08-2.17,6.07-3.35a40.76,40.76,0,0,1,5.45-3.11,39.75,39.75,0,0,1,6.77-2.14c2.17-.55,4.33-1.36,6.6-1.14a79.83,79.83,0,0,1,14,3,64,64,0,0,1,15.31,5.76,44.78,44.78,0,0,1,8.32,4.95c1.68,1.34,3.63,2.69,4.37,4.8.29.91.13,2.26-.87,2.65a10.8,10.8,0,0,1-2.84.22c-1.33,0-2.69,0-4,.08-4.06-.05-8,1.06-12,1.52a25.3,25.3,0,0,1-10-1,69.29,69.29,0,0,0-7.74-2.14,32.87,32.87,0,0,0-7.55-.09c-2.6.29-5.41.57-7.58,2.16-2.33,1.55-4.87,4.33-3.76,7.34a20.29,20.29,0,0,0,7,9.54c1.89,1.49,4.13,2.48,6,4,4,3.58,8.37,7.41,9.91,12.75a9.34,9.34,0,0,1-.07,6.13,8.11,8.11,0,0,1-3.11,4.37,20.67,20.67,0,0,1-4.87,2.18,14.43,14.43,0,0,1-4.85.92c-7-1.76-13.82-4.49-20.75-6.63-4.69-1.42-9.39-2.92-14.27-3.41a95.7,95.7,0,0,0-16.57-.87,16.93,16.93,0,0,0-5.26.67,13.74,13.74,0,0,0-5,3.14,10,10,0,0,0-2.24,2.89,11,11,0,0,0-.89,2.13,10.82,10.82,0,0,0-.14,3.06,4.7,4.7,0,0,0,1.78,2.94c.91.85,1.89,1.63,2.85,2.41,8.59,7,18.67,11.87,28.41,17,3.91,2.09,7.8,4.74,10,8.69,1.38,2.17,3.22,7.73-1.06,7.53-5.39-1.05-10.35-3.63-15.25-6s-9.82-4.62-14.82-6.65A99.17,99.17,0,0,0,607,451.05c-4.18-.74-8.46-1.13-12.64-1.82-6.74-1-13.59-2.56-20.41-1.36a24.08,24.08,0,0,0-5.15,1.4,58.28,58.28,0,0,0-5.9,3.58c-3.59,2.45-7.31,4.75-10.66,7.54a43.67,43.67,0,0,0-6.29,6.67,42.69,42.69,0,0,0-5.57,8.4,22.27,22.27,0,0,0-1.32,4.81c-.64,2.76-1.28,5.54-1.9,8.3A85.26,85.26,0,0,1,533.52,502a65.22,65.22,0,0,1-5.95,11.46,37.24,37.24,0,0,1-6.79,8.55,27.78,27.78,0,0,1-8.34,4.26c-5.65,2-11.55,3.31-17.16,5.4a81.63,81.63,0,0,0-15.43,8.23,105,105,0,0,0-11.56,9.27c-2.81,2.66-5.4,5.59-8.16,8.3-5.31,5.4-10.81,10.67-15.68,16.47-4.51,5.4-6.9,12.16-10.54,18.13-5.17,8.6-11.05,16.82-15.24,26a64.93,64.93,0,0,0-4.23,13c-.95,4.11-1.37,8.5-3.51,12.21-1.56,2.52-4.51,3.7-7,5.11-2.69,1.4-5.36,2.88-8.07,4.25-3.09,1.72-6.28,3.55-8.6,6.27a4.66,4.66,0,0,0-1.2,3.79,5.36,5.36,0,0,0,.87,1.54,43.61,43.61,0,0,0,3.52,4.17c3.14,3.34,7.07,6.39,8.75,10.79a2.35,2.35,0,0,1,0,1.67,1.64,1.64,0,0,1-1.75.9c-1.76-.28-3.5-.74-5.26-1a44.8,44.8,0,0,0-8.26-.61,24.87,24.87,0,0,0-5.5.62,7.85,7.85,0,0,0-1.72.61l-.23.14-.17.15-.13.16-.08.16,0,.17c0,.12.09.25.11.35a42.64,42.64,0,0,0,3.61,3.23,21.76,21.76,0,0,1,6,8,8.35,8.35,0,0,1,.82,3.88c-.33,1-1.9-.65-2.4-.91-1.15-.82-2.35-1.63-3.57-2.33-4.84-2.67-10.23-4.22-15.55-5.62,5.3,3.39,12.13,9.52,13.7,15.78C379,705.39,379.8,708.48,378.43,708.53Z"/><path class="cls-6" d="M590.87,400.63c-1-.76,1-5.35,1.13-6.61a16.88,16.88,0,0,0,.39-3.69,11,11,0,0,1,1.55-4.32c1-1.84,2.85-3.76,1.88-6-.38-1.07-1-2.08-1.25-3.19a14.23,14.23,0,0,1-.33-3.25,3.23,3.23,0,0,0-1.29-3.07l-9.86-2.31c-.38-.25.75-.45.87-.56,1.24-.46,2.5-1,3.71-1.49,4.76-1.93,9.32-4.29,13.92-6.58A67.68,67.68,0,0,1,614,355.21c5.1-1.3,10.49-2.38,15.72-1.19a19.25,19.25,0,0,1,4.32,1.94,23.51,23.51,0,0,1,5.85,4.6c.56.54,1.14,1.07,1.7,1.6.37.41,1,.81,1,1.41l-.12.12a5.73,5.73,0,0,1-2.39-.19c-1.56-.36-3.12-.81-4.67-1.21-5-1.22-10.06-2.74-15.25-2.86a21.66,21.66,0,0,0-8.43,1.8,34,34,0,0,0-4.83,2.93,14.53,14.53,0,0,0-2.59,2.94c-.83,1.19-1.39,2.31.17,3.18,2.46,1.45,5.47,1.14,8.21,1.36,1.5.08,3.15.09,4.4,1,2,1.7-2.15,3.77-3.41,4.47a40.71,40.71,0,0,0-6.06,3.28,25.62,25.62,0,0,0-3.88,3c-.61.76-.08,1.63.34,2.32a4.52,4.52,0,0,1,.67,2c.12,2.24-2.06,3.43-3.75,4.4s-3.51,1.74-5.15,2.81a14.66,14.66,0,0,0-3.21,3.13,13.25,13.25,0,0,0-.92,1.42C591.51,399.9,591.33,400.49,590.87,400.63Z"/><path class="cls-6" d="M939.05,516.1c-2.45-.31-3.41-3.12-5-4.68a15.9,15.9,0,0,0-4.18-3,2.69,2.69,0,0,0-4.55-1.85,3.35,3.35,0,0,0-.92.32,41.64,41.64,0,0,0-8,0,56.19,56.19,0,0,1-9.85.8,61.59,61.59,0,0,1-10.66-1.28,88.67,88.67,0,0,0-10.64-1.24c-4.35-.11-8.63.88-12.93,1.33-2.59.23-5.19.46-7.79.51s-5.29-.2-7.92-.43-5.34-.51-8-.78a35.63,35.63,0,0,1-8.24-1.71c-2.62-.87-5.22-1.86-7.92-2.47-4.61-1.08-9.35-1.59-14-2.34-8.7-1.17-17.26-3.29-26-4-2.69-.28-5.41-.52-8.09-.84-3.64-.54-7.28-1.19-10.92-1.69-5.32-.8-10.74-1.16-15.9-2.76-3.34-1-6.78-1.62-10.11-2.62-3-.87-6.14-2.29-7.61-5.28a59,59,0,0,1-3.75-8.4c-1.15-3.35-1.94-6.82-3.33-10.08a27.14,27.14,0,0,0-4.75-7.76c-2.33-2.61-5.26-4.64-7.54-7.29a32.22,32.22,0,0,1-4.31-7.17c-.72-1.63-4.19-8.74-4.76-10.24a25.5,25.5,0,0,1,5.63,2.74c1.35,1,2.6,2.14,3.91,3.18s2.67,2,4,3c2.92,2.22,5.07,5.2,7.47,7.93q5.46,5.83,10.77,11.81c2.68,2.94,4.94,6.24,7.76,9,3.32,3.27,7.48,5.54,11.63,7.56,3.3,1.61,6.81,2.71,10.19,4.14,1.27.5,2.49,1.15,3.75,1.66,1.56.64,3.18,1.15,4.79,1.64,3.73,1,7.42,2.13,11.15,3.07,3,.72,5.92,1.83,8.92,2.58,2.76.64,5.6.84,8.39,1.33,2,.42,3.85,1.21,5.8,1.74a104.43,104.43,0,0,0,11.59,2.63c3.26.66,6.5,1.42,9.78,2,3.57.64,7.17,1.1,10.77,1.54,1.54.2,3.09.33,4.62.56s3.07.62,4.61.87c3.29.56,6.62.91,9.94,1.29,2.67.3,5.35.55,8,.9a48.76,48.76,0,0,0,7.63.61c2.23-.05,4.47-.08,6.69-.26,2.54-.2,5-.63,7.58-.83,5.07-.37,10.17,0,15.25-.05,3.89.08,7.82-.18,11.69.22a28.92,28.92,0,0,1,7.52,2c2.33,1.05,5.19,1.33,6.86,3.45a24.13,24.13,0,0,1,2.81,3.94,4,4,0,0,1,.07,2.76C940.71,515.1,940.15,516.17,939.05,516.1Z"/><path class="cls-6" d="M508.9,710.94a45.77,45.77,0,0,0-13.49-6.61,26.31,26.31,0,0,0-7.22-1c-2.44-.23-9.53,1-10.29-1.89-.21-1.07.46-2.08.82-3.05a21,21,0,0,0,1.84-5.31c.81-4.93-4.7-7.17-6.76-10.89-.85-1.7-.17-3.71.63-5.29a47.33,47.33,0,0,1,4.66-7,27.31,27.31,0,0,1,5.16-4.12c5.58-3,11.84-4.36,17.79-6.45,4-1.3,7.86-2.86,11.69-4.51A99.77,99.77,0,0,0,525.91,649a72.21,72.21,0,0,0,13.21-8.1l.11.13a39.18,39.18,0,0,1-5,5.84,30.05,30.05,0,0,1-3.93,2.75c-1.82,1.14-3.66,2.26-5.5,3.37-3.89,2.31-7.58,4.94-11.24,7.59a67.81,67.81,0,0,1-8.81,6.06c-3.23,1.6-6.7,2.78-9.54,5.07-1.68,1.38-5.05,3.82-3,6.15a32.39,32.39,0,0,0,6.26,6.06c3.25,2.79,2.46,2.32,1.78,6.14a23.83,23.83,0,0,0,1.21,9.5,49,49,0,0,0,4.45,7c.75,1,1.52,2,2.26,3C508.26,709.8,509.45,711.05,508.9,710.94Z"/></g><g id="レイヤー_3" data-name="レイヤー 3"><path d="M495.43,696.11a.1.1,0,0,0,0-.05l0,0Z"/><path d="M468.05,734.78l-.05,0-.16,0Z"/><path d="M495.55,696.24l-.12-.13.09.1Z"/><path d="M612.13,409.84l.07,0,.28.05Z"/><path d="M948.78,522.2a8.49,8.49,0,0,0-2.84-5.38l-.34-.3a2.41,2.41,0,0,0,.22-1.5c0-.25-.11-.51-.16-.76a13.37,13.37,0,0,0-.4-1.88,18.3,18.3,0,0,0-1.06-2.45,13.88,13.88,0,0,0-1.74-2.83,12.61,12.61,0,0,0-4.18-2.88,49.38,49.38,0,0,0-5.49-2.37c-2-.7-4-1.25-6.07-1.76a56.7,56.7,0,0,0-8.08-1.53,65.65,65.65,0,0,0-7.29-.09c-2.29,0-4.57.2-6.85.19s-4.79,0-7.18-.16h0l-.27,0,.26,0c-4-.3-8-.94-11.93-1.42-2.19-.27-4.37-.57-6.58-.69-2-.12-3.95-.19-5.92-.32-4.43-.3-8.81-.89-13.22-1.32q-3.31-.31-6.65-.56c-2.22-.17-4.44-.2-6.66-.34-3.81-.26-7.62-.69-11.43-.94l.36,0a69.54,69.54,0,0,1-8.52-1q-4.46-.86-8.9-1.74c-1.39-.29-2.79-.58-4.16-.95s-2.75-.78-4.13-1.15c-2.61-.71-5.23-1.34-7.8-2.2s-5.22-1.68-7.83-2.54-5.26-1.79-7.91-2.64-5.21-1.59-7.79-2.46l.14.05-.22-.08-.12,0,.09,0c-1.38-.5-2.75-1.05-4.13-1.57s-3-1.08-4.51-1.65-3-1.18-4.52-1.78-3-1.2-4.48-1.91h0a69.22,69.22,0,0,1-6.72-4.05c-.9-.61-1.77-1.26-2.63-1.92l.47-.57a23,23,0,0,0,2.5-3.69,46.58,46.58,0,0,0,4.93-12.7c.28-1.38.57-2.77.72-4.17a36.82,36.82,0,0,0,.1-4.33c0-2.47-.08-4.94-.32-7.39-.1-1.1-.22-2.21-.42-3.3-.06-.32-.11-.64-.19-.94a2,2,0,0,0-.06-.35c0-.27-.11-.54-.17-.81-.1-.44-.19-.88-.29-1.32a19.06,19.06,0,0,0-1-4l-.21-.44a6.19,6.19,0,0,0,2-4.92,4,4,0,0,0-.86-2,6.72,6.72,0,0,0-1.41-1.25,3.3,3.3,0,0,0-.41-.23,4.92,4.92,0,0,0-2.94-2.59l-.45-.09c-.23-.93-.49-1.85-.79-2.76a35.21,35.21,0,0,0-4.63-9.33c-1.07-1.58-2.19-3.12-3.4-4.6s-2.35-2.77-3.55-4.14c.07.09.15.17.23.26l-3.52-4a.69.69,0,0,1,.11.13c-2.84-3.24-5.72-6.46-8.77-9.49a59.89,59.89,0,0,0-10.28-8.53,67.51,67.51,0,0,0-6.62-3.5c-2.46-1.16-4.94-2.31-7.43-3.39-.54-.24-1.09-.45-1.64-.66l-.23-.07h0c-.61-.21-1.22-.41-1.84-.6-1.23-.36-2.46-.71-3.71-1a64.43,64.43,0,0,0-15.46-2,25.69,25.69,0,0,0-7.23,1c-.48-.59-1-1.16-1.5-1.72a50.66,50.66,0,0,0-4-3.76c-1-.84-2-1.65-3.08-2.43a23.17,23.17,0,0,0-3.09-2,13.39,13.39,0,0,0-4.57-1.43,8.65,8.65,0,0,0-4.84.9,16,16,0,0,0-2.9,2,26.69,26.69,0,0,0-2.62,2.37,22,22,0,0,0-2.4,2.89,18.54,18.54,0,0,0-1,1.86l.12-.22-.13.25v0l-.06.12a23.87,23.87,0,0,0-6.85-3.16l.24.08c-1.35-.47-2.71-.89-4.05-1.36l.23.08c-1.11-.38-2.21-.78-3.34-1.12a33,33,0,0,0-3.42-.74,39.1,39.1,0,0,0-5-.59c-1.25-.07-2.5-.1-3.75-.11a27.67,27.67,0,0,0-4.07.3,32.58,32.58,0,0,0-7,2c-1.09.4-2.18.81-3.24,1.28s-2.3,1.1-3.45,1.66-2.2,1-3.29,1.52-2.37,1.24-3.55,1.84-2.5,1.14-3.74,1.7c-1.47.67-2.92,1.4-4.43,2-1.33.52-2.67,1-4,1.49s-2.74,1.06-4.12,1.56-2.52.82-3.8,1.19-2.82.71-4.22,1.11c-2.62.74-5.18,1.74-7.85,2.32-1,.19-2,.34-3,.49-.61.09-1.22.18-1.83.3l-.45.08a14.88,14.88,0,0,0-1.81.39,33.58,33.58,0,0,0-4,1.21c-1.2.45-2.35,1-3.53,1.52-2.38,1-4.81,1.95-7.23,2.86s-4.75,1.82-7.08,2.83a30.6,30.6,0,0,0-5.09,2.62,3.39,3.39,0,0,0-.66.54c-.06.07-.12.16-.18.24h-1c-1.93.05-3.86.24-5.79.37l.36,0c-1.38.09-2.76.11-4.13.28s-3,.48-4.51.78-2.85.58-4.29.76c-1.2.15-2.39.32-3.58.51-1.45.24-2.92.46-4.37.71a22.32,22.32,0,0,0-3.05.64c-2.95.91-5.86,2-8.88,2.63-1.65.32-3.3.62-4.95,1-4,.78-8,1.6-12,2.48-4.17.92-8.22,2.26-12.32,3.45-1.69.5-3.4.94-5.08,1.48-2,.64-4,1.31-6,2.06s-4.06,1.7-6.07,2.58-4,1.74-6,2.69c-4.09,2-8.18,3.94-12.23,6-3.74,1.89-7.45,3.81-11.06,5.94s-7.48,4.45-11.25,6.62-7.37,4.43-10.94,6.84a78.52,78.52,0,0,0-9.83,7.9c-1.54,1.45-3.07,2.9-4.63,4.33s-3.09,2.71-4.56,4.15a90.24,90.24,0,0,0-8.15,9.83c-2.37,3.07-4.57,6.26-7.07,9.23-.77.87-1.58,1.7-2.43,2.5a22.41,22.41,0,0,1-1.82,1.43c-1,.66-2.06,1.27-3.13,1.83a103.28,103.28,0,0,1-10.52,4.32c-1.66.58-3.34,1.09-5,1.67s-3.5,1.31-5.21,2.07c-3.46,1.53-6.8,3.34-10.13,5.13q-9.92,5.32-20,10.4l.31-.16q-4.59,2.29-9.14,4.64c-2.74,1.4-5.51,2.75-8.2,4.24-3.75,2.09-7.38,4.39-11,6.74s-7.28,4.77-10.86,7.24-7.14,4.92-10.56,7.58-6.57,5.33-9.69,8.19c-1.44,1.33-2.88,2.67-4.26,4.07-1.6,1.61-3.13,3.3-4.67,5a107.89,107.89,0,0,0-8.34,9.78c-1.29,1.77-2.53,3.57-3.77,5.37a51.24,51.24,0,0,0-3,4.72c-.62,1.16-1.19,2.35-1.72,3.56-.45,1-.82,2.08-1.31,3.09-.71,1.36-1.49,2.69-2.25,4-.57,1-1.13,2-1.76,3l-.2.26c-.16.17-.31.32-.48.48s-.58.45-.88.66a25.41,25.41,0,0,1-2.21,1.28c-.71.34-1.44.64-2.18.92a36.36,36.36,0,0,1-3.84,1.06,35,35,0,0,1-3.54.46c-3.16.18-6.31,0-9.48,0s-6.42,0-9.63-.12c-3.64-.1-7.27-.22-10.91-.3-3.4-.07-6.79,0-10.18.17-3.91.19-7.81.2-11.71.21-2.26,0-4.51,0-6.77.19-1.63.14-3.27.33-4.91.45H130c-2.3.14-4.6.13-6.91.15a56.87,56.87,0,0,0-8,.67,14.56,14.56,0,0,0-5.38,1.54,5.72,5.72,0,0,0-2.18,2.24c-.19.38-.36.75-.51,1.13l-.26,0a24.61,24.61,0,0,0-3.75.24,9.47,9.47,0,0,0-4.07,2.11,8.27,8.27,0,0,0-2.7,3.46,16.18,16.18,0,0,0-.75,4.2,7.34,7.34,0,0,0-.83.35,5.75,5.75,0,0,0-1.05.72,8.67,8.67,0,0,0-2.09,2.68c-.13.24-.27.49-.38.74a9,9,0,0,0-.47,1,20,20,0,0,0-.82,2.24,10.35,10.35,0,0,0-.44,4.1,6.22,6.22,0,0,0,1.24,3.08,7.37,7.37,0,0,0,1,1.06,5,5,0,0,0,2.14,1,3.07,3.07,0,0,0,.67.08,2.86,2.86,0,0,0,1.35-.35,8.92,8.92,0,0,0,3.84,5.62c1.28.92,2.65,1.75,4,2.55a13.12,13.12,0,0,0,2.84,1.33,20,20,0,0,0,3.5.73c2.62.35,5.25.65,7.88.82h0l1,.07h-.08c2.49.17,5,.29,7.46.28s5.12-.19,7.68-.36h-.23a72.44,72.44,0,0,1,8.84-.1A99.5,99.5,0,0,1,154,626.51c2.51.53,5,1.21,7.47,1.83,4.9,1.22,9.86,2.23,14.78,3.38,1.41.34,2.84.61,4.25.94s2.81.69,4.23,1a72.47,72.47,0,0,0,8.41,1.33c2.81.26,5.61.59,8.43.84s5.34.4,8,.5c5.26.21,10.54.28,15.81.3l5.23,0h2.94a46.72,46.72,0,0,0,8.18-.68,64.68,64.68,0,0,0,8.17-2.27c2.67-.85,5.32-1.73,8-2.66,1.59-.55,3.19-1.07,4.77-1.63s3.18-1.18,4.76-1.79c3-1.15,6-2.32,9-3.4l-.06,0,.11,0,.22-.08-.08,0c2.1-.72,4.22-1.44,6.35-2.1s4.14-1.13,6.25-1.58c2.95-.6,5.91-1.25,8.88-1.71s5.78-.64,8.67-.84l-.37,0c2.43-.16,4.86-.21,7.28-.29s4.59-.15,6.88-.2,4.73,0,7.09,0c2.11,0,4.22,0,6.32.16s4,.32,6,.66,3.94.64,5.9,1a108,108,0,0,1,10.94,3.25l-.13,0,.23.08.1,0-.07,0a91.39,91.39,0,0,1,9.57,4,40.79,40.79,0,0,1,4,2.42c.76.51,1.5,1.05,2.21,1.63-.27,1.21-.52,2.43-.8,3.64a60.52,60.52,0,0,1-1.85,6.34,132,132,0,0,1-6.49,15.66,76,76,0,0,1-4.22,7.11,114.47,114.47,0,0,1-7.95,10.86c-.46.52-1,1-1.46,1.49a21.14,21.14,0,0,0-1.8,2c-1.15,1.38-2.26,2.8-3.4,4.19s-2.19,2.82-3.32,4.21c-1,1.17-1.91,2.36-2.9,3.51-.63.69-1.28,1.35-1.86,2.09a29.22,29.22,0,0,0-1.76,2.62c-.86,1.41-1.76,2.8-2.6,4.22a6.78,6.78,0,0,0-.84,1.91,4.28,4.28,0,0,0,1.13,4.15,18.91,18.91,0,0,0,1.82,1.38l.14.09a16.84,16.84,0,0,0-.82,3.06c-.09.54-.17,1.08-.22,1.62a10,10,0,0,0,0,2.44,12.32,12.32,0,0,0,1.33,3.85,10.89,10.89,0,0,0,2.26,3.12,8.38,8.38,0,0,0,3.36,1.93,15,15,0,0,0,3.47.47l1.05,0c.33,0,.65,0,1,0a12.63,12.63,0,0,0,.18,3.47,10.35,10.35,0,0,0,1.67,3.78,10.68,10.68,0,0,0,2.56,2.46,15.56,15.56,0,0,0,3.64,2,20.11,20.11,0,0,0,4.32,1,9.28,9.28,0,0,0,1.07.08,3.66,3.66,0,0,0,1.1-.15,8.46,8.46,0,0,0,1.81-.76,14.45,14.45,0,0,0,2.3-1.76l-.09.09.19-.17.18-.15a13.33,13.33,0,0,0,1.16-1.08,1.49,1.49,0,0,0,.12-.14l.14.12a8.59,8.59,0,0,0,4.68,1.68,7.32,7.32,0,0,0,.81,0,8.67,8.67,0,0,0,3.46-.71,10.17,10.17,0,0,0,3.54-2.7,38.54,38.54,0,0,0,4.19-5.94,49.58,49.58,0,0,0,3.15-7c.92-2.49,1.71-5,2.86-7.41.23-.42.46-.84.72-1.25s.63-.84,1-1.25c.64-.7,1.3-1.37,2-2,1.07-.94,2.18-1.85,3.25-2.79s2.21-2,3.3-3c2.22-2,4.48-4.05,6.74-6.05a54,54,0,0,1,4.51-3.42c1.7-1.14,3.4-2.3,5.15-3.38s3.74-2.26,5.54-3.49a72.12,72.12,0,0,0,6.09-4.47,71.15,71.15,0,0,0,6.16-6.12c1.2-1.28,2.42-2.55,3.63-3.82-.56,2-.91,4-1.29,6.06s-.77,4.17-1.05,6.26a70.42,70.42,0,0,0-.54,7.11c-.09,2.64-.09,5.28,0,7.9a39.47,39.47,0,0,0,.35,4.06c.19,1.27.45,2.52.75,3.77a59.52,59.52,0,0,0,2.33,8.1,29.44,29.44,0,0,0,1.72,3.69,21.71,21.71,0,0,0,2.36,3.29,55.36,55.36,0,0,0,5.69,5.77,38.85,38.85,0,0,0,6.48,4.61A54.78,54.78,0,0,0,461,732.1c2.33.93,4.65,1.84,7,2.66l.14,0h0c2.58.92,5.07,2,7.58,3.15,1.12.5,2.25,1,3.42,1.39a28.79,28.79,0,0,0,3.57.93l.69.13a27.56,27.56,0,0,0,4.8.35l2.28,0a27.7,27.7,0,0,0,11.19-2.06c1.08-.38,2.18-.75,3.25-1.17a29.11,29.11,0,0,0,3.57-1.69,18.18,18.18,0,0,0,3.09-2.36l-.26.23a13.15,13.15,0,0,0,2.14-2.27c.54-.77,1-1.57,1.55-2.35h0a18.5,18.5,0,0,0,2.15-4,8.31,8.31,0,0,0,.56-2.51c0-.62,0-1.26,0-1.89a35.21,35.21,0,0,0-.81-7c-.3-1.22-.61-2.44-1-3.62a26,26,0,0,0-1.56-3.49,18.6,18.6,0,0,0-2.34-3.48c-.84-1-1.82-1.78-2.74-2.69h0a2.59,2.59,0,0,0,.38-2.2,14.54,14.54,0,0,1-.42-1.7c-.12-.65-.2-1.29-.26-2-.1-1.73-.06-3.47,0-5.21s.08-3.37.19-5a47.79,47.79,0,0,1,.76-5.46c.28-1.33.6-2.64.95-3.95s.65-2.5,1.05-3.73c.13-.36.28-.7.44-1s.38-.67.59-1c.52-.74,1.1-1.44,1.69-2.13l-.16.18.2-.22h0a46.13,46.13,0,0,1,3.6-3.53c1.3-1.15,2.55-2.36,3.84-3.52,2.9-2.5,6.19-4.53,9.26-6.83,1.79-1.35,3.47-2.84,5.13-4.35s3.08-3.1,4.59-4.69c2-2,4.11-3.84,5.93-6a30.19,30.19,0,0,0,4.27-6.25,32.76,32.76,0,0,0,2.27-6.62,16.4,16.4,0,0,0,.54-4.06v-2a2.58,2.58,0,0,0-.22-1l4.21,0h1.63c.85,0,1.7,0,2.55-.06a39.31,39.31,0,0,0,4.06-.41c1.33-.22,2.64-.48,4-.78a73.33,73.33,0,0,0,7.46-2c4.6-1.54,9.06-3.44,13.57-5.23a48.23,48.23,0,0,0,7.49-3.52c2.2-1.36,4.26-3,6.39-4.42,1.76-1.17,3.57-2.28,5.31-3.48a118.79,118.79,0,0,0,12.65-10.39,124.71,124.71,0,0,0,11.79-12A82.57,82.57,0,0,0,640,569c1.51-2.25,2.91-4.59,4.26-7s2.82-4.85,4-7.38,2.23-4.85,3.42-7.24c.94-1.81,1.9-3.61,2.71-5.48.53-1.21,1-2.44,1.48-3.67a2.72,2.72,0,0,0,2.28-1.55c.92-.42,1.88-.77,2.84-1.11a53.66,53.66,0,0,1,5.83-1.64,71.15,71.15,0,0,1,7.83-.93c3.83-.22,7.66-.27,11.48-.28s7.57.12,11.35.34c2.91.2,5.82.43,8.73.66,2.64.21,5.29.39,7.93.65s5.39.65,8.09,1c5.6.71,11.19,1.53,16.81,2.09,2.75.27,5.5.58,8.25.78s5.59.27,8.38.31q8,.11,16.07.13c2.66,0,5.33,0,8,0s5.49-.24,8.24-.3c5.27-.12,10.54-.12,15.81-.12H820.2c4.95,0,9.89,0,14.84,0q8.07-.08,16.13-.07c5,0,9.93,0,14.89.28,2.29.16,4.58.39,6.88.57,2.48.2,5,.46,7.43.71s5.06.57,7.59.89c2.25.29,4.51.62,6.77.84,5.09.52,10.2.64,15.3,1h0c2.2.14,4.4.18,6.62.19h.27a46.1,46.1,0,0,0,5.51-.27,2.69,2.69,0,0,0,2.31-2.54,2.58,2.58,0,0,0,2,1h.08c.33,0,.65,0,1-.06h.13c1,0,2,0,3-.15a31.25,31.25,0,0,0,5.09-.84,15,15,0,0,0,2.81-1.17,8.73,8.73,0,0,0,2.32-1.73,7.65,7.65,0,0,0,2.3-4.51c0-.46,0-.92,0-1.37l.33-.08a6.52,6.52,0,0,0,4.27-3.74,13.63,13.63,0,0,0,.68-2.6A9.48,9.48,0,0,0,948.78,522.2Zm-21.57-12.52h-.13l-.91-.14a14.41,14.41,0,0,1-1.43-.39h0l.12,0,.23,0h.36q.3,0,.6.09l.28.07.42.18.25.15ZM98.6,608.55a2.78,2.78,0,0,0-2.34,1.34v0a2.38,2.38,0,0,0-1-.56L95,609.3h0l-.09-.1,0-.06L94.8,609l-.06-.16,0-.1,0-.22c0-.15,0-.29,0-.43s0-.42.09-.63c.11-.47.25-.93.4-1.39s.47-1.16.74-1.73l.06-.13c.21-.39.43-.78.67-1.15l.13-.18.12-.12.26-.2,0,0A7.36,7.36,0,0,0,99,601.8a5.13,5.13,0,0,0,.18,2.51,9.13,9.13,0,0,0,1.64,2.75,10.41,10.41,0,0,0,1.62,1.63l.33.24a8.3,8.3,0,0,0-1.52,1.72A2.71,2.71,0,0,0,98.6,608.55Zm9.58,6.07h-.85c-.34,0-.67-.09-1-.15s-.64-.17-.95-.27a2.56,2.56,0,0,1,.11-.24l.21-.37.22-.3.2-.2h0a2.24,2.24,0,0,0,.55-.19,2.67,2.67,0,0,0,1,1.16,4.92,4.92,0,0,1,.45.28l.33.26Zm2.41-9.19c0,.1-.06.19-.08.29l-.05.11-.07.11-.22.06-.32,0h-.37L109,606c-.42-.1-.82-.21-1.23-.34l-1-.4-.56-.32-.57-.43q-.36-.33-.69-.69c-.16-.19-.31-.38-.45-.58l-.3-.49,0-.06,0,0,.08-.11,0,0h0l.07,0,.17,0h.18c.29,0,.56.07.84.12.62.14,1.24.31,1.85.51s1,.38,1.44.6l.41.23.21.16.1.1.3.38a2.63,2.63,0,0,0,.6.9Zm832.82-81.58a11.08,11.08,0,0,1-.33,1.29c0,.06-.05.12-.07.19h0l0,0-.26.2-.28.17h0l-.37.09.21,0-1.16.23-.22,0h.06a2.71,2.71,0,0,0-2.56,2.67,1.49,1.49,0,0,0,0,.21,2.62,2.62,0,0,0-.31,1.21c0,.62,0,1.24,0,1.86h0a.61.61,0,0,1-.07.14q-.07.15-.15.27c-.14.19-.28.37-.43.55a4.67,4.67,0,0,1-.44.45l-.2.17c-.28.17-.55.32-.84.46s-.64.31-1,.44a11.78,11.78,0,0,1-1.3.33,39.09,39.09,0,0,1-3.89.53c-.9.06-1.8.06-2.69.12l.36,0-.66,0a2.72,2.72,0,0,0-2.67,2.56,2.78,2.78,0,0,0-2.45-1c-.6.07-1.2.14-1.8.19-1.39.06-2.79,0-4.18,0-1.7,0-3.39,0-5.09-.15h-.11c-4-.27-7.94-.41-11.91-.67-3.63-.27-7.24-.78-10.85-1.26-4.22-.56-8.46-1-12.7-1.36-2.59-.22-5.19-.47-7.79-.66-2.43-.17-4.86-.27-7.3-.33-2.7-.08-5.4,0-8.1,0h-8.24c-5,0-10,.07-15,.07H796.85c-2.68,0-5.36,0-8,.09s-5.58.23-8.37.31-5.34,0-8,0l-7.71,0c-2.73,0-5.47-.06-8.21-.1s-5.45-.08-8.17-.24l-.77-.06q-8.46-.71-16.86-1.84c-2.71-.37-5.42-.7-8.13-1s-5.43-.73-8.16-1-5.41-.45-8.11-.66-5.34-.42-8-.6c-5.23-.37-10.47-.43-15.71-.37a97.83,97.83,0,0,0-16.39,1.21,51,51,0,0,0-7.83,2.23c.81-2.65,1.53-5.32,2.07-8,.43-2.2.7-4.42,1-6.65s.54-4.72.74-7.09q.72-8.31.83-16.67c0-2.72.06-5.45.06-8.18a55.87,55.87,0,0,0-.39-8.38,2.68,2.68,0,0,0-5.32.72c.12.76.2,1.52.26,2.29.11,2,.09,4,.08,6s0,4.09,0,6.14c0,4.19-.16,8.38-.43,12.56-.22,3.28-.53,6.54-.88,9.81-.3,2.92-.63,5.84-1.19,8.73a105.55,105.55,0,0,1-3.36,11.83l.11-.33-.3.88v0l0,.05-.1.28s0-.09,0-.14a78.26,78.26,0,0,1-3.16,7.56c-.94,1.82-1.88,3.63-2.75,5.48s-1.61,3.5-2.44,5.23c-1.2,2.33-2.52,4.62-3.84,6.89s-2.77,4.64-4.28,6.89a79.42,79.42,0,0,1-5.49,7A171.18,171.18,0,0,1,615.82,587l.26-.22c-1.6,1.4-3.21,2.79-4.89,4.1-1.47,1.14-3,2.22-4.52,3.27s-3.36,2.15-5,3.28-3,2.11-4.45,3.15c-1,.63-2,1.2-3,1.74-2.9,1.43-5.93,2.57-8.94,3.76-2.74,1.08-5.46,2.21-8.25,3.18a86.05,86.05,0,0,1-9.51,2.57,47.16,47.16,0,0,1-4.87.69c-3.08.17-6.19.08-9.27.06-2.48,0-4.95-.11-7.42-.11a2.68,2.68,0,1,0,0,5.36h.34c.88,0,1.77,0,2.65,0a2.63,2.63,0,0,0-.26,1.12c0,1,0,2,0,3,0,.28-.08.57-.13.85a40.81,40.81,0,0,1-1.23,4.49c-.27.73-.58,1.44-.92,2.15s-.8,1.44-1.26,2.14c-.81,1.16-1.7,2.25-2.61,3.34-1.8,2-3.88,3.75-5.72,5.72-1,1.07-2,2.13-3,3.15s-1.86,1.74-2.81,2.59c-.79.68-1.59,1.35-2.42,2-1.93,1.5-4,2.81-5.94,4.25a59.75,59.75,0,0,0-5.72,4.7c-1.73,1.65-3.58,3.17-5.24,4.9a21.17,21.17,0,0,0-4.52,6.28,32.52,32.52,0,0,0-1.11,3.6c-.33,1.2-.66,2.41-.95,3.63a49.42,49.42,0,0,0-1.24,7.46c-.22,2.82-.26,5.65-.29,8.48a35.47,35.47,0,0,0,.2,4.25l-.78-.49c-1-.68-1.92-1.43-2.82-2.2-.2-.19-.38-.37-.56-.57a2.35,2.35,0,0,0-.26-.29,2.68,2.68,0,0,0-3.92,3.65,21.3,21.3,0,0,0,2.82,2.55,24.71,24.71,0,0,0,2.13,1.56c.61.38,1.24.73,1.84,1.13a19.41,19.41,0,0,1,1.62,1.25c.72.66,1.4,1.37,2.11,2.05s1.31,1.18,1.92,1.83c.34.41.67.83,1,1.26a19.62,19.62,0,0,1,1,1.72c.4.83.79,1.67,1.11,2.54.37,1.17.68,2.38.94,3.58a31.82,31.82,0,0,1,.47,3.77,29,29,0,0,1,.06,3l0,.27c-.05.2-.11.4-.17.6-.17.43-.35.85-.55,1.27s-.57,1-.89,1.47l.19-.29c-.51.76-1,1.53-1.51,2.3-.21.3-.43.6-.66.88s-.5.5-.76.74l.14-.12-.38.33.1-.08a19.19,19.19,0,0,1-1.56,1.27c-.43.26-.87.5-1.32.73a67.57,67.57,0,0,1-6.72,2.6,21.52,21.52,0,0,1-2.38.67,25.69,25.69,0,0,1-3,.38,55.35,55.35,0,0,1-6.69.1,23.33,23.33,0,0,1-2.51-.36l-.29-.06.35.07a24.56,24.56,0,0,1-2.92-.76c-1.88-.71-3.71-1.57-5.54-2.4-2.21-1-4.48-1.8-6.76-2.59l.12,0-.2-.07-.13,0,.08,0c-1.85-.66-3.67-1.41-5.5-2.14s-3.55-1.37-5.26-2.21c-1.2-.64-2.36-1.34-3.49-2.08a34.73,34.73,0,0,1-3.32-2.62,52.44,52.44,0,0,1-4-4l.05.06-.08-.08-.15-.17.11.12c-.77-.89-1.51-1.8-2.19-2.76-.35-.56-.67-1.12-1-1.71-.48-1-.89-2.09-1.28-3.17a79.77,79.77,0,0,1-2-7.8,34.76,34.76,0,0,1-.54-4.31,99.93,99.93,0,0,1,.06-11.61c.15-2.16.47-4.29.83-6.42s.72-4.1,1.13-6.14a39.17,39.17,0,0,1,1.14-4.25c.19-.53.38-1.07.61-1.58a4,4,0,0,1,.2-.35l0,0a2.72,2.72,0,0,0-.08-3.71,2.54,2.54,0,0,0-.63-.44l.75-.85c1.35-1.52,2.73-3,4.16-4.44s2.73-2.8,4.12-4.17c2.76-2.72,5.7-5.28,8.6-7.85l-.17.15c2.53-2.23,5.09-4.42,7.63-6.64s5.12-4.6,7.7-6.89h0c1.67-1.46,3.4-2.85,5.12-4.25s3.28-2.66,5-3.87c1-.69,2-1.33,3.13-1.92a70.69,70.69,0,0,1,7.07-2.87,86.4,86.4,0,0,1,9.25-2.35c1.3-.26,2.6-.5,3.9-.74a2.73,2.73,0,0,0,2.29-3,2.69,2.69,0,0,0-3-2.29,94.93,94.93,0,0,0-16,4,46.54,46.54,0,0,0-7.74,3.52,58.61,58.61,0,0,0-6.83,5c-2.14,1.73-4.27,3.45-6.31,5.28s-3.87,3.5-5.82,5.23h0c-2,1.74-4,3.46-6,5.2s-4.18,3.66-6.25,5.51c-1.86,1.68-3.75,3.33-5.52,5.1-1.93,2-3.89,3.89-5.78,5.88-1.72,1.79-3.33,3.68-5,5.56l0,0-.06.06c-.05.07-.11.13-.17.2l.09-.1c-1.94,2.19-3.9,4.34-5.93,6.43-2.25,2.33-4.36,4.78-6.76,6.94a72.77,72.77,0,0,1-6.64,4.94l.05,0c-.45.3-.9.6-1.37.89-2,1.27-4.07,2.47-6.06,3.79-2.15,1.44-4.38,2.82-6.39,4.46s-4,3.51-6,5.29c-1.77,1.58-3.52,3.19-5.29,4.78-1.65,1.43-3.4,2.77-4.93,4.33a22.36,22.36,0,0,0-2.18,2.48,18,18,0,0,0-1.67,2.8c-1,2.15-1.76,4.42-2.59,6.66a58.09,58.09,0,0,1-2.36,5.71A37,37,0,0,1,377.2,723c-.78,1.13-1.59,2.24-2.47,3.28-.19.21-.39.41-.59.61l-.41.32-.39.22-.39.17-.47.12-.57.07h-.34c-.26,0-.52-.06-.78-.11l-.53-.14-.32-.13-.06,0a2.73,2.73,0,0,0-2.32-2.62,2.7,2.7,0,0,0-2.68,1.32h0l0,0a2.65,2.65,0,0,0-.3.8v0a2.78,2.78,0,0,0-2.29.74c-.23.22-.46.46-.71.68l-.22.19h0l-.37.31c-.38.32-.77.64-1.17.93l-.27.16.15-.08-.18.09-.13.07.1-.05-.16.07h0c-.46,0-.91-.13-1.36-.21a18.62,18.62,0,0,1-1.95-.51c-.24-.09-.48-.19-.71-.3a16.16,16.16,0,0,1-1.45-.85c-.33-.23-.66-.48-1-.74l-.41-.4c-.13-.16-.26-.32-.38-.49s-.15-.25-.22-.37-.18-.4-.26-.6-.13-.46-.18-.69-.07-.46-.09-.69a13.27,13.27,0,0,1,0-1.41c.1-1.15.23-2.29.43-3.43a3.45,3.45,0,0,0,.28-.26,2.43,2.43,0,0,0,.63-1,2.68,2.68,0,0,0-.19-5.35,6.24,6.24,0,0,0-3.68.88,5.17,5.17,0,0,0-1.88,2.9c-.2.16-.41.33-.63.49l-.34.21-.09,0-.35,0c-.61,0-1.23,0-1.84,0a12.6,12.6,0,0,1-1.36-.16,5.62,5.62,0,0,1-.55-.15l-.35-.15-.15-.09-.29-.22-.35-.35c-.15-.18-.29-.37-.43-.56-.25-.38-.47-.77-.69-1.18s-.29-.65-.43-1-.13-.42-.18-.63,0-.11,0-.17,0-.43,0-.64c.08-.86.19-1.7.35-2.54.08-.34.17-.67.27-1s.19-.48.29-.72.38-.67.58-1,.54-.72.84-1.06.53-.56.8-.83l.45-.43.21-.17.17-.16a2.73,2.73,0,0,1-.25.23c.86-.72,1.76-1.37,2.69-2a27.2,27.2,0,0,1,2.32-1.43,10.19,10.19,0,0,1,1-.43h0a2.68,2.68,0,0,0-.4-5.33,5.62,5.62,0,0,0-2.22.61,20,20,0,0,0-2.67,1.49c-.92.6-1.82,1.21-2.7,1.85-.43.32-.85.66-1.27,1l-.24.22-.3.25c-.41.37-.81.76-1.2,1.16l-.54-.37c.38-.65.81-1.27,1.21-1.91.7-1.15,1.39-2.32,2.13-3.45a15.35,15.35,0,0,1,1.1-1.45q3.06-3.36,5.81-7c.94-1.23,1.92-2.41,2.9-3.61s1.89-2.39,2.88-3.55c.74-.79,1.56-1.5,2.28-2.32s1.68-1.92,2.45-2.92c1.62-2.07,3.05-4.28,4.55-6.43s2.91-4.25,4.21-6.46a79.8,79.8,0,0,0,3.76-7.37c1.08-2.38,2.09-4.78,3-7.21,1-2.68,2-5.36,2.85-8.09s1.39-5.51,2-8.28,1.09-5.38,1.63-8.07c.37-1.75.78-3.48,1.11-5.23s.61-3.52,1-5.27c.43-2,1-3.89,1.49-5.83s1-4,1.44-6,.83-3.91,1.33-5.84,1.06-3.85,1.71-5.75c1.14-3.21,2.38-6.37,3.63-9.53s2.5-6.23,4-9.24c1-2,2-3.93,3.16-5.81s2.31-3.61,3.51-5.38l0,0c1.2-1.76,2.39-3.53,3.7-5.22s2.55-3.13,3.89-4.65l-.09.09c2.61-2.94,5.16-5.93,7.76-8.87l0,0q2-2.25,4.05-4.46c1.3-1.39,2.6-2.77,4-4.06s3.12-2.48,4.7-3.68,3.36-2.56,5.11-3.75a102.62,102.62,0,0,1,10.2-6.28c1.73-.84,3.49-1.62,5.23-2.43s3.62-1.76,5.49-2.51c1.66-.67,3.34-1.31,5-2.09s3.43-1.75,5.14-2.64a43.58,43.58,0,0,1,4.5-1.94c2.17-.72,4.36-1.35,6.59-1.85,1.51-.28,3-.4,4.54-.68s2.79-.6,4.2-.73c.88,0,1.76,0,2.63,0a2.69,2.69,0,1,0,0-5.37h-.08c-.64,0-1.27,0-1.91,0a22.43,22.43,0,0,0-3.66.43c-1.34.26-2.67.53-4,.69a34.51,34.51,0,0,0-4,.72,58.91,58.91,0,0,0-7.66,2.36,81.58,81.58,0,0,0-7.45,3.66l-1,.51c-2.36,1.13-4.84,2-7.21,3.07-2.59,1.21-5.22,2.37-7.8,3.62a64.14,64.14,0,0,0-7.08,4c-2.22,1.46-4.44,2.92-6.6,4.45-1.13.81-2.22,1.67-3.33,2.51s-2,1.51-3,2.29a54.45,54.45,0,0,0-5.7,5.36c-3.67,3.91-7.15,8-10.69,12h0c-1.8,2.06-3.64,4.09-5.34,6.23s-3.27,4.48-4.82,6.78c-1.44,2.12-2.87,4.25-4.13,6.49s-2.6,4.76-3.69,7.23-2.17,5.17-3.21,7.77-1.93,4.9-2.83,7.37a78.19,78.19,0,0,0-2.46,7.93c-.67,2.65-1.19,5.33-1.82,8s-1.33,5.25-2,7.88-1,5.32-1.56,8c-.34,1.63-.71,3.26-1,4.89-.16.81-.32,1.62-.47,2.43-.68-.47-1.38-.92-2.08-1.37a39.45,39.45,0,0,0-4.71-2.53c-1.79-.82-3.58-1.64-5.42-2.35s-3.6-1.33-5.43-1.91c-2.5-.8-5-1.66-7.58-2.28-2.74-.67-5.53-1.13-8.32-1.56a105,105,0,0,0-16.34-.82c-2.7,0-5.4.09-8.09.18s-5.68.13-8.51.29-5.51.37-8.25.68-5.32.88-8,1.4c-2.82.55-5.64,1.08-8.4,1.87s-5.24,1.67-7.84,2.56c-5.08,1.76-10,3.87-15.1,5.65h0l-5.61,1.92q-3.39,1.15-6.79,2.23c-2.2.69-4.39,1.37-6.64,1.85-1.21.21-2.41.37-3.63.47l-.31,0c-2.72.18-5.44.12-8.16.11s-5.3,0-7.94,0c-5.13-.05-10.26-.15-15.37-.47-3.11-.22-6.21-.56-9.31-.86-1.56-.16-3.12-.28-4.68-.47s-2.92-.45-4.36-.74c-2.13-.45-4.23-1-6.35-1.45s-4.27-1-6.42-1.44c-3.64-.78-7.28-1.6-10.9-2.49-2.68-.66-5.36-1.41-8.06-2a71.94,71.94,0,0,0-8.79-1.18c-2.54-.21-5.09-.44-7.65-.43s-5,.19-7.56.36l.37,0a94.17,94.17,0,0,1-12.23,0l.36,0-1.77-.12H118c-1.48-.11-3-.29-4.44-.45-.7-.08-1.39-.15-2.08-.24a6.66,6.66,0,0,0,1.89-1.32,4.57,4.57,0,0,0-.08-6.16c-.27-.31-.55-.59-.84-.87a4.35,4.35,0,0,0,1.21-.68,6.55,6.55,0,0,0,2.13-3.38,2.68,2.68,0,0,0-.7-2.61,2.44,2.44,0,0,0,.1-.71,3.86,3.86,0,0,0-.86-2.19c-1.48-2.12-4-3.12-6.39-3.78a8.68,8.68,0,0,0-5.31-.14,5.87,5.87,0,0,0-1.86,1.13l0-.39c.06-.78.14-1.56.27-2.33l.15-.57.12-.29a.43.43,0,0,0,0-.07c.23-.24.46-.47.7-.69s.63-.52,1-.76a3.37,3.37,0,0,1,.32-.19l.47-.2.34-.09.14,0c1.13,0,2.26,0,3.39-.16a7.09,7.09,0,0,0,2.1-.5,5.05,5.05,0,0,0,0,4,6.39,6.39,0,0,0,2.83,2.87,18.6,18.6,0,0,0,4.4,1.62,27.79,27.79,0,0,0,4,.66c.53,0,1,.08,1.57.08l.44,0a5.61,5.61,0,0,0-.55.41A8.23,8.23,0,0,0,120,605.4a8.56,8.56,0,0,0-.22,4.91,8,8,0,0,0,2.2,3.75,8.62,8.62,0,0,0,3.45,2.22,12.21,12.21,0,0,0,4.06.7h.12a6,6,0,0,0,4.47-1.7,13.27,13.27,0,0,0,2.27-3.6c.5-1.1.91-2.24,1.43-3.33.13-.23.26-.46.4-.69l.06-.07.22-.22.6-.45.71-.44a2.72,2.72,0,0,0,1-3.67,2.4,2.4,0,0,0-.39-.5,4.26,4.26,0,0,0-2.2-3.3,13.06,13.06,0,0,0-5.4-1.21,9.65,9.65,0,0,0-2.89.17,13.82,13.82,0,0,0-2.36.85,2.57,2.57,0,0,0-.08-1,2.5,2.5,0,0,0-.18-.48,2.76,2.76,0,0,0,.31-.7,2.64,2.64,0,0,0-.16-1.82h0a13.22,13.22,0,0,0-1.39-2.53,9.61,9.61,0,0,0-3.25-2.58,14.79,14.79,0,0,0-3.38-1.31,11.78,11.78,0,0,0-4-.34,6.5,6.5,0,0,0-3.41,1.4c.07-.18.15-.37.24-.55l.1-.18.29-.17.3-.12c.49-.15,1-.27,1.48-.38a57.18,57.18,0,0,1,6.39-.79c2.42-.14,4.85-.05,7.27-.13,2.81-.09,5.59-.44,8.38-.65,1.91-.11,3.82-.1,5.73-.09h2.11c2.31,0,4.62,0,6.93-.1,3.54-.13,7.06-.34,10.6-.3,1.65,0,3.29.06,4.94.12,1.89.07,3.78.08,5.67.14,1.6,0,3.21.12,4.82.15,1.46,0,2.91,0,4.37,0,1.67,0,3.34,0,5,.06,1.42,0,2.84.08,4.27.05a39.14,39.14,0,0,0,9.52-1.16,28.7,28.7,0,0,0,5.46-2,17.45,17.45,0,0,0,4.6-3.14,14.7,14.7,0,0,0,2.13-3c.86-1.49,1.7-3,2.54-4.5a32.28,32.28,0,0,0,1.81-3.86c.4-1,.86-2,1.33-3l-.09.18c0-.09.09-.18.14-.27l0,0,0,0a43.13,43.13,0,0,1,2.25-3.83c1.47-2.16,2.94-4.33,4.49-6.44,1.43-1.95,3-3.8,4.57-5.62,2.3-2.57,4.61-5.14,7-7.62,2.25-2.32,4.62-4.53,7-6.69l-.26.23c3.28-2.89,6.64-5.66,10.16-8.24s7.19-5.12,10.83-7.6l-.29.19c5.31-3.58,10.66-7.13,16.17-10.38,2.81-1.66,5.72-3.15,8.63-4.63,2.6-1.32,5.19-2.68,7.8-4,4.92-2.44,9.78-5,14.66-7.49s9.44-5.07,14.2-7.52a86.38,86.38,0,0,1,8.56-3.71l1.24-.42c3.94-1.3,7.86-2.64,11.67-4.3a44.77,44.77,0,0,0,5.79-2.91,26,26,0,0,0,4.84-3.77,80,80,0,0,0,7.23-9c1.26-1.7,2.57-3.37,3.86-5.05s2.47-3.2,3.79-4.73c2.08-2.27,4.41-4.25,6.67-6.32s4.36-4.13,6.61-6.13a72.92,72.92,0,0,1,6.56-5.06h0c2.8-1.88,5.63-3.72,8.54-5.43s5.62-3.26,8.42-4.93,5.59-3.37,8.44-4.95,5.67-3,8.53-4.43c4.17-2.08,8.35-4.15,12.59-6.11,2.1-1,4.24-1.89,6.37-2.82s4.13-1.73,6.24-2.48c4.32-1.47,8.74-2.65,13.1-4,2.44-.74,4.88-1.42,7.38-2q3.27-.72,6.56-1.39l-.35.07c2-.4,4-.81,6-1.19,1.71-.34,3.43-.62,5.13-1s3.47-.93,5.18-1.47c1.4-.44,2.78-1,4.22-1.33s2.77-.47,4.15-.69c1.58-.25,3.15-.51,4.73-.71,3.5-.43,6.9-1.44,10.42-1.71,1.82-.1,3.64-.22,5.46-.35h-.06l.31,0h0c1.12-.07,2.25-.13,3.37-.11.58,0,1.16,0,1.73,0a2.71,2.71,0,0,0,2.65-2.32c.32-.18.65-.35,1-.52,1.66-.82,3.38-1.52,5.1-2.2s3.48-1.37,5.23-2,3.72-1.43,5.55-2.2c1.65-.7,3.26-1.47,5-2.08.94-.29,1.89-.54,2.85-.76l.64-.15a4.91,4.91,0,0,0,.5-.1c2.14-.39,4.34-.57,6.45-1.11s4.37-1.38,6.57-2c1.23-.35,2.47-.63,3.7-1s2.43-.7,3.63-1.08,2.63-.9,3.93-1.41,2.49-.93,3.74-1.38,2.26-.82,3.36-1.3c1.32-.57,2.6-1.21,3.92-1.79,1.16-.51,2.32-1,3.46-1.59s2.18-1.13,3.27-1.69c.88-.44,1.78-.81,2.66-1.23l3-1.46a52.17,52.17,0,0,1,5.5-2.21,35.24,35.24,0,0,1,3.46-1c1.05-.19,2.12-.32,3.19-.41,1.69-.07,3.41,0,5.11.1a45.31,45.31,0,0,1,5.33.77,34,34,0,0,1,3.57,1.05c1.49.52,3,1,4.48,1.51l.15.05h0l.19.07.14.05h0c1.28.45,2.56.93,3.8,1.51.29.15.57.32.85.49s.55.42.81.64c.43.39.84.81,1.23,1.23s.64.8.94,1.22c.41.62.78,1.25,1.13,1.9.18.37.34.75.49,1.14.2.64.37,1.3.52,2a37.43,37.43,0,0,1,.58,3.82,46.94,46.94,0,0,1-.07,5.17.37.37,0,0,0,0-.11v.13c0,.08,0,.15,0,.23s0-.11,0-.17a48.26,48.26,0,0,1-.67,5.35,31.85,31.85,0,0,1-.88,3.18c-.36,1-.77,1.93-1.22,2.87a81.76,81.76,0,0,1-4.42,7.35l0-.06-.07.11-.12.18,0-.07c-1.4,2-2.85,4.08-4.44,6a29.81,29.81,0,0,1-2.45,2.45c-.79.68-1.6,1.33-2.45,1.93-.61.39-1.23.75-1.87,1.08-1.48.73-3,1.43-4.55,2a19.24,19.24,0,0,1-2,.56c-.52.09-1,.16-1.57.21-.76,0-1.51,0-2.27,0a28.76,28.76,0,0,1-2.92-.37l-2.26-.47-4.28-.85a34.15,34.15,0,0,1-3.54-1.05q-.52-.19-1-.42l-.2-.12q.06-.62.15-1.23a2.73,2.73,0,0,0,0-1.5,7.67,7.67,0,0,0-5.11-2.69l-1.56.42-.83.11a4.34,4.34,0,0,1-.51,0l-.63-.09-.61-.17-.23-.09-.13-.08-.19-.15-.19-.19-.11-.15-.11-.19-.06-.13a.29.29,0,0,0,0-.09v0a2.44,2.44,0,0,1,0-.27c0-.18,0-.35.07-.53.1-.38.21-.76.33-1.13s.32-.79.5-1.18.34-.57.52-.85l.45-.59c.2-.21.41-.42.62-.61l.4-.31a13.5,13.5,0,0,1,1.34-.75,33.61,33.61,0,0,1,3.2-1.39l.07,0,0,0,.17-.07-.19.07-.24.05h0a2.68,2.68,0,0,0-.73-5.32,12.33,12.33,0,0,0-2,.66c-.27.11-.53.24-.8.36a2.45,2.45,0,0,0-1.34-.48c.1-.25.2-.49.31-.73s.38-.68.59-1,.4-.56.62-.83.39-.42.6-.62l.16-.12.24-.14.27-.12.25-.08.22,0a17.62,17.62,0,0,1,1.78,0,2.12,2.12,0,0,0,.45.11,2.69,2.69,0,0,0,1-5.27,5.92,5.92,0,0,0-1.47-.2l-.83,0c0-.75.05-1.5.1-2.24,0-.47.09-.95.17-1.42v0a2.63,2.63,0,0,0,0-2,2.72,2.72,0,0,0-3.52-1.43c-1.75.77-1.86,2.82-2,4.48a36.76,36.76,0,0,0-.14,4.2.43.43,0,0,1,0,.11,11.37,11.37,0,0,0-2,2.11,14.4,14.4,0,0,0-1.5,2.5,10.28,10.28,0,0,0-.93,3,4.52,4.52,0,0,0,.33,2.52,3.9,3.9,0,0,0,1,1.31A15,15,0,0,0,589,396a13.85,13.85,0,0,0-1.15,3.43,7,7,0,0,0,.6,4.62,7.09,7.09,0,0,0,4.15,3.38,9.65,9.65,0,0,0,2.77.48h.09a11.41,11.41,0,0,0,2.34-.26,6.18,6.18,0,0,0,.19,1.47,5,5,0,0,0,2.36,2.89,14.12,14.12,0,0,0,2.65,1.14c.77.26,1.55.54,2.34.75,1.38.38,2.8.6,4.21.88l2.23.46-.26-.05c1.17.24,2.33.52,3.52.68a29.26,29.26,0,0,0,3.5.24h.13a19.51,19.51,0,0,0,7.16-1.41c1.11-.43,2.18-.93,3.25-1.44a30.45,30.45,0,0,0,3-1.58,24,24,0,0,0,3-2.22,31.91,31.91,0,0,0,2.62-2.45,57,57,0,0,0,4.71-6c1.51-2.15,2.94-4.36,4.27-6.63a38.48,38.48,0,0,0,3.28-6.89,34.22,34.22,0,0,0,1.6-8.2,41,41,0,0,0,0-8.72,19.13,19.13,0,0,0-3.71-10.36,2.52,2.52,0,0,0,1-1.22l.09-.2.49-1c.11-.22.24-.42.37-.63.28-.38.58-.75.89-1.1a26.32,26.32,0,0,1,2-2.06c.75-.64,1.52-1.28,2.33-1.85l.44-.26.59-.25.52-.14.3,0h.33l.72.11c.36.08.7.18,1,.28s.6.24.89.38a15.44,15.44,0,0,1,1.35.8,56.29,56.29,0,0,1,4.72,3.68c1,.89,1.94,1.83,2.86,2.79-1.13.51-2.24,1.05-3.34,1.61l.31-.16c-2.41,1.19-4.9,2.21-7.28,3.48a32.77,32.77,0,0,0-5.89,3.95,2.68,2.68,0,1,0,3.27,4.24c.58-.49,1.17-.95,1.79-1.38a42,42,0,0,1,4.12-2.48c2.41-1.2,4.87-2.26,7.26-3.47l-.31.16q2.06-1,4.18-1.86l0,0a2.53,2.53,0,0,0,.71.1,2.74,2.74,0,0,0,2.11-1.05c.65-.17,1.31-.33,2-.48s1.57-.26,2.37-.33c1.89-.06,3.8,0,5.69.16a59.9,59.9,0,0,1,6.66.92,75.82,75.82,0,0,1,8,2.13l-.33-.12.43.15h0l.22.08c1.8.68,3.53,1.52,5.28,2.31s3.51,1.6,5.24,2.46l-.09-.05.16.08.15.07-.1,0a56,56,0,0,1,5.18,2.93,52.3,52.3,0,0,1,4.41,3.45q2.69,2.39,5.18,5c1.85,1.94,3.72,3.87,5.49,5.88l-.13-.14,4.69,5.33c-.07-.09-.15-.17-.23-.26l.89,1-.23-.25a82.42,82.42,0,0,1,6.27,7.81l.16.24a42.47,42.47,0,0,1,2.43,4.1,37.29,37.29,0,0,1,1.44,3.53,39.65,39.65,0,0,1,1.32,4.92c.13.66.27,1.32.34,2,0,.14,0,.27,0,.41a2.56,2.56,0,0,0,.13.79l-.08.2a6.23,6.23,0,0,0-.32,1.12,4,4,0,0,0,.05,1.5.47.47,0,0,1-.05.1.61.61,0,0,1,0,.12h0l-.35,0c-.88,0-1.77,0-2.65-.05-.66-.06-1.31-.15-2-.27-1.43-.3-2.87-.58-4.3-.87a39.08,39.08,0,0,1-3.84-1.09,22.24,22.24,0,0,1-2.07-.89c-.63-.32-1.26-.66-1.87-1-.27-.2-.52-.4-.78-.62-.69-.62-1.36-1.27-2-2-1-1.22-1.87-3-3.69-3a2.67,2.67,0,0,0-1.76,4.69c.31.4.6.81.92,1.21a23.42,23.42,0,0,0,1.86,2,17.42,17.42,0,0,0,2,1.79,20.26,20.26,0,0,0,2.23,1.34,26.4,26.4,0,0,0,2.53,1.18c.82.31,1.65.58,2.49.83s1.57.47,2.37.65,1.83.35,2.74.52a29.39,29.39,0,0,0,4.35.78c.89.06,1.79.12,2.69.12l.84,0c.21,0,.43,0,.64-.06,0,.4,0,.8,0,1.2a10.49,10.49,0,0,0,.9,4,18.94,18.94,0,0,0,1.4,2.68,2.9,2.9,0,0,0,2.36,1.33,2.66,2.66,0,0,0,.83-.16c0,.12,0,.25,0,.38.07,1.31.11,2.63.14,3.94,0,1.46.06,2.92,0,4.37a36.15,36.15,0,0,1-.59,3.87,38.2,38.2,0,0,1-1.24,4.61A63.59,63.59,0,0,1,750,457.4c-.44.85-.91,1.67-1.43,2.47s-1,1.34-1.54,2c-2.84-2.59-5.41-5.48-8-8.32-2.74-3-5.44-6-8.14-9.07l0,0,.08.08c-.12-.12-.23-.25-.34-.38s-.33-.38-.5-.57l-1.39-1.64L726,438.7c-1.75-2.08-3.58-4.09-5.43-6.09s-3.6-3.94-5.54-5.77c-2.13-2-4.37-3.87-6.56-5.79l.16.15-1.1-1,0,0c-.26-.27-.56-.5-.83-.73l.18.16-.2-.18-.06-.05.05,0c-1-.86-2-1.72-2.88-2.63s-1.91-1.95-2.86-2.93c-1.91-2-3.85-4-5.87-5.93a83.22,83.22,0,0,0-13.27-10.14c-2.37-1.47-4.74-3-7.23-4.23-1.25-.64-2.52-1.23-3.8-1.78a8,8,0,0,0-3-.82,2.68,2.68,0,0,0-.13,5.36l.17.05c1.46.55,2.88,1.24,4.29,1.93,1.65.86,3.25,1.79,4.83,2.77s3.16,1.94,4.71,3a91.92,91.92,0,0,1,8.29,6.44c2.42,2.21,4.72,4.52,7,6.89,1.14,1.21,2.27,2.44,3.48,3.57s2.24,2,3.38,3a1.07,1.07,0,0,0,.16.14,6.8,6.8,0,0,0,.57.5l.69.6,1.41,1.23,3,2.57a135.51,135.51,0,0,1,10.34,10.69c1.2,1.38,2.38,2.79,3.55,4.2l1.79,2.13c.3.37.62.73.93,1.09s.46.57.72.83.4.44.59.66c1.81,2,3.62,4.08,5.45,6.11s3.47,3.81,5.23,5.71a79.26,79.26,0,0,0,6,5.93,67.46,67.46,0,0,0,6,4.72,66.45,66.45,0,0,0,7.08,4.42c1.28.67,2.58,1.31,3.92,1.85l3.67,1.45c2.51,1,5.08,1.89,7.62,2.87,1.22.47,2.43.95,3.66,1.39,1.41.5,2.83.93,4.25,1.38,2.6.8,5.2,1.62,7.77,2.49s5.4,1.84,8.13,2.69c2.57.8,5.1,1.74,7.7,2.45,1.29.35,2.58.65,3.87,1s2.67.77,4,1.13c2.78.75,5.6,1.28,8.42,1.84,2.64.52,5.28,1.1,7.93,1.51s5.19.6,7.79.77,5.44.49,8.16.72,5.36.26,8,.43c4.45.34,8.88.81,13.31,1.3,2.31.26,4.62.46,6.94.62s4.76.25,7.14.39c1.51.11,3,.31,4.5.51s2.76.32,4.14.52c2.71.38,5.42.75,8.15,1,2.57.21,5.15.23,7.74.24,1.8,0,3.61-.06,5.42-.12,2.71-.1,5.43-.19,8.15,0a35,35,0,0,1,4.21.61l.31.06a8.29,8.29,0,0,0-2.2,1.93,2.68,2.68,0,0,0,1.61,4.27,2.82,2.82,0,0,0,.1,2.17l0,0a13,13,0,0,0-3.72-2.63,21.32,21.32,0,0,0-4.18-1.52,14.74,14.74,0,0,0-4-.51,6,6,0,0,0-5,2.69,2.59,2.59,0,0,0-.07,2.54,15.13,15.13,0,0,0-1.75,1.74,12.12,12.12,0,0,0-1.58,2.54,6.39,6.39,0,0,0,.4,6.29,11,11,0,0,0,3.51,3.1,11.27,11.27,0,0,0,6,1.66,13.71,13.71,0,0,0,5.61-1.24l.69-.33a2.09,2.09,0,0,0-.2.22,2.7,2.7,0,0,0-.13,3.08,2.09,2.09,0,0,0,0,.43c0,2.42,2.62,3.19,4.52,3.65a30.7,30.7,0,0,0,3.31.64,7.19,7.19,0,0,0,.94.06,6.51,6.51,0,0,0,2.55-.49,4.42,4.42,0,0,0,2.26-1.77,4.87,4.87,0,0,0,.5-1.43,3.29,3.29,0,0,0-.21-1.64,5.2,5.2,0,0,0-1.85-2.39,12.44,12.44,0,0,0-3.29-1.67,15.09,15.09,0,0,0-3.17-.69,6.81,6.81,0,0,0-2.66.32,3.47,3.47,0,0,0,.29-.25,13.51,13.51,0,0,0,2.32-2.9,7.06,7.06,0,0,0,1.18-5.72,8.7,8.7,0,0,0-1.37-2.72,2.33,2.33,0,0,0,.52.27,13.84,13.84,0,0,0,1.55.47,11.09,11.09,0,0,0,2.62.41h.11a10.33,10.33,0,0,0,2.71-.4,5.44,5.44,0,0,0,2-1,3.84,3.84,0,0,0,1.25-2.08,5.51,5.51,0,0,0-.86-4.19c1.44.58,2.84,1.25,4.23,1.94.44.23.86.47,1.27.73a5.3,5.3,0,0,1,.45.34l0,.05c.22.27.42.57.62.87.09.14.18.29.26.44l.41.83c.21.44.42.88.59,1.34v0l-.43,0a2.69,2.69,0,0,0,0,5.37h.36l.18.05.23.1c.27.14.52.29.78.45s.51.38.76.59.43.41.63.63l.34.45c.09.14.18.28.26.43s.07.17.11.26l.06.21c0,.15,0,.29.05.44s0,.33,0,.5A3.32,3.32,0,0,1,943.41,523.85ZM114.84,594.18,115,594l.26-.27.14-.1.15-.09.11,0,.1,0,.43-.05h.48l.84.11c.41.09.82.2,1.22.33a13.64,13.64,0,0,1,1.32.55c.35.18.7.38,1,.6a4.11,4.11,0,0,1,.35.27l.16.15.1.12c.12.19.23.39.34.59-1-.09-2-.23-3-.41-.77-.17-1.53-.37-2.28-.61-.4-.15-.81-.3-1.2-.49l-.5-.29-.2-.15Zm10,13.5c0-.1.05-.2.08-.3a3.65,3.65,0,0,1,.14-.35c.05-.09.11-.18.16-.28l.17-.21.34-.34c.51-.41,1-.78,1.59-1.15a22.88,22.88,0,0,1,2-1.22c.36-.17.72-.32,1.1-.46l.65-.19.41-.06c.36,0,.7,0,1.05,0,.66.05,1.32.12,2,.23l.23.06a6.9,6.9,0,0,0-1.39,1.69c-.85,1.48-1.39,3.1-2.12,4.65a14.37,14.37,0,0,1-.81,1.42c-.05.07-.11.14-.16.22l-.1.09,0,0-.09,0h-.17c-.31,0-.61,0-.92,0s-.62-.07-.93-.13-.55-.13-.82-.21l-.63-.26-.25-.15-.16-.12c-.23-.22-.45-.45-.67-.68l-.33-.42-.09-.15a1.8,1.8,0,0,1-.08-.21l-.12-.41c0-.18,0-.37-.07-.55V608A2.89,2.89,0,0,1,124.88,607.68Zm793.69-89.39v.05c-.09.23-.19.45-.3.67s-.4.71-.62,1l-.54.72-.54.54c-.23.19-.46.37-.7.54s-.63.38-1,.56-.85.38-1.29.54-.77.22-1.16.31l-.83.11c-.36,0-.71,0-1.06,0l-.77-.11-.73-.21-.76-.33c-.3-.17-.6-.34-.9-.53a9.53,9.53,0,0,1-.81-.61,4.16,4.16,0,0,1-.42-.42l-.13-.15a.93.93,0,0,1,0-.1l0-.07-.05-.18v-.08a.76.76,0,0,0,0-.15.68.68,0,0,0,0-.14l0-.15.2-.48c.1-.18.21-.36.32-.54s.33-.46.51-.68.5-.52.76-.76c1.15-1,2.33-2.06,2.33-3.7a2.12,2.12,0,0,0,0-.44h.11c.42,0,.84.1,1.26.17a24.19,24.19,0,0,1,2.36.64c.57.22,1.13.45,1.68.71.36.2.71.4,1.06.62a10,10,0,0,1,.82.64l.45.45.34.41.2.34c.06.12.11.25.16.38s0,.12,0,.18v.21Z"/><path d="M879.69,513.54a7.63,7.63,0,0,0-1.33-1.56,9.49,9.49,0,0,0-4.74-2.21,14.43,14.43,0,0,0-3.71-.19A7.13,7.13,0,0,0,866.1,511a10.89,10.89,0,0,0-1.51,1.45,1.72,1.72,0,0,0-.25.35,2.7,2.7,0,0,0-2,2.58c0,3.27,2.84,5.47,5.58,6.67a11.52,11.52,0,0,0,4.51,1h.27a8.94,8.94,0,0,0,6.47-2.9,5.23,5.23,0,0,0,1.39-4.35A6,6,0,0,0,879.69,513.54Zm-10.42,1.78.09-.06-.11.08Zm5.89,1.32-.26.25-.24.19-.27.16-.45.19-.57.16-.83.11h-.32l-.55-.07-1.17-.33q-.6-.24-1.17-.51l-.44-.25-.5-.37a3,3,0,0,0,.44-.43l.33-.32.21-.16.15-.09.27-.12.27-.07c.23,0,.45-.06.67-.08h.81c.4,0,.8.09,1.21.16.25.07.5.13.74.21l.64.26a3.79,3.79,0,0,1,.34.2l.31.24.21.22.13.18a1,1,0,0,1,.08.14l0,0A.27.27,0,0,0,875.16,516.64Z"/><path d="M933.77,516.49a13.17,13.17,0,0,0-2.49-.63,11.46,11.46,0,0,0-3.15,0,8.69,8.69,0,0,0-2.91,1.09,2.71,2.71,0,0,0-1,3.67,2,2,0,0,0,.29.4,2.61,2.61,0,0,0-.33,1.27,2.73,2.73,0,0,0,2.15,2.63,25.08,25.08,0,0,0,5,1.45,8.22,8.22,0,0,0,1.3.1,6.37,6.37,0,0,0,4.59-1.82,4.46,4.46,0,0,0,.19-5.82A7.85,7.85,0,0,0,933.77,516.49Z"/><path d="M747.52,397.88a1.37,1.37,0,0,0,.13.2l.06.09Z"/><path d="M644.24,356.28l0,0v0Z"/><path d="M244.4,176.27c-.41-2.12-.74-4.28-1.26-6.38a36,36,0,0,0-1.28-4.42,19.57,19.57,0,0,0-2-3.83,21.49,21.49,0,0,0-6-6.31c-.42-.28-.87-.54-1.32-.8,2.29-4.31,4.49-8.66,6.54-13.08.52-1.14.91-2.36,1.34-3.53a35.67,35.67,0,0,0,1.24-3.92,31.05,31.05,0,0,0,.93-4.78,20.88,20.88,0,0,0-.05-5.12,7.68,7.68,0,0,0-1.29-3.39,4.8,4.8,0,0,0-3.11-2,5.34,5.34,0,0,0-3.31.74c-1.79,1-3.51,2.25-5.21,3.44-1.41,1-2.82,2-4.2,3-2.95,2.16-5.87,4.35-8.75,6.6s-5.66,4.52-8.45,6.82c-1.21,1-2.42,2-3.63,3l-2.2,1.84a21.56,21.56,0,0,0-2.54,2.23,3.3,3.3,0,0,0,0,4,3.33,3.33,0,0,0,3.47,1.16l.14,0a3.42,3.42,0,0,0,1.69-1.15c2.32-2,4.71-3.94,7.08-5.88s5-4.13,7.54-6.12c5.11-4,10.29-7.85,15.65-11.5l.76-.51c0,.35,0,.69,0,1a28.84,28.84,0,0,1-.41,3.08c-.37,1.65-.84,3.26-1.37,4.87-.41,1.1-.76,2.26-1.26,3.33s-1.1,2.4-1.66,3.6c-1.64,3.24-3.29,6.49-5,9.7l-.54-.16c-2.35-.55-5.11-1.08-7.31.22a3.47,3.47,0,0,0-1.67,2.52,5.74,5.74,0,0,0,0,1.31,3.3,3.3,0,0,0,3.7,2.81,3.17,3.17,0,0,0,1.76-.84c.45,0,.89.12,1.33.21.77.18,1.53.4,2.28.65s1.54.61,2.3,1,1.34.75,2,1.17c.37.28.73.55,1.09.84s.73.72,1.07,1.1c.64.76,1.24,1.55,1.81,2.37.32.49.62,1,.89,1.5s.39.88.57,1.33a42.75,42.75,0,0,1,1.22,4.57c.79,4.06,1.63,8.12,2.2,12.22a3.33,3.33,0,0,0,3.26,2.83,3.25,3.25,0,0,0,.44,0,3.3,3.3,0,0,0,2.8-3.69C245.36,181.32,244.89,178.8,244.4,176.27Z"/><path d="M303.1,256.55h0l-.05,0-.5-.52c-2.49-2.9-4.92-5.86-7.24-8.89-2.44-3.2-4.71-6.52-7-9.85-3.5-5.37-6.93-10.78-10.44-16.14s-7-10.85-10.93-16a1.19,1.19,0,0,0,.08.16,3.26,3.26,0,0,0-3.55-1.33,3.3,3.3,0,0,0-2.29,4,7.88,7.88,0,0,0,1.37,2.2c.5.67,1,1.36,1.47,2,1.05,1.5,2.09,3,3.13,4.54q4.07,6.09,8,12.23c3.88,6,7.68,12,11.79,17.86,1.94,2.75,4,5.4,6.1,8q1.58,2,3.19,3.87c1.13,1.36,2.26,3,4,3.59a3,3,0,0,0,.88.14,3.39,3.39,0,0,0,3.16-2.43A3.25,3.25,0,0,0,303.1,256.55Z"/><path d="M320.39,284.24c-.19-.29-.38-.58-.55-.88a3.13,3.13,0,0,0-1.31-1.44,3.29,3.29,0,0,0-4.48,1.17,3.6,3.6,0,0,0,.23,3.75c.2.35.44.69.67,1a25.49,25.49,0,0,0,1.82,2.42,3.48,3.48,0,0,0,2.65,1.26,3.14,3.14,0,0,0,1.95-.67,3.3,3.3,0,0,0,.6-4.6C321.41,285.62,320.89,284.94,320.39,284.24Z"/><path d="M329.65,280.28c-.2-.3-.38-.61-.56-.93l-.21-.54c.05.14.1.27.14.41l0-.09a3.43,3.43,0,0,0-1.5-2,3.28,3.28,0,0,0-4.82,3.7,14.07,14.07,0,0,0,2,3.7,3.18,3.18,0,0,0,2.59,1.27,3.27,3.27,0,0,0,2.6-5.27C329.79,280.47,329.72,280.38,329.65,280.28Z"/><path d="M347,301c-.34-4.53-.67-9.08-1.16-13.6-.27-2.36-.52-4.72-.9-7.06-.33-2.08-.79-4.16-1-6.26v-.22a3.28,3.28,0,1,0-6.56,0,16.81,16.81,0,0,0,.35,3.09c.22,1.24.42,2.48.63,3.72.38,2.36.66,4.72.92,7.09.52,4.7.87,9.42,1.23,14.13a3.28,3.28,0,0,0,3.28,2.83l.41,0a3.29,3.29,0,0,0,2.15-1.25A3.4,3.4,0,0,0,347,301Z"/></g></svg>