<svg xmlns="http://www.w3.org/2000/svg" viewBox="0 0 1000 1000"><defs><style>.cls-1{opacity:0.2;}.cls-2{fill:#fffdf7;}.cls-3{fill:#93846a;}.cls-4{fill:#fffcf2;}.cls-5{fill:#d2bfb0;}.cls-6{fill:#d6899c;}.cls-7{opacity:0.09;}</style></defs><g id="レイヤー_1" data-name="レイヤー 1"><path class="cls-1" d="M899.2,778.77c-6.66-.33-13-2.61-19.4-4.37-5.38-1.57-10.76-3.23-16-5.17a69.07,69.07,0,0,0-7.18-2.58,8.49,8.49,0,0,0-3.05-.28,10.77,10.77,0,0,0-2.73,1c-3.69,1.58-7.6,3.19-11.65,3.45a127.74,127.74,0,0,1-22.72-3.64c-13.26-3.17-17.67-10.93-24-21.94-5.76-11-14-16.32-26.58-14.69-6.29.78-10.64,3.94-15.52,7.63-4.72,3.33-9.65,6.82-15.28,8.39-5.05,1.05-13.24.72-18-1.43a37.47,37.47,0,0,1-6.14-4.09,66.81,66.81,0,0,1-8.27-7.32,63.67,63.67,0,0,1-9.23-12.63c-2.47-3.92-4.93-7.89-7.71-11.61-4.4-5.79-9.81-10.74-15.21-15.58-4.68-4.36-9.45-8.77-15.11-11.83a170.61,170.61,0,0,0-20.56-9,165.89,165.89,0,0,0-17.17-4.48,135.92,135.92,0,0,0-24.83-3.28A137.33,137.33,0,0,0,571,666.89c-17.22,2.22-33.52,8.84-50.65,11.49a47.61,47.61,0,0,1-11.38,0A63.36,63.36,0,0,1,496.63,676c-8.48-2.63-16.95-6.6-22.64-13.64-2.83-3.39-4.91-7.57-8.73-10-8.23-5.25-20.17-3.47-28.28,1.19a33.17,33.17,0,0,0-9.19,7.77,9.68,9.68,0,0,0-2,7.9c.55,5.67,1.86,11.25,2.62,16.88.81,7.64,1.21,15.6-.87,23.08-1.86,5.79-5.7,10.71-9.54,15.33a135.94,135.94,0,0,1-11.86,12.26,39,39,0,0,1-8.39,5.79,52.24,52.24,0,0,1-10.62,3.57A61.54,61.54,0,0,1,374.63,748c-3.32.07-6.78-.22-10.09-.48a189.26,189.26,0,0,1-26.34-4.19c-5.14-1-10.42-1.66-15.54-2.74-4.46-.9-9-2-13.48-2.86a135.55,135.55,0,0,1-15.91-3.61,146.82,146.82,0,0,1-29.78-14.45c-6.2-4-12.34-8.26-18.37-12.55-3.5-2.55-6.94-5.36-10.59-7.69A82.93,82.93,0,0,0,223,693.46,99.76,99.76,0,0,0,210.34,689a90.07,90.07,0,0,1-11.17-3.43c-8.19-3.3-11.58-11.2-10.23-20.09.71-5.53,1.85-11.13,3.09-16.56l19.12-12.34c13.6-29.71,27.08-47.26,53-67.05,21.65-17.8,44.53-34.31,69.17-47.76A575.79,575.79,0,0,1,399.76,492c12-4.4,24.54-8,36.73-11.85,34.14-10.55,70.07-19.11,106-15,18.36,1.61,36.27,7.28,53.44,13.75,19.42,7,38.77,15.22,56.31,26.19,17.34,10.84,32.63,25,48.46,37.85,10.77,8.88,21.07,18.88,31.06,28.61a476.06,476.06,0,0,1,34.27,35,247.74,247.74,0,0,0,18,18.51c5.76,5.29,12,10.31,17.67,15.67,7.25,6.91,13.95,14.47,20.87,21.71,9.38,10.47,19.57,20.23,28.89,30.75,5.36,5.92,10.4,12.24,15.94,18,7.25,7.18,14.91,14,22.51,20.84,8.5,7.46,18.06,14.63,23.08,25a21.78,21.78,0,0,1,1.33,13.44C912.64,777.17,905.17,778.75,899.2,778.77Z"/></g><g id="レイヤー_7" data-name="レイヤー 7"><path class="cls-2" d="M841.63,779.36a25.42,25.42,0,0,1-3.25-.26,12.54,12.54,0,0,1-3.48-.77,28.52,28.52,0,0,1-5.16-3,37.8,37.8,0,0,1-3.84-4c-2.72-3.25-5.7-6.4-7.53-10.27A38.22,38.22,0,0,1,815,749.78,69.7,69.7,0,0,1,813.94,736c0-4.7-.44-9.4-.52-14.1a93,93,0,0,0-3.85-24.57,45.2,45.2,0,0,0-1.71-5c-.61-1.41-1.37-2.76-2.06-4.13-1.21-2.57-2.25-5.22-3.41-7.81-1.68-4-3.49-8-5.33-12a70.06,70.06,0,0,0-6.84-12.45c-2.17-3.06-5.19-5.37-8.12-7.67-2.61-2.11-5.16-4.31-7.78-6.4a124.26,124.26,0,0,0-11-7.76c-3.64-2.16-7.59-3.81-11.09-6.21-2.51-1.84-3.77-4.86-6-7-1.61-1.56-3.24-3.09-5-4.49a37.39,37.39,0,0,1-4.48-3.75,37.36,37.36,0,0,0-4.8-4.08c-1.52-1.28-3-2.62-4.59-3.79-1.19-.92-2.28-2-3.47-2.88-2.76-2.08-5.88-3.59-8.69-5.61-2-1.39-4.44-2.16-6.62-3.3a57.08,57.08,0,0,0-6.79,3.79,18.83,18.83,0,0,0,1.31,3c.79,1.61,1.65,3.19,2.55,4.74,2.3,4.06,5,7.9,7.39,11.88a125.77,125.77,0,0,0,7.87,12.26c4.06,4.94,8.29,9.76,12.74,14.35a29.68,29.68,0,0,0,4.52,3.7,58.19,58.19,0,0,0,7.94,4.25,62,62,0,0,1,6.68,3.19,28.78,28.78,0,0,1,11.89,6.88c4.94,4.85,8.15,9.73,9.06,16.73.32,2.14.1,4.34.43,6.46a37.36,37.36,0,0,1-.67,11.6c-.54,2.12-1,4.28-1.54,6.4-.56,1.94-1.18,3.87-1.62,5.84a35.44,35.44,0,0,0-1,7.53c-.29,3.13-.19,6.29-.5,9.42-.31,3.44-1,6.83-1.45,10.27a49.05,49.05,0,0,1-.92,7.25,13.44,13.44,0,0,1-1.68,4.37,11.07,11.07,0,0,1-3.29,3,37.21,37.21,0,0,0-3.89,2.19c-2.27,1.42-3.92,3.56-5.6,5.6a25.05,25.05,0,0,1-4.93,4.26,17.52,17.52,0,0,1-4.86,2.11,28.2,28.2,0,0,1-4.27,1,11.5,11.5,0,0,1-3.15.19c-2.78-.27-5.46-1.55-8.3-1.15a60,60,0,0,1-7.9,1,15.08,15.08,0,0,1-7.27-1.82,18.62,18.62,0,0,1-7-9.36,16.29,16.29,0,0,1-1.09-8.7c.32-2.07.63-4.17,1.08-6.22a9.09,9.09,0,0,1,1.86-4.09,33.65,33.65,0,0,1,4.2-4.49,18.33,18.33,0,0,0,3.56-5c.91-2.06,1.84-4.14,2.65-6.25a56,56,0,0,0,2.3-8c1.17-5.22,2.28-10.47,3-15.77.15-1.79.52-3.71-.34-5.38-2-4.51-4.87-6.4-8.83-9q-2.83-2.05-5.69-4.05c-1.73-1.29-3.44-2.63-5.28-3.77a48.92,48.92,0,0,1-5.67-4c-1.32-1-2.41-2.34-3.82-3.14a149.4,149.4,0,0,1-13.47-8.49c-4.37-3-8.64-6.22-13.27-8.83-2.19-1.15-4.39-2.31-6.59-3.45a19.94,19.94,0,0,1-4.79-2.88,43.8,43.8,0,0,0-3.8-2.66,12.43,12.43,0,0,0-4-1.79c-2.78-.39-5.61-.27-8.41-.5a12.8,12.8,0,0,1-4.7-1c-2.22-1-4.39-2.18-6.62-3.18-3-1.3-6.07-2.44-9.13-3.59s-6.16-2.84-9.34-4A43.76,43.76,0,0,0,598,623.3c-2.21-.32-4.47-.48-6.64-1-3.43-.86-6.29-3-9.15-5-3.16-.18-6.36-.29-9.5-.7-1.07-.17-2.1-.55-3.16-.76-2.11-.39-4.25-.74-6.37-1.08-1.41-.25-2.85-.42-4.26-.68-.63-.06-1.29-.38-1.92-.38a15.17,15.17,0,0,1-4.46.26,12,12,0,0,1-3.4-.75c-.87-.35-1.68-.87-2.56-1.22a18.46,18.46,0,0,0-3.93-1.08h0c-2.87-.63-5.82-.8-8.72-1.22a89.55,89.55,0,0,0-9.4-.63c-4.13-.27-8.21-1.4-12.37-1.19a41.79,41.79,0,0,0-8.78,1.69,91.12,91.12,0,0,1-12.06,2c-7,.67-13.87,2.6-20.86,3.54a68.61,68.61,0,0,1-11.33,1.2,103.94,103.94,0,0,0-12-.1c-3.68.41-7.29,1.36-11,1.84-4.16.68-8.44.73-12.56,1.66-3.25.81-6.3,2.31-9.57,3-3.61.94-7.4.52-11.06,1.13a14.79,14.79,0,0,0-5.54,2.15,4.18,4.18,0,0,0-1.88,2.77,41.59,41.59,0,0,0-.43,5.12,35.23,35.23,0,0,1-2.57,11.53c-1,3.26-2.88,8-1.84,11.38a5.33,5.33,0,0,0,1.36,1.8c.79.8,1.62,1.58,2.45,2.34a26.13,26.13,0,0,1,4.49,5.44,38.41,38.41,0,0,0,4.63,6.41c1.79,1.82,3.79,3.51,5,5.81a6.16,6.16,0,0,1,.84,3.36c0,1,.09,2.3-.65,3.13-3.87,3.48-9.48,2.62-14.28,3-2.93.15-5.85.63-8.78.66a133.08,133.08,0,0,1-14.54-.4c-1.85-.18-3.62-.83-5.46-1-5.15-.42-9-2.73-14-1.8-.79.14-2.89,3.3-3.67,3.45-1.62.27-3.24.61-4.83,1a28.71,28.71,0,0,0-5.66,1.81c-2.38,1.09-4.61,2.48-7,3.58-2.1,1.11-4.17,2.42-6.36,3.37A38,38,0,0,1,312.63,702c-3.85.48-7.75.5-11.62.73a102.68,102.68,0,0,1-16.82.06c-2.75-.31-5.51-.7-8.23-1.23-2.31-.5-4.6-1.18-6.91-1.66-3.69-.75-7.48-.91-11.11-1.9a51.11,51.11,0,0,1-9-3.21c-2.25-1.09-4.35-2.45-6.49-3.73-1.35-.8-2.67-1.67-4-2.48-2-1.13-3.91-2.27-5.79-3.53a27,27,0,0,1-4.14-3.24,11.29,11.29,0,0,0-3.5-.9c-7.17-7.35-23.47-2-25.26,8-4.7,1-9.54.27-14.27,1a49.08,49.08,0,0,0-6.75,1.82,56.39,56.39,0,0,1-7.37,1.75,31.27,31.27,0,0,1-9.56-.11c-2.93-.54-5.78-1.41-8.71-2a24.25,24.25,0,0,1-3.54-1,8.3,8.3,0,0,1-2.32-1.17,7.27,7.27,0,0,1-2.64-3.6,8.19,8.19,0,0,1,.3-3.19c.3-1.19.59-2.4.91-3.59A88.34,88.34,0,0,1,150,667.39c1.08-2.43,2.11-4.91,3.37-7.26,3.4-6.19,6.66-12.48,9.8-18.81a99.76,99.76,0,0,0,4.53-10.85,106.28,106.28,0,0,0,3.2-14.11,80.51,80.51,0,0,1,4-13.51c.82-2.37,1.43-4.82,2.21-7.21.88-2.63,2-5.21,2.87-7.83,2-5.76,3.72-11.6,5.94-17.27,1.34-3.29,2.94-6.47,4.4-9.71,2.57-6.14,4.22-12.61,6.51-18.85a54.13,54.13,0,0,0,2.85-9.64c.62-2.8,1.2-5.61,1.61-8.44.56-3.28,1.35-6.52,2-9.77.3-1.49.4-3,.82-4.47.77-2.72,1.93-5.3,2.89-8a79.8,79.8,0,0,0,3-8.73,22,22,0,0,1,2.42-6.62,6.28,6.28,0,0,1,2-2.29,11,11,0,0,1,3.75-1.31,31.07,31.07,0,0,0,5.12-2,41.92,41.92,0,0,0,4.68-2.72l4.17-2.54c1.14-.68,2.19-1.48,3.32-2.17a53.1,53.1,0,0,1,5.22-2.77c1.45-.71,2.85-1.55,4.3-2.26s2.77-1.23,4.17-1.8a87.38,87.38,0,0,0,15-6.78c3.27-2,6.45-4.22,9.82-6,4.24-2.26,8.85-4,13.07-6.28,3.65-1.93,7.08-4.4,10.55-6.63a67.18,67.18,0,0,1,9-4.61c.23-.14-11.42,3.7-7.27,2,6.54-2.06,12.55-6.15,19.54-6.49,3.37-3.75,6.89-7.45,10-11.4,3.86-4.95,7.52-10.11,11.08-15.28,2.79-4.18,5.16-8.67,8.3-12.61a32.32,32.32,0,0,1,5.58-5.06c1.1-.79,2.13-1.67,3.22-2.47.69-.5,1.45-.94,2.12-1.48a61.44,61.44,0,0,1,5.69-4.21c3.58-2.64,7.21-5.22,10.65-8,2.4-1.94,5.1-3.49,7.59-5.32a107.19,107.19,0,0,1,12.13-7.89c2.68-1.41,5.7-1.86,8.55-2.82,3.75-1.24,7.41-2.74,11.16-4s7.34-2.72,11-4.21c3-1.22,5.9-2.68,8.91-3.87a29.54,29.54,0,0,1,7.37-1.12,57.61,57.61,0,0,1,6.7.07c1.83.08,3.68.12,5.5.32,6,.5,11.68,2.68,17.53,4,6.92,1.56,14.06,1.85,21,3.25,3.84.73,7.71,1.32,11.51,2.21,3.34.8,6.63,1.82,10,2.51,7.2,1.38,14.51,2.17,21.76,3.22a108.16,108.16,0,0,1,18.53,3.86c3.91,1.09,7.6,2.79,11.42,4.11,4.36,1.51,8.88,2.54,13.26,4,4.17,1.39,8.24,3.09,12.47,4.3a46.75,46.75,0,0,1,14.12.2c3.69.74,7.3,1.86,10.92,2.87,4.59,1.41,9.24,2.62,13.81,4.07,2.18.69,4.31,1.56,6.49,2.27,3.22,1,6.44,1.94,9.73,2.62,7.08,1.59,14.47,1.21,21.49,3.08,4.11,1,7.86,3.06,11.72,4.74,5.7,2.52,11.43,5,16.9,8,2.88,1.56,5.77,3.14,8.5,5s5.67,4,8.63,5.87c4.45,2.91,9.33,5.13,13.55,8.4s7.1,7.58,10.34,11.62c3.78,4.84,7.81,9.52,11.32,14.57a113.85,113.85,0,0,1,8,13.31c2.22,4.71,4.19,9.54,6.28,14.3.33.84.68,1.72,1,2.55a48.38,48.38,0,0,1,3.33,5,68.85,68.85,0,0,1,5.87,14.76A95.78,95.78,0,0,1,777,519.78c.2,5.36-.24,10.77.55,16.09.48,3.88,1.37,7.7,2.19,11.52a54.31,54.31,0,0,0,2.59,9.73,78.76,78.76,0,0,0,4.63,8.94c2.35,4.3,4.9,8.48,7.37,12.71a80,80,0,0,0,4.85,7.5c1.37,1.86,2.94,3.58,4.41,5.37,2.59,3.1,5,6.36,7.77,9.32,2.67,2.53,5.62,4.75,8.5,7,2.18,1.71,4.54,3.18,6.76,4.83a28.26,28.26,0,0,1,7.76,8.25,34.31,34.31,0,0,1,3.46,7.75A37.27,37.27,0,0,1,840,641.58c2,3.51,3.9,7.1,5.83,10.65a60.12,60.12,0,0,1,5.18,9.65c1,2.55,1.87,5.2,2.93,7.74.77,1.68,1.72,3.27,2.62,4.88,2.3,3.88,4.13,8.09,7,11.6a85.11,85.11,0,0,0,7.26,7.33c1.74,1.64,3.4,3.38,5.1,5.05a55.12,55.12,0,0,0,5.36,4.65c2.54,2.31,5.32,4.36,7.94,6.58,1.94,1.65,3.86,3.35,5.74,5.07,1.23,1.06,2.5,2.1,3.68,3.23,2.81,2.53,5.47,5.25,8.22,7.86a210.65,210.65,0,0,1,14.07,16.2,111.63,111.63,0,0,0,7.94,8.34l0,16.31-.08.09a34,34,0,0,1-4.9,1.55,27.07,27.07,0,0,1-6.78-.4c-2.19-.36-4.4-.67-6.57-1.17-2.62-.61-5.18-1.5-7.78-2.22-1.76-.5-3.56-.92-5.27-1.59a63.08,63.08,0,0,1-6.12-3c-2.22-1.17-4.64-1.93-6.84-3.16a43.35,43.35,0,0,1-5.49-3.36c-1.19-.82-2.21-2.09-3.67-2.43a3,3,0,0,0-2.26.53,8.37,8.37,0,0,0-1.21,2.79,20.94,20.94,0,0,1-1.66,4.5,11.48,11.48,0,0,1-2.87,2.59c-1.27.85-1,2.49-.92,3.81.2,2.64.8,5.27.44,7.92-.19,1.62-.47,3.46-1.88,4.48l-.08.06a7.66,7.66,0,0,1-2.13,1,11.16,11.16,0,0,1-2.64.26,24.77,24.77,0,0,1-5.56-.58c-2.13-.46-4.19-1.39-6.4-1.36a4.12,4.12,0,0,0-3.3,1c-.21.17-.44.37-.66.54A4.08,4.08,0,0,1,841.63,779.36Z"/></g><g id="レイヤー_5" data-name="レイヤー 5"><path class="cls-3" d="M152.83,672.87a3.19,3.19,0,0,1-2.6-1.19,2.28,2.28,0,0,1,.09-2.5c.35-.75.75-1.5,1.15-2.23,1.6-3.06,3.48-6,5.12-9a25.64,25.64,0,0,0,2.93-9.41c.5-4.38,12.55-23.41,13.18-26.63s3.17-3.31,5.84-2.87c5.6.64,10.71,3.15,15.85,5.28.68,1.65,5.18,13.71,5.84,15a18.92,18.92,0,0,1,1.15,4c.67,3.89-1.74,7.71-5.14,9.47-2.78,1.47-6,1.67-8.88,2.92-3.19,1.51-5.8,4.26-9.4,4.87-3.91.75-8.18-.44-11.9,1.3-2.32,1.16-3.69,3.5-5.29,5.44C158.71,669.76,156.22,672.62,152.83,672.87Z"/><path class="cls-4" d="M315.25,675.32a45,45,0,0,1-7.76-2.33c-2.58-.81-5.22-1.44-7.85-2.07-4.24-.88-8.63-.24-12.93-.32-9.7-.14-20.46-1.16-27.8-8.19-6.21-5.93-1.3-9.89-1.07-16.61-.06-2.25-.5-4.49-.75-6.73-.86-5.75.46-11.57,2.55-16.92a38.61,38.61,0,0,1,6.5-9.93,29,29,0,0,1,9-7.47,64.45,64.45,0,0,1,7.21-2.94c.66-.85,8,0,8.94-.13a38,38,0,0,1,9.09,8.1A35.42,35.42,0,0,1,304,616.5c1.28,2.86,3,5.16,6.34,5.39a29.49,29.49,0,0,0,8.54-.38c2.32-.56,4.6-1.27,6.95-1.7a39.16,39.16,0,0,1,4.91-.88,2.85,2.85,0,0,1,1.7.38,10.12,10.12,0,0,1,2.13,2.43,38.08,38.08,0,0,1,4.5,9.33c2.51,6.87,3.77,15.22-1.77,21-2.1,2.12-4.79,3.57-7.32,5.1a13,13,0,0,0-5.45,5.54c-.94,1.95-1.55,4-2.49,6a18.21,18.21,0,0,1-2.35,3.55C318.46,673.53,317.1,675.17,315.25,675.32Z"/><path class="cls-5" d="M398,682.39a75.85,75.85,0,0,1-9.54-2.1c-3.85-.85-8-1.5-11.09-4.1-2.51-1.91-5.37-5-4.18-8.37a12.65,12.65,0,0,1,5.36-5.57,30.33,30.33,0,0,0,5.16-3,24.54,24.54,0,0,0,6-7,20.76,20.76,0,0,0,2.76-6.62,51.3,51.3,0,0,0,1.32-8.09,109.18,109.18,0,0,0,.81-12.38,18,18,0,0,0-.46-5.72c-.36-1.13-.9-2.56-2.23-2.76-3.23-.16-6.6,4.11-8,6.77a209.9,209.9,0,0,1-15.53,24.24,74.33,74.33,0,0,1-11.95,13.59,65.08,65.08,0,0,1-8.68,6c-4,2.17-8.25,3.78-12.4,5.58-2.46,1.06-4.89,2.22-7.43,3.11a11.56,11.56,0,0,1-5.9,1,15.52,15.52,0,0,1-4.7-1.12A41.56,41.56,0,0,1,312,672.8c-2.31-1.46-4.58-3-6.93-4.39A24.9,24.9,0,0,0,300.1,666a12.67,12.67,0,0,0-3.7-.74c-2.67,0-5.2,1.14-7.6,2.2a41.41,41.41,0,0,1-4.78,2,40.17,40.17,0,0,1-9.09.89,30.45,30.45,0,0,1-7.3-.77,19.24,19.24,0,0,1-8-2.82,18.17,18.17,0,0,1-5.78-6.11c-1.52-2.38-2.79-5-4.82-7h0a10.58,10.58,0,0,1-2.88-4.6c-.94-3.18-1-6.56-1.92-9.75a32.87,32.87,0,0,0-1.51-5c-1.12-2.42-2.61-4.68-3.88-7-2.26-4-4.09-8.18-6.24-12.2-3-5.5-7-10.64-12.48-13.84-6.48-4.61-3.74,11.66-3.35,14.48.43,2.63,1,5.27,1.38,7.91a9.43,9.43,0,0,1,.21,2.36c-.64,2.09-3.55.34-4.7-.4-6.64-4.46-8.36-9.58-8.82-17.29-.81-8.42,1.81-16.65,1.93-25,.2-4.3-.26-8.78-2.49-12.55a17.82,17.82,0,0,0-3.23-4.2l-.38-.33-9-3.75h0l-.1,0c-1.6,2.49-3.33,4.93-5,7.38-1,1.56-2,3.19-3,4.71a90.52,90.52,0,0,0-5.42,7.76c-2.2,3.82-4.36,7.68-6.32,11.63a35.73,35.73,0,0,0-3.08,6.86,27.9,27.9,0,0,0-.68,5.84,43.42,43.42,0,0,0,0,6.65c.25,3.77,1.11,7.45,1.62,11.18.56,5.24-.8,10.49-2.42,15.43-.5,1.44-1.09,2.87-1.67,4.27a10.32,10.32,0,0,0-1.09,5.11c.28,5.38,6.45,3.46,9.88,2.68,3-.77,6.08-1.44,9.12-2.14,2.5-.57,5-1.62,7.62-1.31a13.94,13.94,0,0,1,6.3,2.78,13.54,13.54,0,0,1,3.29,4.89c2.05,4.8,3.83,12.56,1.76,17.52a14.24,14.24,0,0,1-3.31,4.36,25.47,25.47,0,0,1-7.69,4.91c-5.79,2.62-12.07,3.93-18.26,5.26-1.22.22-2.48.38-3.72.51a9.14,9.14,0,0,0-3.26.76,5.34,5.34,0,0,0-1.83,1.74,2.4,2.4,0,0,0,.36,3c3.3,3.2,13.89,0,18.08-1,3.9-.7,7.76-1.58,11.59-2.54,3.16-.72,6.37-1.32,9.45-2.33,4.2-1.25,7.81-3.8,11.61-5.89,3.17-1.77,5.71-2.8,9.2-1.07,2.33,1.15,4.56,2.51,6.91,3.62,3.26,1.43,6.51,2.88,9.67,4.53,2,.94,4,1.78,5.92,2.8a43.5,43.5,0,0,0,6.36,3.11c2.31.82,4.75,1.2,7.11,1.81s4.38,1.51,6.57,2.27a84.9,84.9,0,0,0,10.06,2.61,76.75,76.75,0,0,0,14.06,2c3.5,0,6.95-.81,10.4-1.27,3.61-.53,7.25-.92,10.87-1.38a48.86,48.86,0,0,0,5.73-1.16,76.28,76.28,0,0,0,16-5.59c1.68-.77,3.4-1.51,5-2.44,2.05-1.12,3.93-2.58,6.13-3.39,1.85-.49,5-3.13,6.86-3.34,3.16-.16,5.15,2.17,8.31,2.26,2.09.12,4.16.57,6.26.63,4.53.24,9.08-.2,13.61-.07a61.48,61.48,0,0,0,6.22.12,43.43,43.43,0,0,0,6-1.29,71,71,0,0,0,6.93-2.27l2.29-.8c.47-.2,1.05-.3,1.37-.73C403.5,682.66,399.16,682.67,398,682.39Z"/><path class="cls-5" d="M555.81,601.19a37.68,37.68,0,0,1-7.3-12.78,21.67,21.67,0,0,1,.58-13.73c.52-1.56,1.09-3.14,1.62-4.69a10.24,10.24,0,0,0,.66-2.6c0-3-3.82-3.39-6.12-3.24-3.4.29-6.73,1.3-10.14,1.54a12.34,12.34,0,0,1-5.44-.44c-4.68-1.69-6.83-7.34-6-12a13.67,13.67,0,0,1,.9-2.87c-.44.1,9.15-6.95,6.52-5.95a52.4,52.4,0,0,0-11.55,3.15c-6.07,2.74-11.78,6.27-17.68,9.34a98.27,98.27,0,0,0-12.89,7.91,52.68,52.68,0,0,0-9.73,8.2c-3.27,3.49-5.13,8-7.72,11.91-1.63,2.48-3.18,5-4.81,7.52a57.28,57.28,0,0,0-4.32,7.33,16.22,16.22,0,0,1-1.15,2.13,14.55,14.55,0,0,1-3.1,2.64c-1.77,1.23-3.41,2.66-5.25,3.78-3.51,2.14-7.64,2.71-11.63,3.26s-8,1.29-11.94,1.78c-3.48.48-7,1-10.49,1.18-2.67.2-5.35.54-8,.64-1.45.08-2.91.1-4.35.13a5.94,5.94,0,0,0-3.63.88,20,20,0,0,0-3.66,3.16,18.54,18.54,0,0,0-1.86,3.2,6.64,6.64,0,0,0-.78,2.73c.32,1.55,2.24,1.88,3.6,1.93a22.48,22.48,0,0,0,6.09-1,55.72,55.72,0,0,1,5.79-1.72c3.59-.73,7.26-.4,10.9-.36a49.37,49.37,0,0,0,8.24-.42,35.94,35.94,0,0,0,6.5-1.2c4.45-1.32,8.89-2.67,13.41-3.7a74.2,74.2,0,0,1,10.71-1.19c2.88-.2,5.26,1.64,7.85,2.56,2.34.88,4.78,1.42,7.17,2.11,3.5,1,6.19.88,9.87.61,2.67-.11,6.17.22,8.78-.29,1.78-.3,9.46-3,16.93-4.32C520.05,617,527.55,617,529,616.7c2.41-.5,4.81-1.15,7.22-1.66a59.08,59.08,0,0,1,13.53-1.22c2.8,0,5.61-.06,8.41,0,1.19,0,2.39.09,3.57.11a9.49,9.49,0,0,0,2.13,0c2-.66.73-3.38-.11-4.62C561.61,606.15,558.22,604.11,555.81,601.19Z"/><path class="cls-5" d="M758.53,458.85c-1.13-1.45-2.2-3-3.43-4.32-1.61-1.8-3.42-3.42-5.07-5.18a35.53,35.53,0,0,1-5.58-8.05,45.44,45.44,0,0,1-2.87-6.17c-.81-2.23-1.8-4.42-2.72-6.61a14,14,0,0,0-1.8-3.26,14.91,14.91,0,0,0-2.78-2.54,34.79,34.79,0,0,0-7.06-3.73c-3-1.4-5.9-2.9-9-4.06-4-1.68-7.58-4.13-11.25-6.37-3-1.84-5.93-3.9-9-5.59-2.19-1.23-4.63-2-6.82-3.21-1.29-.78-2.65-1.48-4-2.21-1.15-.65-2.3-1.38-3.5-1.95-3.44-1.47-6.91-2.87-10.42-4.14-1.77-.62-3.54-1.23-5.34-1.73-1.25-.34-2.55-.55-3.78-1-1.39-.45-2.75-1.06-4.16-1.44-2.26-.57-4.52-1.16-6.74-1.86-2.44-.64-4.72-1.8-7.17-2.43-3.08-.91-6.28-1.37-9.37-2.25a51.1,51.1,0,0,0-12.54-2.5c-3.35-.33-6.76-.16-10.07-.92-2.12-.43-4.14-1.27-6.2-1.89-3.07-.86-6.18-1.6-9.3-2.24-3.77-.71-7.58-1.27-11.31-2.17a22.06,22.06,0,0,1-5.72-1.71,48.06,48.06,0,0,0-5.72-2.46c-2.07-.6-4.21-.89-6.32-1.31a112,112,0,0,1-13.66-3.12c-2.41-.77-4.86-1.49-7.24-2.34s-4.47-1.94-6.79-2.65A112.62,112.62,0,0,0,529.86,355c-1.9-.4-3.84-.62-5.76-1-2.74-.61-5.5-1.14-8.26-1.67-3.85-.69-7.77-.9-11.65-1.4-2.4-.33-4.72-1.17-7.11-1.56-3-.45-6.06-.75-9.05-1.31a61.89,61.89,0,0,1-7.61-1.57c-3.1-.71-6.26-1.23-9.4-1.76-1.87-.31-3.74-.73-5.64-.9a157.91,157.91,0,0,0-23.22-.59c-3.66.17-7.34.13-11,.3a66,66,0,0,0-7.8,1.11,55.75,55.75,0,0,0-12.44,4.13c-4.24,1.68-8.49,3.39-12.58,5.42-2.55,1.29-5.1,2.63-7.73,3.76a85.34,85.34,0,0,0-9.89,4.73c-3.88,2.26-7.69,4.68-11.54,7-2.18,1.37-4.25,2.95-6.44,4.3a114.42,114.42,0,0,0-13.81,9.22c-4,3.42-7.92,6.91-11.82,10.43a85,85,0,0,1-12,10.05,49.22,49.22,0,0,1-6.24,3.66c-1.3.64-2.58,1.38-3.92,1.93-3.89,1.38-7.83,2.65-11.76,3.92a37.24,37.24,0,0,1-8.44,1.67,22.94,22.94,0,0,0-6.24,1.71c-3.17,1.19-6.22,2.67-9.43,3.76a44.87,44.87,0,0,0-13.63,7.3,97.27,97.27,0,0,0-9.13,8.08c-3.35,3.69-6.25,7.76-9.66,11.4A63.17,63.17,0,0,0,235.4,462c-2.72,5-4.79,10.48-4.79,16.19.65-.59,1.36-1.18,2-1.81,1.22,4,6,4.26,9.47,4.82,7,1.19,14.17,0,21.25.18A65.77,65.77,0,0,1,273,482.6c2.15.28,4.3.57,6.43.92a58.62,58.62,0,0,0,6.21.37c2.3,0,4.61,0,6.9-.08a33.26,33.26,0,0,1,6.31.05c2.58.16,5.08,1.15,7.67,1.05,1.89-.3,3.34-1.81,4.54-3.2a10.6,10.6,0,0,0,1.23-2.77c.07-.19.17-.58.24-.78s.17-.39,0-.35c3.77-2.42,6.87-5.74,10.55-8.28a14.43,14.43,0,0,1,9.2-2.89c5.57.23,10.88,2.17,16.33,3.16a22.38,22.38,0,0,1,12.57,5.94,71.77,71.77,0,0,1,5.05,5.55c1.91,2.24,3.87,4.43,5.79,6.66,1.71,1.95,3.44,3.9,5.33,5.67.11.46,5.7,3.06,6.18,3.33h0l.09-.1a47.18,47.18,0,0,1,1.62-24.62,67.7,67.7,0,0,1,12-20.52,87.57,87.57,0,0,1,8.17-9.46,125.93,125.93,0,0,1,10.19-8.69,36.15,36.15,0,0,0,4.71-4.87,16.25,16.25,0,0,0,2.55-3.91,6.45,6.45,0,0,0,.6-2.05,7.26,7.26,0,0,0-.22-1.85c-1.75-6.1-6.52-10.68-11.21-14.68-2.18-1.8-4.38-3.57-6.72-5.17a51.79,51.79,0,0,0-5.37-3c-3.69-1.95-7.95-2.44-11.7-4.21a6.45,6.45,0,0,1-2.84-4,6.17,6.17,0,0,1,2.53-6.65c3.83-2.76,7.93-2.4,12.07-.73s8.1,3.35,12.15,5a90.2,90.2,0,0,1,10.07,4.31c5.23,2.94,10.26,6.28,15.49,9.25a73.69,73.69,0,0,0,13.42,7.26c10.82,4.3,20.85,6.41,32.47,4.3,5.9-.77,11.9-1.86,17.86-1.31a21.94,21.94,0,0,1,10.81,4.84c2.6,2.18,5.63,3.83,8.17,6.07,4,3.52,5.21,9.11,4.33,14.22-.42,2.94-1.08,5.88-1.34,8.84a11.29,11.29,0,0,0,.34,5.48,16.91,16.91,0,0,0,3.19,5.18c2.52,3.18,5.6,5.9,7.93,9.22,1.29,1.81,2.39,3.8,3.53,5.7s2.24,3.85,4.3,4.63c2.63.76,4.54-2.88,5.67-4.78a27.27,27.27,0,0,0,2.2-7.25c.34-2.15,1.2-4.47,3.76-2.79,1.53,1.07,2.65,2.67,4.15,3.79,3,2.47,4.95.76,7.27-1.49,4-4.13,7.48-8.8,11.66-12.79a28.42,28.42,0,0,1,9.82-7.1c4.91-2,9.62-1.47,14.28.95,5.54,2.8,10.09,6.33,16.68,5.93,3.69-.18,7-2,10.34-3.47,2.51-1.09,5.13-2.13,7.64-3.24a54,54,0,0,1,9.37-3.54,34.16,34.16,0,0,1,19.75.38,59.52,59.52,0,0,1,8.49,4.15c5,2.76,9.83,5.79,14.66,8.78,3,1.84,6.18,3.58,9.16,5.51,3.34,2.15,6.53,4.61,10,6.61a53,53,0,0,0,11.59,4.9,38.53,38.53,0,0,0,15.93.49c6.37-1.11,12.63-3.11,19.12-3.42,2.11-.13,4.24-.33,6.34-.52a1.87,1.87,0,0,0,1.12-.63,1,1,0,0,0,.15-.79C761.51,462.72,760,460.74,758.53,458.85Z"/><path class="cls-5" d="M897.51,720.76l-4.82-8-.24-.23c-.57-.56-1.2-1.1-1.81-1.61-2.82-2.15-5.49-4.5-8.17-6.82-1.83-1.49-3.82-2.81-5.53-4.45a25.94,25.94,0,0,1-6.32-8.53c-1.35-2.7-2.75-5.54-5.1-7.51-1.55-1.23-3.27-2.23-4.83-3.45-1.12-.84-2.25-1.71-3.34-2.61-.52-.31-2.71-2.63-3-1.35,0,1.71.46,3.43.6,5.14.32,3.07.3,6.17.71,9.23a23.36,23.36,0,0,0,1.54,5.73c.53,1.52,1,3,1.61,4.55a28.49,28.49,0,0,1,1.24,6.6,87.26,87.26,0,0,0,1.92,11,23,23,0,0,0,1.9,5.28,17.27,17.27,0,0,0,2.33,3.19c.61.71,1.23,1.44,1.88,2.13s1.33,1.51,2.3,1.57h.07c1.14-.13,2-1,3-1.49,2.13-1.13,4.16-2.47,6.34-3.51,5.48-2.73,11.59-4,17.62-4.7h0Z"/><path class="cls-6" d="M313.17,619.5c-1.32-.32-4.51-1-6.25-2.22-1.26-.86-1.31-2.35-1.5-2.49l.27.19h0c-3.55-2.78,1.37-6.73,4-3.43,2.19-.29,4.22,1.19,6.32,1.64,2.15-3.63,7.86-1.69,11.43-2.19,1.13-2.12,4-2,6.07-2,2.8-1.56,10.79.49,8.82,4.78-2.09,2.7-5.95-.16-8.86.35h0c-.36,0-.71,0-1.07,0C331.11,617.24,316.71,619.3,313.17,619.5Z"/></g><g id="レイヤー_4" data-name="レイヤー 4"><path class="cls-7" d="M303.06,703.69c-4.68,0-9.37-.17-14-.58-3.61-.46-7.21-1-10.82-1.44s-7.06-1.11-10.59-1.59c-2.91-.43-5.86-.54-8.78-.82a48.12,48.12,0,0,1-6.88-.88,45.21,45.21,0,0,1-9.1-3.3c-1.74-.86-3.39-1.91-5.05-2.91a31.6,31.6,0,0,1-4.8-3.29c-2.56-2.09-4.41-4.9-7-7-4.28-3.45-10-.48-14.5,1.07l-3.27,1.26a4.87,4.87,0,0,1-2.27.46c-1.36-.6-.43-2.39-.17-3.44a16.64,16.64,0,0,1,1.43-3.53c.71-1.05,1.58-2,2.37-3,2.45-2.93,5.21-5.61,7.89-8.32a15,15,0,0,0,2.62-3c.44-.86.75-1.8,1.15-2.68a39.12,39.12,0,0,1,4.59-8.21c3-4.29,21.36-4.93,27.07-5.61,3.14-.17,6.3-.36,9.41-.83,2.94-.36,4.48-1.5,6.2-3.83,3.41-4.31,4.93-9.69,6.8-14.77,1.38-4,3.19-7.76,4.87-11.59,2.6-6.11,6.5-11.93,12.11-15.65a8.27,8.27,0,0,1,3.94-1.15,30,30,0,0,1,5.28.07c5.27.43,10.33,2.19,15.24,4.06a78.9,78.9,0,0,0,7.93,3.1,9.3,9.3,0,0,0,4.48.08,50.61,50.61,0,0,0,5.18-1.22c2.87-.74,5.75-1.45,8.56-2.37a64.36,64.36,0,0,1,8.45-2.49,21.22,21.22,0,0,1,13.24,2.18c2.06,1,4,2.19,6,3.3,1.67.92,3.43,1.92,5.39,1.89,4.25-.17,7.71-3.5,9.25-7.29a11.12,11.12,0,0,0,.91-3.68,7.32,7.32,0,0,0-.17-2.68,5.17,5.17,0,0,0-1.84-2.3h0l-.72-.64c-6.52-5.45-11.48-12.52-18.08-17.89-2.23-1.84-4.77-3.26-7.08-5a42.6,42.6,0,0,1-9-10.66c-2.18-3.5-3.89-8-1.47-11.79a4.72,4.72,0,0,1,3.7-2.56,14.82,14.82,0,0,1,5.82.21,65.64,65.64,0,0,1,6.44,2,7.43,7.43,0,0,0,.71.24l8,5.24c4.38,8.88,5.08,15.16,14,21.06,1.63,1.15,3.41,2.22,4.52,3.93,4.66,7.22,5.37,14.76,12.47,20.67,4.89,4.76,12.11,5.52,18.63,5.49,3.14,0,6.3-.06,9.44-.36a84.64,84.64,0,0,0,8.64-1.45c-5.29-.87-10.16-3.34-14.89-5.77a80,80,0,0,1-12.88-8,.63.63,0,0,1-.13-.11l-.2-.14s-.12-.08-.13-.11c-4.35-2.78-7.33-7.12-10.6-11a94.09,94.09,0,0,1-9.19-13c-1.3-2.46-2.19-5.12-3.37-7.65-2.67-5.88-4.54-12.34-8.88-17.29a103.3,103.3,0,0,0-17.66-15.48c-3.6-2.52-7.86-3.83-11.84-5.61-3.49-1.6-6.86-3.52-10.22-5.37-2.65-1.52-5.65-2.86-7.46-5.43a16.13,16.13,0,0,1-2.15-7.35l-.06-.65s0-.17,0-.2l.1,0,5.87,7.47c3,1.52,6.32,1.94,9.53,2.67a45.81,45.81,0,0,1,6.31,2.41,115.05,115.05,0,0,1,14.12,7.84c4.82,3.25,9.3,7,14.53,9.64a31.45,31.45,0,0,0,8.5,3.35c1.3.19,4.39,1.06,5.21-.27.16-.68-.46-1.32-.67-1.94-.55-1.14-1-2.34-1.48-3.52a13.52,13.52,0,0,0-2.13-4.11,42.53,42.53,0,0,0-4.36-5.21c-1.24-1.37-2.41-2.82-3.68-4.17-1.7-1.78-3.47-3.53-5-5.45A26.19,26.19,0,0,1,371.62,495a22.63,22.63,0,0,1-.61-4.56c0-1.06,0-5.15,1.75-3.59,1.39,1.4,2.66,2.94,4.16,4.24a56.44,56.44,0,0,0,6.53,4.39c4.26,2.65,8.65,5.2,13.51,6.58,4,1.29,8.14,1.82,12.19,2.8,2.83.86,5.64,1.86,8.42,2.88,2.23.86,4.47,1.76,6.63,2.79s4.17,2.2,6.29,3.21a46.74,46.74,0,0,0,5.95,2.91,16.79,16.79,0,0,0,4.27.75c4.49.44,8.55-1.89,12.75-3,3.78-1.06,7.14,1.65,10.13,3.57a19.48,19.48,0,0,0,7.64,2.92,6.18,6.18,0,0,0,3.74-.94,13.12,13.12,0,0,1,4.32-1.93h0a4.61,4.61,0,0,0,1.37-.51c.37-.22.73-.56,1.19-.53a8.38,8.38,0,0,1,3.05.85c1.52.65,3,1.46,4.42,2.24a50.53,50.53,0,0,0,6.08,2.9,60.46,60.46,0,0,0,7.61,1.9c3.51.62,7.12,1,10.41,2.43,1.9.69,1.51,2.18,1.59,3.82a23.72,23.72,0,0,1-.24,5.52,21.41,21.41,0,0,1-1,4.13,15,15,0,0,1-8,8.25,29.13,29.13,0,0,1-5.23,1.57,50.35,50.35,0,0,0-5.72,1.15c-1.34.42-2.7.82-4.07,1.12-4.23.93-7.54,4.34-9.16,8.25a36.75,36.75,0,0,0-1.78,6c-.34,1.41-.79,2.79-1.05,4.22a60.32,60.32,0,0,1,8-6.75c1.78-1.22,5-3.44,6.57-.86a3.38,3.38,0,0,1-.36,2.8c-.49,1.12-1.09,2.21-1.58,3.32-3.12,6.57-1.56,10.7,5.45,12.83,3.34,1,6.88,1.19,10.34,1.5,8.25.81,16.56.46,24.83.77,13,.67,25.91,2.62,38.75,4.66,2.67.48,5.35,1.09,8,1.61,3.85.69,7.72,1.36,11.52,2.29,6.17,1.36,12.18,3.41,18.23,5.2a86.35,86.35,0,0,0,12,2.78c4.43.74,8.94,1,13.33,2,3.5.73,7.61,1.81,7.57,6.25a3.77,3.77,0,0,0,.42,2.1,2.87,2.87,0,0,0,1.8.73,28.3,28.3,0,0,0,3.32.35c3.38.19,6.79.14,10.17.34s7.88,1.17,8.3,5a8.1,8.1,0,0,1-1,3.12c-1.61,3.71-4.71,3.69-8.11,4.64-2.11.6-2.57,1.14-.45,2.05,2.49,1.32,9.6,2.3,5.88,4.79-5.88,4-13,5.82-20.11,6.09-2.92.1-6,.18-8.76-.76-3.89-1.37-7.87-2.52-11.72-4s-7.83-2.56-11.67-4.06c-6.08-2.17-12-4.74-17.92-7.34a95.73,95.73,0,0,0-12.43-4.84,83,83,0,0,0-20-2.71c-4.83-.09-9.65.57-14.49.53-2.9,0-5.82-.07-8.72-.24a43,43,0,0,0-5.9-.17c-7,.24-13.81,1.72-20.73,2.44-4.9.66-9.68,2-14.54,2.92-1.8.3-3.62.36-5.43.59-3.89.46-7.78,1.1-11.69,1.37a21.13,21.13,0,0,1-7.46-.82c-1.7-.54-3.28-1.4-5-2a10.88,10.88,0,0,0-3.2-.68,27.15,27.15,0,0,0-3.37.25c-3.6.46-7.22,1-10.83,1.37-2.32.23-4.67.37-7,.71-3.05.36-6.15.39-9.2.84-5.19.7-10.25,2.17-15.41,3-2.78.53-5.54,1.28-8.35,1.55a30.83,30.83,0,0,0-5.41.88,14.46,14.46,0,0,0-4.58,2.45,10.34,10.34,0,0,0-2.08,4.32c-.57,2-.92,4-1.51,6-1.33,5.1-4.5,10.53-.63,15.32a79.24,79.24,0,0,0,6.91,7.52c5,4.42,9.89,9.59,7.76,16.82-1.32,4.61-3.45,4.6-7.58,5.92-1.87.5-3.75,1.05-5.66,1.39-2.88.37-5.78.56-8.67.76-3.76.14-7.49.73-11.22,1.16a26.23,26.23,0,0,1-12.77-1.92c-1.32-.5-2.54-1.28-3.85-1.79a10.26,10.26,0,0,0-3.64-.59,8.32,8.32,0,0,0-3.49.86,23.92,23.92,0,0,0-3.22,2.47,32.22,32.22,0,0,1-5.67,3.72,91,91,0,0,1-11.41,5c-2.13.77-4.25,1.62-6.42,2.29-3.1.94-6.27,1.67-9.44,2.34C311.22,702.53,307.22,703.79,303.06,703.69Z"/><path class="cls-7" d="M767.41,713.74c-.76-.15-1-1.09-1.45-1.67a15.58,15.58,0,0,0-1.39-2.1,11.7,11.7,0,0,0-3.94-3,18.29,18.29,0,0,0-4.61-1.76c-2.29-.51-4.61.11-6.91.21a18.19,18.19,0,0,1-3.9-.19,6.68,6.68,0,0,1-2.73-.83,5.14,5.14,0,0,1-2.26-3,25.23,25.23,0,0,0-1.14-2.48c-2.18-4.12-4.58-8.23-8-11.52a33.91,33.91,0,0,0-9.39-6.27,23.11,23.11,0,0,0-3.3-1.26,16.53,16.53,0,0,1-3.15-1.09h0c-1.09-.64-2.11-1.41-3.18-2.09-1.5-1-3.05-1.84-4.58-2.73-3.4-1.95-6.94-3.67-10.35-5.59a42.87,42.87,0,0,1-5.64-4.42,88.92,88.92,0,0,0-8.22-6.12c-6-3.35-12.53-5.79-18.36-9.5-3-1.88-8.23-4.86-9.49-8.26a1.51,1.51,0,0,1,1.73-2c2.79.48,5.6,1.35,8.45.84a21.75,21.75,0,0,0,3.44-1,57.8,57.8,0,0,1,5.68-1.33c3.07-.51,6-1.73,9-2.52a50.74,50.74,0,0,0,8.95-2.79,11,11,0,0,0,4.21-3h0a9.4,9.4,0,0,0,1.46-4,6,6,0,0,0-.46-2.64l0-.12-.1-.07c-.79-2-1.7-3.94-2.3-6-1.52-5-2.89-10.09-5.62-14.56a47.38,47.38,0,0,0-5.55-6.9c-2.67-2.52-5.61-4.77-8.07-7.49a176.66,176.66,0,0,1-14.14-17.8,63.58,63.58,0,0,1-5-8.63,54.38,54.38,0,0,1-2.65-9.37l.09-.11,4.62,2.5a54.35,54.35,0,0,1-4.18-12.86,63.18,63.18,0,0,1-.62-10.47,25,25,0,0,1,.35-4.23c.12-.86.32-1.93,1.3-2.17,3.27-.53,11.53,7.38,14.22,9.69,5.6,5.39,12.4,9.25,19.12,13,3.88,2.23,8.09,4,12.15,5.84,3.78,1.76,7.51,3.79,11.2,5.73,3.84,2,7.93,3.65,11.84,5.54s7.7,4.13,11.68,5.89c3.44,1.48,6.87,3.07,10.31,4.55A88.14,88.14,0,0,1,762,581.41a47,47,0,0,1,8.58,7.21c2.46,2.72,4.5,5.82,6.74,8.71,3.59,4.58,7.62,8.82,11.45,13.2,4.23,4.59,8.92,9,14.55,11.78a120.94,120.94,0,0,1,12.23,5.94,60.68,60.68,0,0,1,7.85,5.8,40.85,40.85,0,0,1,6,6c1.74,2,3.45,4,5,6.13,2.46,3.52,4.61,7.26,6.74,11,1.77,3.42,3.37,6.92,5.07,10.37,1.8,3.83,3.87,7.6,4.89,11.72.22,2.64-2.27,4.45-4.14,5.89a20.36,20.36,0,0,1-5.61,3.14c-2.06.86-4.16,1.67-6.27,2.41a69.52,69.52,0,0,0-7.58,3.66,36.12,36.12,0,0,0-6.07,4.82,27.4,27.4,0,0,0-4.77,6.48,25.26,25.26,0,0,0-2.33,5.07c-.33.83-.83,2.9-2,1.35a15.17,15.17,0,0,1-1.88-3.91c-.74-2.46-1.07-5-1.59-7.53-.54-2.28-1.3-4.51-1.68-6.82a56,56,0,0,0-1.58-6.9c-.94-2.71-2.22-5.3-3.3-8a35.14,35.14,0,0,0-3.47-6.59c-1.57-2.21-3.17-4.41-4.78-6.6a83.91,83.91,0,0,0-8.9-10.64c-3.2-3-6.15-6.32-9.42-9.26A65.41,65.41,0,0,0,767,639.7c-2.33-1.39-4.61-2.86-6.94-4.24a122.59,122.59,0,0,1-12.86-9.19c-1.56-1.33-3.17-2.61-4.65-4s-2.89-3-4.37-4.48c-3.57-3.47-6.64-7.41-9.9-11.16a38.22,38.22,0,0,0-7.9-6.74c-3.09-1.77-6.23-3.44-9.38-5.09a111.29,111.29,0,0,1-10.93-6c.18,1.54.22,3.1.53,4.63a59.3,59.3,0,0,0,3.88,11c1.73,4,3.16,8.17,5.81,11.67,2.69,3.9,5.2,8,8.2,11.64s6.38,6.92,9.68,10.26c4,3.77,7.7,7.94,12.51,10.69a110.49,110.49,0,0,0,11.11,5.67c2.4,1.21,4.7,2.66,7.06,4a47.24,47.24,0,0,1,7.63,5c2.9,2.31,5.91,4.92,7.19,8.5a6.23,6.23,0,0,1,.26,3.26c-.11,1.24-.33,2.47-.43,3.7-.2,3.35-.26,6.71-.63,10-.35,6.28.2,12.83-2.47,18.71C769.72,708.91,768.71,713.68,767.41,713.74Z"/><path class="cls-1" d="M834.36,779.43a15.49,15.49,0,0,1-8.52-3.55,41.1,41.1,0,0,1-5.66-5.29c-.56-.66-1.13-1.4-1.62-2.11l-.24-.34-1.74-9.6c5.62-4.78,10-4.88,15.7-.08,2.73,2.65,4.78,5.93,7.39,8.69a54,54,0,0,0,5,5.21c.64.51,1.24,1.24,2.1,1.36,1.12.08,1.86-.94,2.52-1.7a14,14,0,0,1,1.94-2,5.32,5.32,0,0,1,3.67-1,19.55,19.55,0,0,1,4.88.62c1.86.41,3.73.82,5.56,1.34a3.42,3.42,0,0,1,2.17,1.54c1.34,2-1.63,3.4-3.12,4.05-2.91,1.25-6.12,1.48-9.25,1.72a22.61,22.61,0,0,1-4,.07c-3.14-.32-6.08-1.55-9-2.6S838.14,779.57,834.36,779.43Z"/><path class="cls-1" d="M734.51,766.12a11.59,11.59,0,0,1-5-1.51c-1-.47-1.85-1.09-2.83-1.52a10.45,10.45,0,0,0-4.46-.77c-1.27.1-2.53.41-3.79.58a29.74,29.74,0,0,1-6.46.41,6.16,6.16,0,0,1-4.48-2.2c-2-2.36-2.87-5.48-3.92-8.36-.92-2.65-2.08-5.27-2.43-8.08a18.08,18.08,0,0,1-.2-4.87,9.58,9.58,0,0,1,1.75-3.21l.18-.25,7.92-4.91h.1c-.75,2.13-3.66,7.58-1.82,9.6,2.15,2.31,6.79,1.06,9.6.74,4.69-.76,9.73-2.41,14.09.36,1.12.62,2.25,1.28,3.41,1.84a4.45,4.45,0,0,0,3.94.44,13.21,13.21,0,0,0,3-2.39c1.72-1.4,4.11-1.11,6.14-.73,1.54.35,3,1,4.5,1.46a40.24,40.24,0,0,0,4.32,1.11c.69.12,1.4.21,2.1.28s2.08.22,2.41,1.09c0,1.06-1.13,1.64-1.87,2.19s-1.29.87-1.91,1.33c-1.57,1.15-3.08,2.37-4.62,3.55-1,.79-2.07,1.5-3,2.33-1.27,1-2.24,2.37-3.42,3.49a35.41,35.41,0,0,1-4.76,3.69,46.77,46.77,0,0,1-4.24,3.34A9.9,9.9,0,0,1,734.51,766.12Z"/><path class="cls-1" d="M561.84,554.94c-3.49-.14-6.58-2-9.48-3.79-2.33-1.41-4.8-2.64-7.19-3.95s-9.76-4.17-12.41-5.15c-.56-.47-1.12-1.08-1.63-1.6-1.66-1.74-3.33-3.72-3.69-6.18a10.25,10.25,0,0,1,2.33-8c3.37-2.69,8.05-1.8,12.05-2.42a28,28,0,0,0,8.31-2.82,47.78,47.78,0,0,0,10.45-6.84c1.84-1.48,3.73-2.92,5.66-4.27a20.35,20.35,0,0,1,3.94-2.27,10.63,10.63,0,0,1,4.27-.77A4.15,4.15,0,0,1,576.6,508a10.55,10.55,0,0,1,2.32,4.11,7.26,7.26,0,0,1,.31,4.84c-.75,3.16-3.17,5.47-5.51,7.56a28.4,28.4,0,0,0-4.14,4.76c-3.75,5.44-6.59,11-4.82,17.74.29,1.12.67,2.24,1,3.34s.77,2.12,0,3A5.86,5.86,0,0,1,561.84,554.94Z"/></g><g id="レイヤー_3" data-name="レイヤー 3"><path d="M309.39,658.75a26.66,26.66,0,0,0,2.58-3.23,16.07,16.07,0,0,0,1.65-3.48,17.58,17.58,0,0,0,1.85-5.61,22.24,22.24,0,0,0-.75-7.85,2.88,2.88,0,0,0-2-1.74,3.15,3.15,0,0,0-2.7.65,25.13,25.13,0,0,0-2.55,2.16,2.62,2.62,0,0,0-1.11,2,0,0,0,0,0,0,0,5.19,5.19,0,0,0,0,3.78l0,.08,0,.08a3.06,3.06,0,0,0,1.33,1.95,7,7,0,0,1,.65.46,29.67,29.67,0,0,1-3.14,1.87l-.77.19c-.25,0-.49.07-.74.09H303l-.8-.11c-1.05-.26-2.08-.62-3.12-.93l-3.49-1c-1.16-.35-2.31-.69-3.47-1s-2-.62-3-.86a4.4,4.4,0,0,0-1.53-.17l-.27.05c-.12-.76,2-2,2.52-1.65a4,4,0,0,0,1.4.47,3.57,3.57,0,0,0,.47,0,29.65,29.65,0,0,0,3.42-1,3.47,3.47,0,0,0,.64-.06,2.83,2.83,0,0,0,.41,0,3.18,3.18,0,0,0,2.38-1.19,7.68,7.68,0,0,0,1.62-3.63c.09-.58.37-4.77-.76-5.46a7.81,7.81,0,0,0-2.33-.9h-.4a21.89,21.89,0,0,0-5.06,1.71c-.22.11-8.19,3.26-8.55,3.6a4.1,4.1,0,0,0-1,2.56,20,20,0,0,0-.15,3,18,18,0,0,0,1.54,7.17,20.16,20.16,0,0,0,4.73,5.94,25.64,25.64,0,0,0,5.57,3.77,22.71,22.71,0,0,0,3.32,1.42,12.22,12.22,0,0,0,2.54.47,14.29,14.29,0,0,0,1.6.08,11.91,11.91,0,0,0,1.57-.09,9.79,9.79,0,0,0,3.62-1.23A12.77,12.77,0,0,0,309.39,658.75Z"/><path d="M345.24,610.35a23.13,23.13,0,0,0-6.63-3.35c-2.29-.82-4.75-1.92-7.24-1.59a12.63,12.63,0,0,0-5.08,2.25c-.3.18-.6.35-.92.51l-.29.11c-.22.07-.45.11-.68.16l.12,0c-1,.2-2,.45-3,.66s-1.83.23-2.75.29c-1.44.07-2.88.1-4.32.1s-2.82,0-4.22-.06a41,41,0,0,1-4.13-.56,14.33,14.33,0,0,1-1.46-.41c-.79-.3-1.56-.63-2.32-1a33.86,33.86,0,0,0-3.25-2.06c-2.66-3.84-5.5-7.68-9.21-10.57a23.53,23.53,0,0,0-3.14-2.1,13.43,13.43,0,0,0-3.38-1.38,17.55,17.55,0,0,0-3.39-.41c-1,0-1.95,0-2.93-.1a22.91,22.91,0,0,1-2.33-.33,44.77,44.77,0,0,1-4.6-1.14c-1.27-.5-2.52-1.11-3.75-1.72l-.7-.43-.22-.16a2.56,2.56,0,0,0-4.83,1.63,5.57,5.57,0,0,0,3,3.3c.92.51,1.9.93,2.86,1.38a15.69,15.69,0,0,0,2.8,1.11c1.05.29,2.12.52,3.18.77a24.81,24.81,0,0,0,3.07.59c1.71.18,3.42.15,5.14.26.39,0,.77.09,1.16.16a8.3,8.3,0,0,1,.94.27c.38.14.75.31,1.12.49.69.39,1.37.8,2,1.25a23.54,23.54,0,0,1,2,1.67,43.76,43.76,0,0,1,3.65,3.93c-.05-.06-.09-.12-.14-.17l.19.23h0c1.9,2.32,3.56,4.86,5.23,7.34a89.71,89.71,0,0,0,5.16,7.35,19.45,19.45,0,0,0,1.88,2,10.48,10.48,0,0,0,2.36,1.47,19.07,19.07,0,0,0,5,1.44,24.4,24.4,0,0,0,4.27.4c.55,0,1.1,0,1.64-.07,2.22-.2,4.26-1.19,6.34-1.9.69-.21,7.08-4,7.45-4,.81-.13,1.63-.22,2.45-.27s1.79-.07,2.69,0a27,27,0,0,1,2.68.38c1.43.33,2.84.76,4.29,1a11.12,11.12,0,0,0,1.27.19,4.32,4.32,0,0,0,2.37-.38,3.12,3.12,0,0,0,1.6-2.38,5,5,0,0,0-.47-2.51A8.45,8.45,0,0,0,345.24,610.35Zm-6.3,2.44a22.93,22.93,0,0,0-4.61-.34,22.48,22.48,0,0,0-5.29.6,13,13,0,0,0-2.09.75c-.58.29-4.37,3-5.5,3.42s-2.33.87-3.51,1.26l-.63.17-.77.09a26.43,26.43,0,0,1-2.67,0c-.84-.08-1.67-.22-2.5-.38s-1.53-.37-2.27-.61c-.26-.1-.51-.21-.76-.33s-.63-.36-.93-.55l-.23-.18c-.41-.4-.79-.81-1.16-1.23s-.84-1.07-1.25-1.62a26.85,26.85,0,0,0,2.66.45,34.7,34.7,0,0,0,3.94.33c2.51,0,5,0,7.52-.1a25.81,25.81,0,0,0,3.5-.37c.9-.16,1.79-.41,2.69-.59a10.33,10.33,0,0,0,2.37-.67,20.35,20.35,0,0,0,2.3-1.35c.42-.26.86-.48,1.3-.7l.57-.23.17,0,.26,0h.35l.93.14c.55.13,1.09.3,1.63.48h0c1.55.55,3.1,1.1,4.59,1.79Z"/><path d="M263.31,647.62c-1.13.24-2.21.61-3.31.93s-2.05.57-3.09.78a19.68,19.68,0,0,1-2,.22c-2,.1-3.95.07-5.93.17s-3.71.34-5.55.59c-.11,0-.21.06-.32.09l-3,0a2.62,2.62,0,0,0-1.26.35c-.38-.17-.76-.34-1.14-.53-1.06-.5-2.12-1-3.17-1.48q-1-.53-1.89-1.08l-1.42-.82a2.55,2.55,0,0,0-1.84-.82,2.58,2.58,0,0,0-2.59,2.54,2.79,2.79,0,0,0,.8,2,6.8,6.8,0,0,0,1.62,1.07c1.09.63,2.15,1.3,3.28,1.86s2.43,1.14,3.64,1.71a31.07,31.07,0,0,0,3.45,1.39A33.79,33.79,0,0,0,246.9,658c1.24.12,2.49.19,3.73.19a24.53,24.53,0,0,0,3.73-.26,17.65,17.65,0,0,0,3.44-.85,33,33,0,0,0,3.85-1.68c1-.48,1.9-1,2.84-1.52a17,17,0,0,0,1.91-1.2,6.61,6.61,0,0,0,.77-.63,2.69,2.69,0,0,0,.5-3.18C266.79,647.28,264.87,647.3,263.31,647.62Z"/><path d="M328.62,676.49a33.79,33.79,0,0,1-3.6-1.57,19.44,19.44,0,0,1-1.69-1c-1.44-1-2.76-2.2-4.16-3.28s-3.16-2.18-4.74-3.28c-.84-.6-1.65-1.24-2.44-1.91a3.06,3.06,0,0,0-.68-1.63,2.64,2.64,0,0,0-2.73-1.7,2.54,2.54,0,0,0-2.12,1.79,2.48,2.48,0,0,0-.49,1.48,3.26,3.26,0,0,0,.73,2c.12.56.27,1.12.44,1.67a10.42,10.42,0,0,0,1.67,3.47,16.45,16.45,0,0,0,2.73,2.61,40.65,40.65,0,0,0,6.25,4.24A25.41,25.41,0,0,0,321.5,681a30.46,30.46,0,0,0,3.65.92,11.87,11.87,0,0,0,2.05.27h.08a4,4,0,0,0,3.31-1.15,2.67,2.67,0,0,0-.1-3.5A4.3,4.3,0,0,0,328.62,676.49Z"/><path d="M385.17,545.85a31.27,31.27,0,0,0-1.91-3.9,71.83,71.83,0,0,0-4.54-6.67c-1.68-2.14-3.66-4-5.47-6a38.53,38.53,0,0,0-5.38-5.38,19.74,19.74,0,0,0-3.76-2.28,16.41,16.41,0,0,0-3.62-1.15,2.56,2.56,0,0,0-2.42,4,2.66,2.66,0,0,0,1.71,1l.13,0c.43.11.85.23,1.27.37s.91.39,1.36.61,1,.6,1.53.92a22.18,22.18,0,0,1,1.79,1.41c1.43,1.37,2.69,2.87,4,4.32s2.88,3,4.25,4.58a70,70,0,0,1,4.23,6c.46.74.88,1.49,1.28,2.27q1.29,2.85,2.47,5.76a2.6,2.6,0,0,0,2.4,1.61,2.47,2.47,0,0,0,.92-.18,2.58,2.58,0,0,0,1.44-3.32C386.32,548.55,385.76,547.2,385.17,545.85Z"/><path d="M465.34,526.28a2.57,2.57,0,0,0-2.24,2.85,3,3,0,0,0,1.16,1.88c.49.42,1,.82,1.49,1.22,1,.83,2.08,1.65,3.14,2.45a40.23,40.23,0,0,0,3.41,2.4c1.19.7,2.42,1.32,3.62,2a2.7,2.7,0,0,0,1.34.36,2.52,2.52,0,0,0,2.18-1.22,2.59,2.59,0,0,0-.86-3.52c-.9-.51-1.82-1-2.72-1.49-.71-.39-1.39-.82-2.06-1.28-1.16-.83-2.3-1.68-3.42-2.56s-2.11-1.63-3.1-2.51l.23.21.2.24.05.12A2.48,2.48,0,0,0,465.34,526.28Z"/><path d="M519.37,514.2a12.91,12.91,0,0,0-1.74-3.58,10.13,10.13,0,0,0-1.22-1.47,6.8,6.8,0,0,0-1-.84,1.88,1.88,0,0,0,.1-.67,19.88,19.88,0,0,0-.51-3.15,17.41,17.41,0,0,0-1.11-3.36,30.71,30.71,0,0,0-4.35-7.53,34,34,0,0,0-2.63-2.86,26.16,26.16,0,0,0-3.35-2.67c-2.13-1.46-4.35-2.75-6.59-4a37,37,0,0,0-7.15-3.28,69.45,69.45,0,0,0-7.53-1.84l.08,0-.19,0-.11,0,.06,0a61.93,61.93,0,0,1-7-1.84c-1.13-.45-2.22-1-3.3-1.54-3.28-1.71-6.47-3.57-9.67-5.43-3.36-1.95-6.77-3.84-10-6-2.31-1.67-4.49-3.5-6.62-5.39-.42-.4-.83-.8-1.22-1.23a49,49,0,0,1-2.86-4c-.81-1.31-1.53-2.67-2.21-4a53.88,53.88,0,0,1-2-5.3.58.58,0,0,1,.05.14c-.36-1.14-.73-2.28-1.09-3.42v0h0c0-.08-.05-.16-.07-.23l-.15-.46c-.06-.22-.14-.43-.21-.64-.44-1.31-.89-2.6-1.38-3.89-1-2.53-2.16-5-3.37-7.41a124.05,124.05,0,0,0-8.49-13.64,80.19,80.19,0,0,0-4.94-6.66,39.29,39.29,0,0,0-5.87-5.44c-1.11-.87-2.24-1.72-3.42-2.48s-2.36-1.42-3.58-2.08c-2.44-1.31-4.88-2.67-7.42-3.78a30.19,30.19,0,0,0-3.82-1.31c-1.36-.38-2.73-.7-4.12-1s-2.53-.39-3.81-.53-2.74-.26-4.11-.3a66.52,66.52,0,0,0-8,.22,27.22,27.22,0,0,0-3.82.78c-1.18.29-2.36.55-3.56.78-1.37.24-2.74.46-4.09.81s-2.36.74-3.53,1.13c-.83.25-1.67.48-2.52.67a2.56,2.56,0,1,0,1.26,5A44.94,44.94,0,0,0,361.7,399a30.13,30.13,0,0,1,3.36-.87c1.49-.26,3-.51,4.45-.86,1.26-.3,2.51-.62,3.78-.88.72-.1,1.43-.16,2.14-.21,2.45-.1,4.91-.14,7.35,0A59.23,59.23,0,0,1,389,397a47.91,47.91,0,0,1,5.28,1.45c1,.4,2,.83,3,1.31,1.61.83,3.2,1.68,4.8,2.54a48.47,48.47,0,0,1,4.74,2.86q2.38,1.78,4.62,3.76a38,38,0,0,1,3,3.13c1.63,2.09,3.14,4.25,4.62,6.45s2.78,4.12,4.12,6.21c.91,1.47,1.84,2.95,2.64,4.49s1.52,3,2.24,4.53a72.73,72.73,0,0,1,3,7.66h0c.11.33.2.68.33,1h0s0,0,0,.06l1,3.17c.36,1.12.7,2.26,1.13,3.35a43.9,43.9,0,0,0,3.48,7c.7,1.14,1.48,2.23,2.26,3.31a19.42,19.42,0,0,0,2.52,2.91,80.07,80.07,0,0,0,6.43,5.36,70.68,70.68,0,0,0,6.77,4.34c2.26,1.33,4.54,2.62,6.8,3.95s4.52,2.6,6.84,3.8c1.19.61,2.37,1.26,3.6,1.79a30.82,30.82,0,0,0,3.76,1.28c2.44.69,4.93,1.18,7.41,1.7a50.34,50.34,0,0,1,5.66,1.54,32.54,32.54,0,0,1,3.27,1.41,92.14,92.14,0,0,1,8.38,5,28.86,28.86,0,0,1,2.47,1.94c.73.7,1.42,1.43,2.08,2.19s1.08,1.37,1.58,2.1c.73,1.2,1.36,2.46,2,3.73.32.7.62,1.4.88,2.13a18.76,18.76,0,0,1,.48,1.93v.05c-1.07-.2-2.16-.34-3.23-.51s-2.38-.49-3.58-.67-2.37-.28-3.55-.37a28.61,28.61,0,0,1-3.57-.48,29.74,29.74,0,0,1-3.07-.86c-2.92-1.07-5.77-2.36-8.57-3.71-.29-.16-.58-.32-.87-.51l-.09-.06a2.56,2.56,0,0,0-4.1,3.08,5.55,5.55,0,0,0,1.76,1.51,27.84,27.84,0,0,0,2.73,1.37c1.73.78,3.45,1.6,5.22,2.3a34.06,34.06,0,0,0,5.37,1.76,35,35,0,0,0,5.09.72h0l.33,0h0c.72,0,1.43.11,2.14.22s1.59.28,2.38.43c1.67.34,3.38.54,5.06.85a15.18,15.18,0,0,1,1.6.44c.33.12.65.25,1,.4l.38.23.14.11.41.43c.18.24.36.48.52.72s.32.54.47.82.2.47.29.71a17.8,17.8,0,0,1,.42,1.75,32,32,0,0,1,.39,3.23c0,.54,0,1.07,0,1.61a33.59,33.59,0,0,1-.5,3.74l-.12.41c0,.1-.09.21-.14.31s-.18.31-.27.47h0a2.88,2.88,0,0,0-.46,1l-.25-.09c-1.56-.38-3.2,0-4.78.11-.42,0-.83,0-1.25,0-1.92-.23-3.81-.66-5.73-.89-1.68-.21-3.38-.32-5.05-.63-.27-.07-.55-.14-.82-.23-.91-.36-1.77-.82-2.64-1.26l-2.74-1.36,0,0a2.63,2.63,0,0,0-1.87-.24,2.54,2.54,0,0,0-1.56,1.16,2.56,2.56,0,0,0,.87,3.51c1,.51,1.93,1,2.9,1.45s1.65.89,2.51,1.25a22.39,22.39,0,0,0,6.54,1.28c2.28.2,4.52.75,6.79,1a16.11,16.11,0,0,0,3.33,0c.56-.05,1.11-.14,1.67-.18h.47l.25.35c.1.17.2.34.29.52a3.05,3.05,0,0,1,.13.32l0,.12v.08c0,.49-.12,1-.21,1.46-.24,1.06-.52,2.13-.85,3.16-.11.26-.23.52-.35.77a7.45,7.45,0,0,1-.46.77c-.17.24-.35.47-.54.7s-.34.34-.52.49-.46.34-.7.51c-.68.42-1.37.79-2.08,1.14-1,.44-2,.88-3,1.24l-.72.19-.49,0h-.8c-1-.1-1.91-.29-2.88-.42s-1.91-.27-2.86-.46c-.61-.14-1.21-.31-1.81-.51a25.15,25.15,0,0,1-2.62-1.12,10.29,10.29,0,0,0-4.69-1.56,2.57,2.57,0,0,0,0,5.13h.13l.18,0,.3.09.81.35c.47.25.94.49,1.42.72a7.52,7.52,0,0,1-.78.32c-.45.14-.91.27-1.37.37a.83.83,0,0,1-.22,0l-.63,0H487a36.78,36.78,0,0,1-4-.53c-1.65-.38-3.29-.86-4.92-1.29s-3.24-.75-4.88-1.09a50.52,50.52,0,0,1-5-1.32c-.55-.21-1.08-.45-1.61-.71-.85-.45-1.67-.95-2.5-1.45-1.08-.66-2.19-1.29-3.27-2s-2-1.22-3-1.82-2.07-1.32-3.08-2a27.49,27.49,0,0,1-2.49-2,23.45,23.45,0,0,1-1.75-1.84c-.75-.93-1.48-1.87-2.17-2.85s-1.21-1.8-1.83-2.69a20.31,20.31,0,0,0-2.2-2.84,9,9,0,0,0-1.39-1.16,3.37,3.37,0,0,0-.32-.19,2.56,2.56,0,0,0-3.14,4,5.37,5.37,0,0,0,.75.49l.22.18.6.64c1.1,1.43,2.07,2.94,3.1,4.42-.79-.23-1.58-.47-2.36-.74a19.35,19.35,0,0,1-1.81-.78c-.78-.43-1.52-.9-2.25-1.39a39,39,0,0,1-3.2-2.7h0l-.13-.12-.06-.06a.08.08,0,0,1,0,0c-2-1.8-3.91-3.61-5.9-5.39-1.41-1.32-2.72-2.74-4.14-4.06a25.47,25.47,0,0,0-4.92-3.64,39.35,39.35,0,0,0-5.35-2.49c-1-.36-1.93-.72-2.92-1-.73-.2-1.46-.39-2.18-.63a48.91,48.91,0,0,1-4.58-2.15l.31.16c-2.73-1.42-5.37-3-8-4.6s-5.45-3.15-8.05-4.91c-1.67-1.23-3.24-2.56-4.81-3.91s-3-2.56-4.43-3.88c-2.44-2.3-4.63-4.86-6.9-7.33s-4.4-4.88-6.52-7.38c-1.94-2.32-3.76-4.72-5.55-7.15-3.12-4.23-6-8.63-9-12.95-1.48-2.16-3-4.27-4.59-6.35q-1.12-1.52-2.31-3c-.67-.82-1.38-1.58-2.08-2.37a2.53,2.53,0,0,0-2-1,2.58,2.58,0,0,0-2.58,2.54,3.31,3.31,0,0,0,1.17,2.31c.42.44.81.89,1.2,1.35,1.18,1.44,2.31,2.93,3.42,4.43,3.1,4.21,6,8.57,8.95,12.88a157.34,157.34,0,0,0,9.61,12.78c3.35,4,6.88,7.81,10.4,11.64.93,1,1.86,2,2.85,2.92s2,1.85,3.08,2.75c2,1.74,4,3.57,6.13,5.14s4.57,3,6.91,4.36c2.08,1.24,4.13,2.54,6.22,3.75q3.38,1.95,6.88,3.65a22.72,22.72,0,0,0,3.36,1.36c1.1.34,2.21.62,3.29,1a45.38,45.38,0,0,1,4.36,1.87c.91.48,1.79,1,2.64,1.55s1.52,1.17,2.25,1.81c1.15,1.09,2.24,2.25,3.38,3.36s2.35,2.13,3.53,3.2l.18.17,2.85,2.64.08.08.21.18.05,0a8.42,8.42,0,0,0,.7.64l.7.65c.45.4.9.82,1.39,1.19a28.4,28.4,0,0,0,3.3,2.22,22.76,22.76,0,0,0,3.79,1.65,29.05,29.05,0,0,0,7,1.57H448a2.82,2.82,0,0,0,1-.16c.36.32.72.65,1.11,1a58.3,58.3,0,0,0,6.18,4.13c2,1.18,4,2.39,6,3.58a24.23,24.23,0,0,0,4.61,2.24c1.17.4,2.38.68,3.57,1s2.3.53,3.46.76c1.61.35,3.2.78,4.8,1.21a42,42,0,0,0,5.06,1.14c.8.11,1.6.2,2.41.27.51,0,1,.11,1.57.11a4.91,4.91,0,0,0,.86-.07,16,16,0,0,0,4.14-1.36,2.54,2.54,0,0,0,1.21-2.92c.32.09.65.2,1,.27a31.71,31.71,0,0,0,3.21.57c1,.14,2,.34,3,.45.52,0,1,.09,1.57.09a9.37,9.37,0,0,0,2.29-.27,19.55,19.55,0,0,0,3-1.11c1-.43,2-.88,2.94-1.41a13.84,13.84,0,0,0,2.68-1.87,12.49,12.49,0,0,0,2.27-3,15.65,15.65,0,0,0,1.27-3.42c.57-2.14,1.3-4.56.44-6.71a12.3,12.3,0,0,0-.55-1.16,2.3,2.3,0,0,0,1.15-.8,10.24,10.24,0,0,0,1.18-2.12,10.06,10.06,0,0,0,.52-2.08,30.17,30.17,0,0,0,.48-4.34,24.1,24.1,0,0,0-.21-3.5A23.66,23.66,0,0,0,519.37,514.2ZM489.8,547l.27-.13h0Z"/><path d="M652.83,382.4h.06l.1,0Z"/><path d="M862.89,772.64l0-.07h0l.06.09,0,0Z"/><polygon points="862.9 772.66 862.9 772.66 862.9 772.66 862.9 772.66"/><path d="M889.87,715.68l-.07-.07,0,0Z"/><path d="M932.64,752.43a30,30,0,0,0-4-6.66,69.11,69.11,0,0,0-5-6c-3.4-3.67-7.29-6.84-11-10.2-1.59-1.49-3.09-3.07-4.69-4.55s-3.19-2.82-4.78-4.24c-3.21-2.86-6.43-5.69-9.6-8.59l-.1-.08,0,0h0l-.25-.23c-.4-.45-.91-.84-1.33-1.24a83.25,83.25,0,0,1-6.49-6.92c-1.23-1.47-2.45-2.95-3.69-4.42l.21.25c-2.7-3.23-5.35-6.49-8.23-9.56-1.42-1.51-2.89-3-4.32-4.48s-2.69-3-4-4.56a160.15,160.15,0,0,1-10.9-15.22l-.28-.47a2.66,2.66,0,0,0-.84-1.26,73.84,73.84,0,0,0-3.4-10.43c-1.27-3.2-2.67-6.34-4.16-9.45-1-2.08-1.8-4.2-2.64-6.34s-1.58-4.11-2.29-6.2A65.77,65.77,0,0,0,837,622q-1.28-2.47-2.78-4.8a33.26,33.26,0,0,0-3.23-4.41,58,58,0,0,0-7.34-6.39c-1.39-1.08-2.82-2.13-4.2-3.25s-2.7-2.28-4-3.46a64.83,64.83,0,0,1-5.11-5.37c-2.05-2.47-4-5-6-7.5s-4-5.18-5.76-7.92c-2.61-4.13-4.94-8.41-7.41-12.61-1.21-2.05-2.38-4.12-3.45-6.24s-2.09-4.24-3.1-6.38a44.8,44.8,0,0,1-1.82-4.43c-.53-1.72-1-3.44-1.36-5.2-.36-2.05-.63-4.12-.92-6.19s-.56-4.41-.72-6.63c-.1-1.81-.13-3.63-.2-5.44-.09-2-.23-4.09-.36-6.13-.1-1.82-.18-3.63-.34-5.44a109.69,109.69,0,0,0-1.71-11C775.77,496,773.26,489,771,482c-1.19-3.57-2.38-7.14-3.63-10.69a71.7,71.7,0,0,0-4.68-10.52c-.9-1.68-1.88-3.33-2.91-4.94,0-.05-.07-.1-.1-.16a.57.57,0,0,1-.08-.13l0,0c-.18-.29-.35-.59-.55-.87s-.47-.72-.7-1.06-.44-.68-.67-1l-1.49-2.21c-2.2-3.24-4.42-6.45-6.7-9.63s-4.65-6.51-7.26-9.54a101.64,101.64,0,0,0-8-8.32c-1.46-1.34-3-2.63-4.51-3.89s-3-2.41-4.49-3.65a90.53,90.53,0,0,0-8.81-6.67c-3.22-2.09-6.46-4.14-9.78-6s-6.61-3.46-10-5-6.9-3-10.38-4.47-7.12-2.86-10.67-4.33c-1.87-.77-3.73-1.58-5.62-2.31a55.4,55.4,0,0,0-5.6-1.82q-2.81-.75-5.6-1.53c-1.79-.5-12-2.08-15.22-3.22-1.5-.53-3.06-.83-4.59-1.26s-3-.88-4.58-1.21c-1.71-.37-3.42-.74-5.15-1s-3.43-.44-5.14-.67c-3.28-.43-6.53-1.09-9.77-1.77L614,374c-1.89-.41-3.75-.95-5.62-1.43-2.13-.55-4.29-1-6.43-1.49-3.7-.83-7.42-1.56-11.15-2.16s-7.33-1.26-11-2l-.1,0-.25-.05-.1,0c-2.61-.59-5.17-1.35-7.73-2.08s-5-1.4-7.39-2.23c-1.85-.68-3.67-1.44-5.54-2.07-2-.68-4.13-1.3-6.21-1.88s-4-1.14-6.08-1.57c-1.87-.39-3.74-.75-5.61-1.13-2.25-.51-4.49-1.07-6.74-1.58s-4.65-1-7-1.49c-5.34-1.14-10.6-2.59-15.92-3.8-2.67-.61-5.34-1.17-8-1.61s-5.4-.86-8.09-1.38c-1.74-.37-3.48-.75-5.23-1.1s-3.3-.58-5-.85q-4.54-.74-9.07-1.51c-3.32-.57-6.66-1.05-10-1.42-3.14-.35-6.28-.48-9.42-.7-4.36-.34-8.7-.8-13.08-.82a50,50,0,0,0-6.12.27c-2,.23-3.89.56-5.82,1a105.62,105.62,0,0,0-12,3.46c-3.8,1.28-7.63,2.49-11.37,3.92-2,.73-3.89,1.48-5.8,2.31s-3.92,1.81-5.85,2.79c-3.76,1.89-7.53,3.78-11.28,5.69a105,105,0,0,0-10.9,6.48c-3.3,2.22-6.5,4.61-9.84,6.76l.06,0c-3.47,2.15-7,4.17-10.4,6.46-3,2-6,4.2-8.89,6.38-2.71,2-5.39,4.1-8.08,6.16-1.51,1.16-3,2.33-4.48,3.56s-2.79,2.4-4.19,3.59a64.93,64.93,0,0,1-6,4.38c-2.17,1.31-4.4,2.48-6.68,3.57-2.11,1-4.3,1.7-6.45,2.53s-4.37,1.63-6.58,2.36h0l-.17.05.1,0c-5.7,1.76-11.47,3.33-17.13,5.21a45.56,45.56,0,0,0-5.41,2.11c-1.84.89-3.64,1.87-5.45,2.82s-3.87,2.15-5.74,3.33a52,52,0,0,0-5.14,3.59,47.41,47.41,0,0,0-4.48,4.26c-1.43,1.55-2.85,3.09-4.31,4.61-3,3.1-6.05,6.08-8.77,9.39a107.15,107.15,0,0,0-7.11,9.73c-1.12,1.73-2.2,3.49-3.28,5.24-.5.81-1,1.63-1.5,2.44a22.4,22.4,0,0,0-1.35,2.45,27.88,27.88,0,0,0-1.73,5.28,21,21,0,0,0-.36,2.08c0,.17,0,.34-.05.51a2.72,2.72,0,0,0-.05.64l-.06,0c-1.33.74-2.66,1.47-4,2.14-1.57.7-3.18,1.32-4.71,2.11a52,52,0,0,0-4.54,2.58,42.1,42.1,0,0,0-4.08,2.93,10.88,10.88,0,0,0-2.49,2.79,17.21,17.21,0,0,0-1.22,2.38A114.06,114.06,0,0,0,204.45,506c-.67,2.63-1.35,5.24-2.11,7.84s-1.43,5-2.14,7.5c-1.44,5.11-2.71,10.26-4.09,15.38-.65,2.44-1.31,4.87-2,7.3s-1.29,5-1.81,7.58c-.12.59-2.28,6-3.4,8.24-1,2.05-2,4.12-3,6.16-.8,1.53-1.65,3-2.49,4.53s-1.6,2.86-2.51,4.22c-.76,1.08-1.51,2.15-2.25,3.24l0-.06-.06.08-.09.13a.41.41,0,0,0,.05-.09c-1,1.4-2,2.75-3,4.18a44.34,44.34,0,0,0-2.68,4.69,41.11,41.11,0,0,0-2,4.46c-.56,1.62-1.07,3.26-1.59,4.88-.76,2.34-1.64,4.65-2.21,7a38.51,38.51,0,0,0-.76,3.82c-.18,1.3-.3,2.59-.38,3.89a47,47,0,0,0,0,7,72.56,72.56,0,0,0,1.27,7.19c.12.68-3.12,5.9-3.4,6.71-.14.36-.31.72-.49,1.08a.05.05,0,0,1,0,0c-.57,1.1-1.12,2.21-1.68,3.31l0,.07h0v0h0c-.4.78-.79,1.56-1.13,2.37s-.65,1.75-1,2.6-.93,1.9-1.39,2.86-.75,1.61-1.15,2.41-1,1.85-1.52,2.8-1,2-1.55,3.08a2,2,0,0,1,.11-.2l-.15.27v0c-1.08,2.06-2.3,4.05-3.3,6.16s-2.15,4.47-3.1,6.76-1.89,4.5-2.62,6.82c-.63,2-1.06,4.09-1.74,6.09-.36,1-.82,1.86-1.23,2.79a21.23,21.23,0,0,0-1,2.86,11.68,11.68,0,0,0-.43,2.1,4.14,4.14,0,0,0,.47,2.4,5.59,5.59,0,0,0,1.07,1.35c3.2,3,13.17,6.25,14.46,6.29.51.05,1,.15,1.52.2l1.38.1a13.63,13.63,0,0,0,1.56.11c1.51.09,3,.14,4.55.14l2.11,0c2.56-.07,5.12-.11,7.68-.17a63.22,63.22,0,0,0,7.66-.43,27.67,27.67,0,0,0,3.72-.8,24.44,24.44,0,0,0,3.66-1.45,77,77,0,0,1,7.15-3c1.19-.41,2.39-.8,3.57-1.24s2.23-.86,3.34-1.32,2.19-.85,3.25-1.34,2-1,2.93-1.43c2-.93,4.05-1.73,6.1-2.54a22.53,22.53,0,0,0,5.43-2.91c.17.25.35.49.55.73.67.76,1.4,1.45,2.1,2.18a34.15,34.15,0,0,0,2.46,2.5,29.16,29.16,0,0,0,2.77,2.21c1,.7,2,1.33,3.1,1.93s2.19,1.23,3.32,1.79,2.22,1,3.35,1.48,2.15.92,3.25,1.31,2.36.79,3.53,1.19,2.46,1,3.69,1.51,2.75,1,4.13,1.43h.05l0,0,0,0,.09,0h0c1.42.52,2.83,1,4.28,1.44s2.87.77,4.32,1.09l1.32.29.11,0,.36.07-.2,0,.11,0,.22.05A108.2,108.2,0,0,0,277,702.8c4.1.35,8.18.79,12.3.86,5.07.09,10.15.12,15.22.12,2.43,0,4.86-.13,7.29-.24,1.33-.07,2.66-.13,4-.3s2.67-.41,4-.69a47.74,47.74,0,0,0,6.74-1.87c2.21-.84,4.36-1.77,6.5-2.75a80.16,80.16,0,0,0,11.6-6.2c1-.71,2.07-1.43,3.11-2.13s1.94-1.27,2.9-1.92c.53-.37,1.05-.75,1.57-1.13.23.05.46.07.7.11l.41.13.67.29c.75.41,1.46.86,2.22,1.26a10.38,10.38,0,0,0,1.59.73,11.78,11.78,0,0,0,2.77.45c1.05.1,2.11.22,3.15.4.79.14,1.58.32,2.38.46a41.44,41.44,0,0,0,5.33.51c.79,0,1.58,0,2.36,0a47.47,47.47,0,0,0,5.19-.26c2.37-.27,4.74-.58,7.13-.8,1.13-.1,2.26-.18,3.39-.26s2.38-.23,3.57-.38q3.54-.43,7.07-1a40.66,40.66,0,0,0,7.23-1.71,8.14,8.14,0,0,0,1.57-.69,4,4,0,0,0,1.75-2,6.67,6.67,0,0,0,.41-1.71,10.49,10.49,0,0,0,.11-1.58,10,10,0,0,0-.94-3.88,22.65,22.65,0,0,0-1.71-3c-.66-1-1.3-2-2-3s-1.42-1.74-2.15-2.59l0,0-.15-.18,0,0v0c-.46-.57-.91-1.14-1.42-1.67l-1.59-1.59a20.47,20.47,0,0,0-2-1.84c-.67-.53-1.33-1.06-2-1.62-.86-.81-1.63-1.71-2.5-2.51a11.1,11.1,0,0,0-1.56-1.25,13.73,13.73,0,0,0-1.36-.74,2.19,2.19,0,0,0-1.2-.2c.21-.28.41-.56.6-.85a30.05,30.05,0,0,0,1.88-3.38,55.2,55.2,0,0,0,2.85-7.57c.37-1.2.64-2.43.93-3.65s.63-2.73.84-4.11c.41-2.62.76-5.23.94-7.87,0-.43,0-.86.06-1.29.45.06.89.12,1.34.14.6,0,1.2,0,1.79,0s1.11,0,1.67,0a64.46,64.46,0,0,0,7.6-.84l7.63-1.17c2.45-.38,4.91-.79,7.37-1.07,2.71-.3,5.42-.42,8.13-.7s5.22-.61,7.83-.89,4.92-.6,7.35-1.08c2.27-.45,4.51-1,6.78-1.45a46.5,46.5,0,0,1,4.69-.69c.79-.06,3.07-.06,3.77.4,4.56,3,10.22,3.69,15.58,3.57a106,106,0,0,0,15.4-1.43c2.66-.45,5.3-1,7.95-1.53,2.44-.5,4.86-1.06,7.31-1.52,2-.36,4-.64,6.07-1l3.22-.49c1.06-.16,2.13-.31,3.2-.45,4.48-.58,9-1,13.47-1.29,2.92-.16,5.83-.31,8.75-.37L550,616c1.35,0,2.7,0,4,0,2,.18,4.08.48,6.11.79s4,.58,6.07.86,4.28.53,6.41.88c1.93.32,3.85.71,5.77,1.1l-.1,0,.12,0h0l.2,0-.17,0a96.18,96.18,0,0,1,11.72,3.62l-.33-.11c2,.73,4.11,1.42,6.16,2.15l.85.3h0c1.57.56,3.15,1.12,4.71,1.73s3.3,1.33,5,2c3.45,1.31,6.95,2.48,10.43,3.71,2.24.8,4.46,1.66,6.71,2.43s4.78,1.66,7.22,2.29,5.06,1.21,7.61,1.71a49.17,49.17,0,0,0,6.92.94c1.16.06,2.31.11,3.46.11a2.65,2.65,0,0,0,.78.45q.42.24.81.51l.61.45c1,.73,1.92,1.48,2.91,2.18a38.28,38.28,0,0,0,3.5,2.16c2.27,1.3,4.49,2.68,6.69,4.08,1.09.69,2.17,1.37,3.23,2.08s2,1.42,3.08,2.09c2.19,1.41,4.48,2.65,6.64,4.11l1.59,1.13c1.11.8,2.21,1.62,3.35,2.37s2.32,1.49,3.46,2.26c2.22,1.47,4.41,3,6.64,4.44s4.28,2.85,6.42,4.29,4.13,2.55,6.13,3.92l-.11-.08.12.09,0,0c1.13.8,2.25,1.61,3.4,2.37,1,.67,2,1.3,3,1.94s2.15,1.29,3.22,1.94c.72.44,1.47.85,2.17,1.31.47.35.92.72,1.38,1.08a2.74,2.74,0,0,0,1.25.52c0,.25.07.51.1.76.11.87.22,1.74.28,2.62a25.44,25.44,0,0,1,0,2.62,57.67,57.67,0,0,1-1,6.67c-.44,2-.88,4.09-1.3,6.14-.34,1.57-.73,3.13-1.11,4.7s-.62,2.93-.91,4.41c-.07.26-.14.52-.22.78-.64,1.71-1.28,3.42-1.89,5.13a44,44,0,0,1-1.92,4.85c-.21.39-.43.78-.68,1.16l-.28.36-.34.32c-.34.26-.7.5-1,.75a17.42,17.42,0,0,0-1.43,1.14,16.59,16.59,0,0,0-2.35,2.6,28.71,28.71,0,0,0-3.56,6.29,20.52,20.52,0,0,0-1.34,6.94,23.46,23.46,0,0,0,.8,7.22,36.08,36.08,0,0,0,3.19,7.32,17.14,17.14,0,0,0,5.33,6,14.82,14.82,0,0,0,4,1.87,16.84,16.84,0,0,0,3.64.76c.46,0,.93,0,1.4,0a13.25,13.25,0,0,0,2.18-.16,9.63,9.63,0,0,0,4.45-1.56,2.54,2.54,0,0,0,.78-1,23,23,0,0,0,2.21,1.27,19.47,19.47,0,0,0,7,1.88c.71.07,1.41.12,2.11.12a11,11,0,0,0,2-.17,20.58,20.58,0,0,0,3.87-1.19,24.13,24.13,0,0,0,3.2-1.64,16.29,16.29,0,0,0,3.18-2.36,23.72,23.72,0,0,0,1.88-2.12,8.63,8.63,0,0,0,1.32-2.2c.23-.61.39-1.23.56-1.86.06-.22.11-.45.17-.67.26,0,.51,0,.78,0a12.1,12.1,0,0,0,1.47-.1,7.65,7.65,0,0,0,2.79-.84,17.57,17.57,0,0,0,5.42-4.58,16.8,16.8,0,0,0,1.86-2.67,24.85,24.85,0,0,0,1.36-3.4l0,.09c.28-.8.55-1.6.75-2.42a22.64,22.64,0,0,0,.5-2.85c.23-2,.37-4,.58-5.94s.48-3.92.58-5.89.16-3.81.27-5.71c.12-1.49.27-3,.52-4.43s.47-2.73.73-4.09a36.33,36.33,0,0,1,1.07-4c.7-1.92,1.49-3.8,2.11-5.75a76.24,76.24,0,0,0,1.86-7.62,43.78,43.78,0,0,0,1-7.89,48.71,48.71,0,0,0-.46-7.54,31.83,31.83,0,0,0-.7-3.9c-.35-1.31-.72-2.61-1.17-3.89a36.7,36.7,0,0,0-3.31-7,26.08,26.08,0,0,0-2.6-3.66,29.53,29.53,0,0,0-2.77-2.71A27.07,27.07,0,0,0,763,657a30.78,30.78,0,0,0-3.59-1.9c-2.27-1-4.53-2.06-6.75-3.2-1.08-.56-2.16-1.12-3.2-1.75s-1.95-1.28-2.91-1.94c-2-1.36-4.06-2.64-6.07-4l.28.2-.31-.21,0,0-.28-.21c-1.33-.93-2.6-1.95-3.9-2.92s-2.51-1.89-3.68-2.94a49.74,49.74,0,0,1-3.74-3.94c-2.22-2.68-4.13-5.61-6.22-8.39-1.07-1.42-2.14-2.84-3.26-4.23s-2.25-2.67-3.38-4c-1.25-1.54-2.32-3.2-3.49-4.8s-2.37-3.19-3.46-4.85c-.46-.77-.88-1.56-1.27-2.36a52.15,52.15,0,0,1-2-5.11c-.42-1.33-.8-2.67-1.09-4-.08-.46-.13-.92-.17-1.38l1,.47c2.33,1,4.74,1.85,7.15,2.69a23.46,23.46,0,0,1,2.25,1,83.37,83.37,0,0,1,7.18,4.38,67.38,67.38,0,0,1,5.78,4.6l5.4,4.88,0,0,0,0,.21.2-.17-.15c5.11,4.79,9.36,10.43,14.32,15.38a64.74,64.74,0,0,0,5.7,5c2,1.55,4,3.17,6.12,4.54s4.39,2.49,6.52,3.83,4.22,2.67,6.29,4.06c1.63,1.15,3.21,2.37,4.82,3.57s3.5,2.55,5.13,4a73.92,73.92,0,0,1,5.78,6,71.27,71.27,0,0,1,4.3,5.95,110.52,110.52,0,0,1,5.61,10.31c1,2.19,2,4.4,3,6.6.53,1.16,1.07,2.33,1.55,3.51s.91,2.47,1.32,3.72l-.1-.31c.85,2.64,1.76,5.27,2.42,8s1.14,5.19,1.64,7.81l-.06-.32c.32,1.7.61,3.4.92,5.1s.66,3.34.91,5c.53,3.53.73,7.1,1,10.66.11,2,.19,4,.1,6.06-.13,1.69-.34,3.36-.49,5a40.16,40.16,0,0,0,0,8.13,65.78,65.78,0,0,0,1.48,7.75c.59,2.48,1.14,5,1.86,7.43a43.59,43.59,0,0,0,2.93,7.11,50.83,50.83,0,0,0,4.11,6.63,28.21,28.21,0,0,0,5.51,5.62,14.07,14.07,0,0,0,1.59,1.16c.63.35,1.27.68,1.93,1a21,21,0,0,0,3.73,1.17,28.14,28.14,0,0,0,3.75.6c.73.07,1.45.12,2.18.17.23,0,.45,0,.68,0a16,16,0,0,0,1.69-.1,2.42,2.42,0,0,0,1.27-.54,2.67,2.67,0,0,0,.56.06,2.46,2.46,0,0,0,2.37-1.53q.28-.81.54-1.62a11.76,11.76,0,0,0,1.94,1,16.1,16.1,0,0,0,2.43.72,39.89,39.89,0,0,0,5.11.78c.56,0,1.12.09,1.69.09a7.67,7.67,0,0,0,1.35-.1,13.68,13.68,0,0,0,2.09-.55c.63-.2,1.25-.42,1.85-.67a11.34,11.34,0,0,0,1.89-1.07,10.08,10.08,0,0,0,2.66-2.55,11.46,11.46,0,0,0,1.65-4.9,12.88,12.88,0,0,0,.08-4.2,14.4,14.4,0,0,0-1.22-3.85,2.59,2.59,0,0,0,1.49-1.72,2.81,2.81,0,0,0,1.49-.67,8.15,8.15,0,0,0,1.47-1.83,21.58,21.58,0,0,0,1.54-2.89,12.4,12.4,0,0,0,1.1-3.91,1.09,1.09,0,0,0,0-.18,27.49,27.49,0,0,0,3.65,3.16,54,54,0,0,0,10.83,5.93q3.58,1.44,7.21,2.75c2.5.91,5.05,1.78,7.63,2.48a43.54,43.54,0,0,0,7.93,1.43c1.11.09,2.21.13,3.32.13a40.37,40.37,0,0,0,4.79-.28,24.89,24.89,0,0,0,3.94-.64,19,19,0,0,0,1.85-.6,13.18,13.18,0,0,0,1.55-.67l.36-.18a11.11,11.11,0,0,0,5.33-6.22A11.52,11.52,0,0,0,932.64,752.43ZM391.15,662.32c.84.79,1.6,1.66,2.45,2.45,1,1,2.18,1.8,3.24,2.74.49.48,1,1,1.45,1.46s.93.91,1.36,1.4c.69.83,1.38,1.64,2.08,2.46a46,46,0,0,1,2.79,4,19.77,19.77,0,0,1,1,1.79c.14.3.26.61.37.92,0,.14.08.29.11.43s0,.3.06.45,0,.37,0,.56-.05.4-.07.59l-.74.27a34.45,34.45,0,0,1-3.59.94c-2.16.4-4.33.71-6.5,1s-4.18.6-6.29.74-4.38.34-6.57.58c-2,.23-4,.52-6.05.65a58.83,58.83,0,0,1-6.77-.1c-1.58-.14-3.11-.45-4.66-.74-.91-.17-1.81-.3-2.72-.39s-1.78-.16-2.66-.31l-.15,0-.19-.09c-.71-.37-1.39-.79-2.09-1.18.55-.43,1.09-.87,1.65-1.29.9-.68,1.82-1.32,2.71-2s1.91-1.52,2.88-2.28,2.22-1.69,3.35-2.52a2.49,2.49,0,0,0,.72-.83,2.65,2.65,0,0,0,.78-.48c.34-.31.69-.61,1-.9a24.85,24.85,0,0,1,2.33-1.75c1.41-.89,2.83-1.73,4.21-2.66s2.74-1.82,4.1-2.74c2.69-1.85,8.14-4.47,9.06-4l.24.12.45.27C390.76,662,391,662.15,391.15,662.32Zm478.63,90.14c0,.3-.07.59-.12.88s-.16.57-.25.85c-.23.59-.49,1.17-.77,1.73-.12.23-.27.45-.4.68a2.51,2.51,0,0,0-4.4.87c-.5-.9-1-1.82-1.43-2.75-.13-.29-.26-.57-.38-.86a2.56,2.56,0,0,0-4.76,1.89,45.61,45.61,0,0,0,3,5.86c1,1.68,2.11,3.3,3,5,.12.29.24.57.34.86s.18.64.26,1,.08.61.11.92,0,.67,0,1c-.08.71-.19,1.4-.32,2.11-.09.36-.19.72-.3,1.07l-.06-.11a2.73,2.73,0,0,0-.39-.83,2.66,2.66,0,0,0-.61-.69,2.56,2.56,0,0,0-4.17,2,5.4,5.4,0,0,0,1,2.65c-.39.13-.79.25-1.19.34l-.35.05-.91,0a40.21,40.21,0,0,1-4.75-.67c-.54-.12-1.07-.25-1.59-.41-.31-.13-.62-.26-.92-.41-.55-.31-1.09-.64-1.61-1-.29-.21-.57-.45-.85-.67a24.87,24.87,0,0,0-.75-5.51,24.35,24.35,0,0,0-6.08-11.64l0,0-.57-.68.13.16a51.32,51.32,0,0,1-3.47-4.57l-.15-.26a2.59,2.59,0,0,0-2.54-2.46,3,3,0,0,0-.84.1,2.64,2.64,0,0,0-1.91,2.12c-.23,1.12.49,2.21,1,3.12.39.64.82,1.26,1.26,1.87.86,1.18,1.8,2.31,2.74,3.43l-.21-.25.56.67c.82,1,1.63,2,2.36,3,.33.54.64,1.09.94,1.66a28.53,28.53,0,0,1,1.2,3.11,31.65,31.65,0,0,1,.81,3.08c.11.69.18,1.39.24,2.1l-.15.19c-.08-.12-.18-.24-.27-.37a2.57,2.57,0,0,0-4.74,1.87,4.22,4.22,0,0,0,.77,1.39c.2.29.41.58.62.86s.7.85,1.08,1.25h-.07a38.64,38.64,0,0,1-4.14-.5,27.54,27.54,0,0,1-2.83-.78c-.49-.2-1-.41-1.46-.64l-.7-.43c-.87-.66-1.71-1.36-2.53-2.09s-1.38-1.34-2-2.07c-.93-1.2-1.78-2.48-2.62-3.76a49.4,49.4,0,0,1-2.51-4.57,42.21,42.21,0,0,1-1.67-4.06c-.57-1.83-1-3.7-1.45-5.57s-1-3.94-1.37-5.93a51,51,0,0,1-.75-5.35c0-1.37,0-2.73.06-4.1s.22-2.52.36-3.78a35.87,35.87,0,0,0,.31-4.14c0-2.67-.16-5.33-.35-8s-.38-5.39-.78-8.06c-.37-2.5-.89-5-1.33-7.46s-.95-5.2-1.5-7.78a78.67,78.67,0,0,0-2-7.74,81.26,81.26,0,0,0-2.64-7.75c-1.05-2.45-2.2-4.86-3.3-7.28A109.48,109.48,0,0,0,796.19,662a58.25,58.25,0,0,0-10-11.81c-1.05-1-2.11-1.87-3.23-2.73s-2-1.5-3-2.25c-2.13-1.61-4.25-3.24-6.5-4.68s-4.24-2.77-6.42-4.06c-1.06-.63-2.15-1.21-3.22-1.82s-1.83-1.12-2.72-1.73h0a94,94,0,0,1-8.42-6.73c-2.74-2.57-5.24-5.38-7.73-8.19s-5-5.69-7.71-8.26c-2-1.85-4-3.66-6-5.47a69.61,69.61,0,0,0-6.09-4.85c-1.13-.81-2.3-1.55-3.48-2.28s-2.26-1.41-3.43-2a26.45,26.45,0,0,0-3.58-1.67c-1.14-.42-2.29-.8-3.43-1.2a67,67,0,0,1-6.23-2.66c-.57-.31-1.13-.64-1.67-1-.91-.64-1.79-1.32-2.64-2.05s-1.73-1.52-2.63-2.25c-1.85-1.49-3.81-2.82-5.69-4.28-3.85-3-7.61-6.1-11.27-9.31-1.85-1.7-3.65-3.46-5.51-5.15s-3.91-3.48-5.84-5.25l-6.56-6.08c-1.2-1.11-2.38-2.24-3.54-3.41s-2-2.19-3-3.32c-1.2-1.51-2.38-3-3.44-4.66l-.08-.13a2.56,2.56,0,0,0-4.89,1.52,3.4,3.4,0,0,0,.49,1.1q.46.72.93,1.41c.74,1.1,1.56,2.16,2.39,3.19s1.84,2.27,2.84,3.34c1.83,1.94,3.76,3.76,5.72,5.57s4,3.7,6,5.54,4.12,3.69,6.17,5.55,4.24,4.08,6.48,6,4.75,4,7.16,5.91c1,.82,2,1.64,3.07,2.44s2.07,1.51,3.1,2.27c2.09,1.54,4,3.32,6,4.94l.67.52a26.62,26.62,0,0,0,.46,6,49.19,49.19,0,0,0,2.39,7.47,34.09,34.09,0,0,0,3.47,6.5c1.42,2,2.9,4,4.31,6,.73,1,1.48,2,2.3,3s1.49,1.72,2.22,2.59c2.35,2.87,4.56,5.84,6.72,8.85a68.52,68.52,0,0,0,4.62,6,40.28,40.28,0,0,0,5.39,5.14c2,1.59,4.08,3.17,6.19,4.65l.24.17h0l.15.1-.15-.1h0c1.71,1.19,3.51,2.28,5.25,3.45s3.22,2.25,4.94,3.21,3.74,2,5.66,2.9,3.59,1.61,5.35,2.49q1,.56,2,1.2,1.35,1,2.61,2.1c.57.55,1.13,1.12,1.67,1.71s1.08,1.43,1.58,2.19c.76,1.24,1.45,2.49,2.08,3.79a37,37,0,0,1,1.49,3.83c.36,1.17.71,2.35,1,3.55a51.46,51.46,0,0,1,.7,5.94,45.78,45.78,0,0,1,0,4.83A49.27,49.27,0,0,1,771,695a68.13,68.13,0,0,1-2,7.75c-.71,1.94-1.51,3.85-2.13,5.81a47.08,47.08,0,0,0-1.4,6.2,62.53,62.53,0,0,0-.87,7c-.13,2.17-.18,4.33-.32,6.5s-.47,4.12-.65,6.19-.34,4-.69,6a23,23,0,0,1-.7,2.38l.05-.11-.06.15,0,.09h0a.64.64,0,0,0,0,.07,0,0,0,0,1,0,0,23.43,23.43,0,0,1-.91,2.33c-.18.33-.39.65-.6,1-.47.64-1,1.24-1.48,1.83-.4.42-.81.82-1.24,1.21s-.69.53-1.06.77-.68.42-1,.6l-.2.08-.23.06c-.34.05-.69.09-1,.12H754l-.34,0-.52-.14c-.34-.14-.68-.28-1-.44s-.79-.49-1.18-.75c-.91-.65-1.8-1.31-2.68-2s-1.58-1.18-2.32-1.82c-.27-.27-.52-.53-.78-.81s-.52-.68-.77-1c-.1-.17-.2-.35-.29-.53-.17-.38-.33-.77-.47-1.16-.17-.59-.31-1.18-.44-1.77a35.22,35.22,0,0,1-.5-4.08,2.58,2.58,0,0,0-2.85-2.24,2.62,2.62,0,0,0-1.69.94,2.7,2.7,0,0,0-.55,1.92,31,31,0,0,0,.47,3.84,17.72,17.72,0,0,0,1.2,4.3,13.81,13.81,0,0,0,3,4.17,39.12,39.12,0,0,0,3.7,2.94c.84.63,1.69,1.27,2.57,1.84a1.52,1.52,0,0,0,0,.21c0,.18,0,.35,0,.53s0,.08,0,.12c-.12.52-.26,1.06-.42,1.57l-.15.35-.18.29c-.38.51-.78,1-1.2,1.48s-.7.72-1.09,1.06-.66.5-1,.74c-.78.48-1.57.93-2.38,1.34a20.15,20.15,0,0,1-2.07.81c-.52.17-1,.32-1.56.45l-.65.08c-.51,0-1,0-1.52,0a25.44,25.44,0,0,1-2.76-.38,15.46,15.46,0,0,1-1.77-.49c-.53-.21-1-.45-1.56-.7s-1.14-.64-1.68-1c-.78-.57-1.52-1.19-2.24-1.83a22.91,22.91,0,0,1-1.62-1.65c-.35-.43-.67-.88-1-1.34s-.65-1.13-1-1.72c-.53-1.16-1-2.34-1.46-3.53-.29-1-.51-2-.7-2.95-.07-.48-.13-1-.17-1.45,0-.94,0-1.89,0-2.83a2.56,2.56,0,1,0-5.12,0c0,.72,0,1.44,0,2.16a22.15,22.15,0,0,0,.39,3.64,29.43,29.43,0,0,0,2.52,7.29,18.86,18.86,0,0,0,4,5.53l.07.06-.13.09-.43.17c-.31.09-.62.17-.94.23-.5.09-1,.15-1.49.2s-.79,0-1.18,0a14.58,14.58,0,0,1-1.59-.25c-.69-.16-1.37-.34-2.05-.57-.36-.14-.72-.29-1.07-.46s-.63-.37-.93-.57-.66-.52-1-.79c-.47-.45-.9-.91-1.32-1.39s-.56-.73-.82-1.11c-.65-1.09-1.24-2.23-1.79-3.38-.45-1-.88-2-1.25-3-.22-.73-.4-1.45-.56-2.2s-.22-1.42-.29-2.14c0-1,0-2,.05-3.06.09-.86.22-1.71.39-2.56.12-.48.25-1,.41-1.41.29-.72.62-1.42,1-2.12a27.23,27.23,0,0,1,1.61-2.71c.47-.62.95-1.22,1.46-1.8.3-.32.61-.62.94-.91.74-.57,1.55-1.06,2.25-1.69a8.89,8.89,0,0,0,1.67-2,25.22,25.22,0,0,0,2.28-5c.67-1.86,1.33-3.74,2-5.59a18.48,18.48,0,0,0,.93-2.9c.16-.79.29-1.58.45-2.37.31-1.42.7-2.83,1-4.25.38-1.63.7-3.27,1-4.91l0,.11,0-.12,0-.15,0,.13c.27-1.24.57-2.47.82-3.72s.47-2.56.66-3.85a34.52,34.52,0,0,0,.42-3.92,41.85,41.85,0,0,0-.51-6.9c-.28-2.25-.9-4.42-1.39-6.62-.28-1.22-.51-2.46-.82-3.68s-.84-2.72-2.26-3.06a2.59,2.59,0,0,0-3.16,1.78,2.66,2.66,0,0,0,.31,2.06c.37,1.27.61,2.57.9,3.87l-1.8-1.09c-2-1.21-4.06-2.46-6-3.8l0,0,0,0-.24-.17.23.16h0c-1-.72-2-1.46-3.06-2.15s-2.14-1.32-3.2-2c-2.07-1.31-4.07-2.72-6.1-4.08-2.23-1.5-4.5-2.94-6.73-4.45-1.12-.76-2.23-1.52-3.37-2.26s-2.27-1.45-3.37-2.21l.28.19c-.26-.17-.51-.35-.76-.53-2.14-1.52-4.25-3.12-6.53-4.45-1.1-.65-2.22-1.28-3.29-2s-2.23-1.49-3.34-2.24c-2.1-1.44-4.27-2.79-6.44-4.12-1.07-.67-2.15-1.33-3.24-1.95s-2.31-1.3-3.42-2l-.91-.67a36.78,36.78,0,0,0,4.38-1.44,22.15,22.15,0,0,0,6.61-3.86,26.19,26.19,0,0,0,5.13-5.84,2.53,2.53,0,0,0,.32-1.69,6.23,6.23,0,0,0,.62-.51,14.09,14.09,0,0,0,2.59-3.22,8.16,8.16,0,0,0,1-3.78,12.36,12.36,0,0,0-.45-3.42,14.49,14.49,0,0,0-1.34-3.66,21.26,21.26,0,0,0-2.09-3,32.36,32.36,0,0,0-2.47-2.77,19.23,19.23,0,0,0-2.83-2.34,5.8,5.8,0,0,0-2.17-1h-.06a8.37,8.37,0,0,0,.44-3q0-1.59-.15-3.18a11.77,11.77,0,0,0-.43-2.51,16,16,0,0,0-4-6.24,27.5,27.5,0,0,0-2.55-2.28,29.14,29.14,0,0,0-2.94-2.11,26,26,0,0,0-3-1.7c-1-.45-2.07-.81-3.09-1.21a50.07,50.07,0,0,0-7-2.14c-2.41-.56-4.79-1.29-7.2-1.84a57.54,57.54,0,0,0-7.82-1.33c-2.45-.22-4.9-.4-7.36-.56a54.7,54.7,0,0,1-6-.79c-2.13-.49-4.17-1.24-6.25-1.87s-4.11-1.26-6.14-2-4.32-1.48-6.51-2.1-4.35-1.18-6.48-1.91c-1.6-.59-3.15-1.29-4.71-2s-3.29-1.43-4.92-2.18c-.84-.39-1.68-.79-2.51-1.22l-.24-.11-.13-.07-.22-.12.31.16L574,559.4a1.24,1.24,0,0,1-.2-.1l-.05,0h0c-3.06-1.59-6-3.37-9-5.15-1.44-.87-2.9-1.69-4.32-2.6s-2.81-1.82-4.25-2.69a45.53,45.53,0,0,0-6.5-3.38c-2.41-1-4.89-1.72-7.38-2.45-1.27-.37-2.56-.72-3.85-1s-2.58-.57-3.85-.93-2.51-.8-3.79-1.07a13.14,13.14,0,0,0-2.58-.2,2.56,2.56,0,1,0,0,5.12h1.07l.62.1c1.38.36,2.73.81,4.1,1.17s2.84.64,4.24,1c2.74.71,5.46,1.52,8.12,2.46a38.74,38.74,0,0,1,3.86,1.67c1.88,1,3.71,2.08,5.5,3.23.89.57,1.77,1.17,2.68,1.73s1.95,1.16,2.93,1.74c2,1.23,4.07,2.5,6.15,3.67s4.12,2.22,6.2,3.29l.16.08,0,0h0l.18.1.08,0,.23.12.23.12.55.28c.53.27,1.08.54,1.62.79,1.05.49,2.1,1,3.15,1.43,2.12.93,4.22,1.93,6.38,2.76s4.65,1.5,7,2.17c2.52.72,5,1.5,7.47,2.37s4.71,1.53,7.08,2.27c1.2.37,2.38.77,3.57,1.13a28.22,28.22,0,0,0,3.86.83c1.25.18,2.52.36,3.78.48s2.49.17,3.74.26h0c1.61.12,3.22.23,4.82.4,1.78.19,3.54.49,5.29.84l-.13,0,.19,0h0c2.43.52,4.8,1.21,7.2,1.81,1.24.31,2.48.57,3.71.92s2.19.67,3.27,1l2,.77c.73.28,1.46.54,2.16.88.95.51,1.88,1.06,2.77,1.65a36.18,36.18,0,0,1,3.06,2.46c.6.58,1.18,1.18,1.72,1.81.26.33.51.66.74,1s.45.77.64,1.17.23.53.32.8a3,3,0,0,1,.12.45c.11.73.17,1.47.21,2.2a22.84,22.84,0,0,1,0,2.34l0,.26-.06.18a2.43,2.43,0,0,1-.16.37,9.52,9.52,0,0,1-.52.87c-.36.48-.73,1-1.13,1.4s-.68.67-1,1a35.47,35.47,0,0,1-3,2.36c-.35.21-.7.4-1.07.58s-1.06.46-1.6.66-1,.28-1.59.4c-1.42.24-2.84.39-4.28.49-1.11,0-2.21.08-3.32,0-.4,0-.78-.1-1.17-.17-3.12-.71-6.07-1.94-9.13-2.81a2.56,2.56,0,1,0-1.37,4.93c1.81.52,3.59,1.18,5.39,1.76a27,27,0,0,0,5.38,1.34,17.38,17.38,0,0,0,2,.11c.71,0,1.41,0,2.11-.07a38.93,38.93,0,0,0,4-.37,18.94,18.94,0,0,0,7.11-2.42,25,25,0,0,0,3-2.31,23,23,0,0,0,2.51-2.32l0-.06a2.88,2.88,0,0,0,.3.39,2.92,2.92,0,0,0,1.24.74l.16,0,.45.29c.44.32.86.66,1.27,1a28.45,28.45,0,0,1,2.13,2.26c.64.78,1.25,1.57,1.81,2.4.16.26.31.51.45.78s.26.64.37,1c.2.66.36,1.32.5,2a6.66,6.66,0,0,1,.11.78c0,.17,0,.34,0,.52s-.05.46-.09.69l-.09.32-.06.13-.28.45c-.31.43-.63.84-1,1.24-.17.17-.34.34-.52.5l-.57.4c-.44.26-.89.5-1.35.73s-.93.39-1.4.56c-.81.24-1.62.41-2.44.57l-3.66.68a38.64,38.64,0,0,1-4.54.6c-.48,0-1,0-1.45,0l-.26,0-.12,0-.4-.2a2.56,2.56,0,1,0-2,4.7,6.77,6.77,0,0,0,2.75.69c.27,0,.53,0,.8,0h.23c.77,0,1.53-.07,2.29-.14,1.41-.15,2.8-.41,4.19-.67l-.32.06,2.89-.52c-.29.27-.57.54-.87.8s-.75.55-1.14.81c-.66.41-1.35.79-2,1.14a38.22,38.22,0,0,1-3.67,1.44c-1.1.34-2.2.63-3.32.87s-2,.3-3,.37c-1.85.06-3.7,0-5.54-.15a54.28,54.28,0,0,1-6.72-1.05l.33.07c-2.45-.52-4.91-1-7.32-1.72s-4.75-1.49-7.09-2.32l.33.12c-2.23-.81-4.45-1.64-6.68-2.43-2-.72-4.08-1.41-6.12-2.13-2.28-.82-4.52-1.71-6.78-2.6s-4.32-1.64-6.5-2.42c-1.83-.65-3.66-1.28-5.49-1.91l-4-1.4c-2.37-.82-4.73-1.66-7.16-2.27s-5-1.09-7.56-1.53-5.26-.76-7.9-1.12-5-.75-7.57-1.09c-1.29-.17-2.58-.35-3.87-.46s-2.56-.12-3.84-.11c-2.54,0-5.07,0-7.6.15-5.41.21-10.82.48-16.2,1.1q-7.82.91-15.58,2.2c-2.58.42-5.14,1-7.7,1.54-2.36.51-4.73,1-7.09,1.42a102,102,0,0,1-12.19,1.5c-1.37.07-2.74.14-4.12.19s-2.8,0-4.2-.09c-1.12-.1-2.23-.24-3.34-.45-.8-.19-1.6-.41-2.38-.66-.6-.23-1.18-.48-1.75-.76s-.91-.51-1.34-.8-.57-.43-.84-.65-.49-.49-.72-.75-.5-.67-.74-1-.58-1-.84-1.47c-.14-.31-.27-.62-.38-.94s-.11-.38-.15-.57-.07-.5-.09-.75,0-.79,0-1.19c.07-.67.17-1.32.3-2s.38-1.51.62-2.26.68-1.69,1.08-2.5c.24-.43.48-.84.74-1.24a2.56,2.56,0,0,1,.2-.26l.13-.12-.07.06a2.56,2.56,0,0,0-3.11-4.06,11.37,11.37,0,0,0-2.75,3.91,20.33,20.33,0,0,0-1.73,4.85c-.58,2.72-.93,5.63.16,8.27.22.52.46,1,.72,1.52-4.35.4-8.59,1.62-12.87,2.44-1.81.31-3.62.53-5.44.73-2.17.23-4.33.5-6.5.74-2.66.3-5.34.45-8,.7s-5.08.63-7.6,1l-7.93,1.22c-2.56.4-5.12.78-7.7,1-1.33,0-2.66.07-4,0-.33,0-.65-.07-1-.12l-.22-.06c0-.3,0-.61,0-.91,0-1.23,0-2.46,0-3.68s.07-2.48.16-3.71.2-2.37.18-3.55a19.29,19.29,0,0,0-1.93-7.84,33.89,33.89,0,0,0-2.1-3.2c-.17-.29-.34-.57-.49-.87l0-.12s0-.09,0-.14,0-.11,0-.17c0-.91,0-1.82-.07-2.73a14.23,14.23,0,0,0-.49-3.62,5.55,5.55,0,0,0-1.83-2.89,4.75,4.75,0,0,0-2.72-.81,27.24,27.24,0,0,0-2.86.08l.33,0c-.48,0-.95,0-1.43,0l-.36,0-.16,0,0,0a6.16,6.16,0,0,1-.55-.33c-.49-.36-1-.73-1.42-1.13-1.23-1.19-2.24-2.57-3.44-3.79-1.35-1.38-2.89-2.55-4.33-3.84-.81-.77-1.6-1.56-2.41-2.33s-1.5-1.37-2.25-2.05-1.71-1.64-2.59-2.44a22.05,22.05,0,0,0-3-2.23c-2-1.26-4.15-2.19-6.09-3.51l-.24-.19h0a2.56,2.56,0,0,0-3.47,3.76,8.81,8.81,0,0,0,1.49,1.1c.61.4,1.25.76,1.89,1.11,1.4.75,2.79,1.49,4.12,2.34a25.68,25.68,0,0,1,2.23,1.79c1.2,1.12,2.39,2.24,3.6,3.34s2.2,2.14,3.34,3.18,2.16,1.83,3.21,2.77c1.67,1.6,3,3.49,4.76,5a10.14,10.14,0,0,0,4.09,2.44,12.49,12.49,0,0,0,3.86.11c.43,0,.86,0,1.29,0,0,.14.07.27.1.41.1.65.16,1.29.21,2s0,1.08,0,1.62a8.45,8.45,0,0,0,.36,3,17.79,17.79,0,0,0,2.43,4c.19.3.36.59.52.9.24.55.45,1.1.65,1.66s.34,1.26.48,1.91c.08.47.14.94.18,1.42,0,1.61-.14,3.22-.24,4.83s-.11,3.17-.08,4.75c0,3.27.13,6.54-.08,9.81a79.07,79.07,0,0,1-1.22,8.52h0v0a.08.08,0,0,1,0,0s0,.06,0,.09c-.31,1.34-.62,2.68-1,4s-.84,2.71-1.31,4a46,46,0,0,1-1.91,4.46,26.36,26.36,0,0,1-1.36,2.28c-.23.3-.46.6-.7.88a54.14,54.14,0,0,1-4.74,4.48,50,50,0,0,1-4.29,3.22c-1.53,1-3,2.06-4.57,3.06-1.18.74-2.4,1.41-3.54,2.21a38.23,38.23,0,0,0-3.35,2.72,2.27,2.27,0,0,0-.47.61,3.06,3.06,0,0,0-.53.29L363,671.82c-1.93,1.43-3.75,3-5.7,4.41s-3.66,2.88-5.54,4.26-3.46,2.59-5.27,3.78-3.85,2.64-5.8,3.92c-1.17.73-2.36,1.39-3.59,2s-2.45,1.31-3.71,1.9a100,100,0,0,1-9.89,4.19,58.28,58.28,0,0,1-6.13,1.5,43,43,0,0,1-4.51.55c-2.38.13-4.77.27-7.15.29s-4.78,0-7.17,0c-4.87,0-9.75,0-14.61-.35-2.15-.17-4.3-.41-6.45-.59s-4.44-.36-6.66-.64c-1.07-.13-2.13-.27-3.19-.45l-1.77-.33h-.09l-.23,0h-.14l-.18,0a67.1,67.1,0,0,1-7.6-2c-1.53-.55-3.07-1.07-4.61-1.61-1.29-.47-2.54-1-3.81-1.54s-2.69-.93-4-1.39-2.58-1-3.85-1.54-2.39-1-3.56-1.61c-1.6-.86-3.19-1.75-4.71-2.75-.91-.65-1.79-1.36-2.64-2.1s-1.55-1.62-2.34-2.42c-.55-.55-1.1-1.11-1.63-1.69a7.17,7.17,0,0,0-3.22-2.49,6.79,6.79,0,0,0-4,.79q-.48.38-1,.72c-.68.4-1.37.77-2.08,1.11-1.73.78-3.53,1.4-5.27,2.14s-3.21,1.49-4.81,2.25-3.25,1.38-4.89,2-3.41,1.28-5.13,1.87-3.59,1.33-5.34,2.09-3.26,1.61-5,2.2c-.84.25-1.68.47-2.54.64a36.14,36.14,0,0,1-4,.44c-3.5.16-7,.16-10.5.25-2.92.08-5.82.07-8.75-.14h-.24c-.5,0-11.05-3.54-11.95-3.85l-1-.4c-.23-.13-.45-.27-.67-.41l-.52-.42,0,0v0a17.31,17.31,0,0,1,.53-1.87c.35-.93.79-1.83,1.2-2.73a23.42,23.42,0,0,0,1.18-3.32c.5-1.82.95-3.66,1.56-5.45a124.9,124.9,0,0,1,5.76-13.22c.66-1.22,1.37-2.41,2-3.63s1.39-2.74,2.08-4.11c.61-1.14,1.28-2.26,1.85-3.42s1-2.18,1.56-3.27,1-2.13,1.47-3.24c.37-1,.76-1.91,1.21-2.84s.9-1.81,1.36-2.71c.33-.63.66-1.26,1-1.9a13.91,13.91,0,0,0,.59-1.56c.07-.2,1.68-1.49,2.22-2a5.34,5.34,0,0,0,1.44-2.47,6.22,6.22,0,0,0,0-2.47c-.27-1.78-.68-3.53-1-5.3a40.08,40.08,0,0,1-.55-4.21,50.14,50.14,0,0,1,.14-5.88,41.21,41.21,0,0,1,.65-4.83c.47-2.11,1.15-4.15,1.83-6.21s1.4-4.4,2.15-6.57c.6-1.54,1.3-3,2-4.5a49.78,49.78,0,0,1,2.72-4.47c1.21-1.68,2.4-3.36,3.57-5.07.92-1.31,1.82-2.62,2.61-4,.92-1.61,1.84-3.21,2.72-4.83,1.6-3,3-6,4.51-9a67.16,67.16,0,0,1,4.38-7.23,36.23,36.23,0,0,1,2.4-3.11c1.36-1.43,2.84-2.77,4.32-4.06.45-.36.91-.7,1.39-1a58.75,58.75,0,0,0,6.41-4.3c1.88-1.52,3.72-3.11,5.74-4.44l.27-.16h0a2.64,2.64,0,0,0,1.06-.46,2.58,2.58,0,0,0,.54-3.58,2.64,2.64,0,0,0-3-.87,10.16,10.16,0,0,0-3,1.72c-.86.64-1.71,1.28-2.54,2s-1.87,1.56-2.84,2.29-2,1.41-3,2.07-2.36,1.36-3.43,2.18-2,1.71-3,2.6l-.59.56c.6-2.06,1.16-4.12,1.72-6.19,1.15-4.3,2.21-8.64,3.39-12.94,1.44-5.23,3-10.42,4.42-15.67.71-2.65,1.35-5.32,2.08-8s1.5-5.05,2.37-7.54c.47-1.3,1-2.57,1.54-3.83.22-.41.45-.82.7-1.22l.39-.48.63-.59c1.14-.92,2.35-1.76,3.56-2.59a57.37,57.37,0,0,1,5.43-3c1.64-.73,3.29-1.41,4.89-2.22,1.39-.7,2.72-1.52,4.12-2.22l.14-.06h0a2.58,2.58,0,0,0,2.27-2.52c0-.76-.78-2.79-.69-3.22a29.23,29.23,0,0,1,1-3.31c.18-.49.38-1,.61-1.46,1.19-2.2,2.58-4.31,3.9-6.43s2.56-4,3.91-6a91.77,91.77,0,0,1,6.61-8.35c2.38-2.57,4.85-5,7.26-7.59s4.43-4.93,6.93-7.11a56.83,56.83,0,0,1,5.17-3.67c1.91-1.2,3.85-2.32,5.85-3.38,1.73-.91,3.46-1.85,5.23-2.7a53.28,53.28,0,0,1,5.07-1.91c1.55-.49,3.1-1,4.66-1.44,3.83-1.16,7.67-2.27,11.48-3.44,2-.63,4.06-1.35,6.06-2.12,1.07-.41,2.14-.83,3.22-1.23s1.87-.66,2.79-1a62.77,62.77,0,0,0,10.7-5.71,56,56,0,0,0,4.57-3.37c1.52-1.26,3-2.57,4.49-3.85,3.61-3,7.38-5.78,11.11-8.61,3.95-3,8-5.95,12.12-8.66,3.67-2.31,7.46-4.43,11-6.87,3.38-2.32,6.71-4.73,10.14-7,1.81-1.14,3.66-2.23,5.55-3.24,1.69-.9,3.42-1.75,5.13-2.62,3.8-1.94,7.6-3.9,11.45-5.75a210.83,210.83,0,0,1,22-8.06q4.68-1.49,9.49-2.51a55.89,55.89,0,0,1,6-.79,89.9,89.9,0,0,1,9.85.17c2.07.17,4.14.37,6.22.53s3.93.24,5.9.37c4.82.37,9.59,1.07,14.35,1.89s9.55,1.5,14.29,2.44c2.85.6,5.7,1.2,8.58,1.67s5.51.89,8.26,1.44c3.73.82,7.46,1.69,11.16,2.66s7.42,1.74,11.15,2.52c2.4.51,4.8,1.06,7.19,1.63s5,1.1,7.45,1.59a122.35,122.35,0,0,1,13.39,3.7c2.24.8,4.43,1.74,6.71,2.45q5.61,1.75,11.3,3.26c1,.28,2.06.52,3.1.74l.15,0h.05a2.33,2.33,0,0,0,.36.08c.92.2,1.85.38,2.78.56q2.68.54,5.4,1c3.68.63,7.34,1.25,11,2,1.37.29,2.75.61,4.12.92,1.54.35,3.08.68,4.61,1.07,1.34.35,2.67.75,4,1.07s2.65.6,4,.87c2.87.58,5.73,1.16,8.63,1.51,1.57.19,3.13.37,4.69.6,1.32.2,2.64.46,4,.73l.34.07-.24,0c1.49.32,2.95.71,4.41,1.12s2.91.77,4.36,1.19c1.64.47,3.28,1,4.94,1.39,1.25.33,8.73,1.48,9,1.52,2.09.49,4.14,1.13,6.23,1.68s4,1.1,6,1.77c2.95,1.15,5.85,2.42,8.8,3.58s5.63,2.27,8.43,3.44c5.48,2.29,11,4.64,16.27,7.27,2.74,1.43,5.38,3,8,4.62,2.45,1.51,4.86,3.06,7.22,4.7,1.27.92,2.52,1.85,3.72,2.84s2.63,2.2,4,3.29,2.66,2.1,4,3.19,2.31,2,3.44,3c2.68,2.55,5.21,5.22,7.63,8,3,3.62,5.69,7.42,8.4,11.24q3.87,5.46,7.55,11.08v0c.12.2.24.4.37.59l.24.36c.23.45.55.87.8,1.28,1.45,2.42,2.81,4.87,4,7.41.87,1.91,1.65,3.85,2.37,5.83s1.34,3.91,2,5.86c1.3,3.84,2.61,7.67,3.87,11.52.82,2.59,1.63,5.18,2.37,7.79s1.24,5,1.72,7.49l-.06-.32c.57,3.07,1.15,6.17,1.43,9.29s.42,6.14.6,9.2v0a.86.86,0,0,1,0,.15v.19a.41.41,0,0,0,0-.11c.19,3.8.22,7.6.62,11.38.19,1.76.46,3.51.71,5.26s.51,3.6.88,5.38a43.86,43.86,0,0,0,3.4,10c1.61,3.37,3.2,6.76,5,10,.93,1.66,1.91,3.28,2.87,4.93s1.84,3.22,2.76,4.83c1.83,3.19,3.72,6.35,5.85,9.34s4.43,5.78,6.7,8.63a98.77,98.77,0,0,0,6.53,7.63,79.63,79.63,0,0,0,8,7.08c2.61,2,5.29,4,7.74,6.17.71.67,1.4,1.37,2,2.1.91,1.13,1.71,2.33,2.5,3.54a59.89,59.89,0,0,1,3.12,5.59c.81,1.77,1.52,3.57,2.16,5.4s1.25,3.82,2,5.69c.78,2,1.54,4.08,2.39,6.1.77,1.85,1.65,3.66,2.51,5.47l0,0,0,.06h0l0,.05a1.54,1.54,0,0,0,.08.19l-.06-.14a121.41,121.41,0,0,1,5,12.58.14.14,0,0,0,0,.06v.06l0,0c.33,1.05.66,2.09.92,3.15s.51,2.28.77,3.42q.84,3.51,1.51,7.06c.44,2.27.93,4.53,1.38,6.8s1,4.37,1.39,6.57h0c.28,1.57.41,3.16.7,4.73a37.08,37.08,0,0,0,1,4.17c.77,2.57,1.64,5.1,2.49,7.65a31,31,0,0,1,.93,3.77c.3,1.64.55,3.29.72,4.95a38.64,38.64,0,0,0,.75,4.66,27.75,27.75,0,0,0,1.35,4.67c.61,1.47,1.31,2.9,2,4.33.54,1.16,1,2.34,1.57,3.5s1,2.21,1.58,3.31a16.42,16.42,0,0,1,.77,1.9l-.1-.31c.3.93.62,1.86,1,2.77.28.71.58,1.4.83,2.12.14.45.25.9.35,1.35.28,1.7.42,3.42.53,5.12S869.84,750.64,869.78,752.46Zm58.79,5.2c0,.2-.05.39-.08.59s-.12.49-.2.74l-.21.47-.29.49c-.17.23-.35.45-.54.68s-.47.46-.71.69l-.44.34-.71.4-.09,0-.13.06-.09,0c-.56.24-1.12.46-1.7.66l-1.08.27a44.26,44.26,0,0,1-4.43.54c-1.48.08-3,.12-4.43.06a53.91,53.91,0,0,1-5.36-.73,81.72,81.72,0,0,1-9.57-2.89l0,0,0,0-.24-.08.16.05a101.94,101.94,0,0,1-11.2-4.58c-1.77-1-3.51-2-5.18-3.12a26.74,26.74,0,0,1-2.45-1.94,33.56,33.56,0,0,1-2.5-2.56c-.82-1-1.58-2.08-2.33-3.15a1.49,1.49,0,0,0-.12-.14c-.09-1-.19-2-.33-2.93a16.81,16.81,0,0,0-1-3.7c-.48-1.2-1-2.38-1.37-3.6,0,0,0,.07,0,.11a24.12,24.12,0,0,0-1.08-2.7l-1.2-2.5c-.5-1.07-1-2.14-1.45-3.22s-.88-1.88-1.33-2.81c-.5-1.08-1-2.16-1.37-3.28-.42-1.39-.75-2.8-1-4.22s-.33-2.62-.5-3.94c-.18-1.5-.42-3-.71-4.46a32.74,32.74,0,0,0-1.05-4.15c-.41-1.22-.83-2.43-1.23-3.65h0l0,0a.14.14,0,0,0,0-.07c-.38-1.18-.76-2.36-1.12-3.55a37.7,37.7,0,0,1-.89-3.78c-.18-1-.3-2-.44-3.09s-.33-2-.55-3.07c-.39-1.84-.81-3.67-1.18-5.52-.2-1-.41-2.05-.63-3.08.92,1.3,1.86,2.59,2.84,3.85,1.69,2.15,3.44,4.28,5.27,6.31s3.68,3.84,5.5,5.78,3.46,3.83,5.12,5.81c1.37,1.64,2.74,3.29,4.12,4.93l-.12-.15c1.75,2.1,3.49,4.22,5.33,6.27s3.62,3.7,5.53,5.45l.33.29c.18.19.38.36.57.54l1.17,1.07,2.52,2.29c3.32,3,6.7,5.86,10,8.83,1.92,1.8,3.72,3.7,5.68,5.46s4,3.54,6,5.33l0,0a78.38,78.38,0,0,1,6.3,6.59,62.67,62.67,0,0,1,4,5.42c.43.69.84,1.39,1.21,2.12.22.49.41,1,.59,1.49s.26.89.36,1.35c0,.25.07.49.09.74S928.58,757.47,928.57,757.66Z"/><path d="M147.4,174.07c1-.47,2.09-.91,3.15-1.3.33-.09.65-.19,1-.27s.47-.07.71-.09h.19l.16.17a5,5,0,0,1,.3.45c.11.17.2.35.3.53s.2.5.29.76a16.31,16.31,0,0,1,.42,1.67c.09.61.16,1.21.22,1.82,0,1.29,0,2.57,0,3.86A63.56,63.56,0,0,1,153,189a.83.83,0,0,0,0-.15c0,.07,0,.14,0,.21l0,.1a166.4,166.4,0,0,1-5.44,19c-.42,1.14-.85,2.27-1.36,3.39a4,4,0,0,0,2.05,5.17,3.79,3.79,0,0,0,1.53.32,4,4,0,0,0,3.64-2.37,75,75,0,0,0,3.25-9c.92-2.93,1.86-5.88,2.6-8.86,1.35-5.55,2.74-11.15,2.78-16.9,0-3.82-.45-7.86-2.57-11.14a8.2,8.2,0,0,0-7.09-4.15,19.22,19.22,0,0,0-7.27,2c-1.93.86-3.81,1.83-5.66,2.84-.19.1-.36.22-.55.32-1.53-5.73-3.08-11.45-4.21-17.28-.3-1.94-.55-3.86-.69-5.81,0-.44,0-.88,0-1.32a4.08,4.08,0,0,0,.14-1,4,4,0,0,0-3.9-4,4.06,4.06,0,0,0-4,3.46,22.89,22.89,0,0,0,0,5.1,48.54,48.54,0,0,0,1.15,7.39c1.13,5.16,2.49,10.27,3.85,15.38a4,4,0,0,0,1.11,1.85c-1.32.8-2.64,1.61-3.94,2.42-3.19,2-6.34,4-9.5,6-.64-1.53-1.25-3.07-1.79-4.64-.07-.26-.15-.52-.23-.78a3.51,3.51,0,0,0-.47-2.34,3.94,3.94,0,0,0-1.49-1.54,4.06,4.06,0,0,0-3.94-.08,4,4,0,0,0-2,2.9,10.63,10.63,0,0,0,1,5.22c.32.85.62,1.71,1,2.55.5,1.2,1,2.39,1.53,3.59a4.13,4.13,0,0,0-.64,2.13,4.44,4.44,0,0,0,2.85,4.15,5.25,5.25,0,0,0,.63.22c.85,1.92,1.71,3.84,2.54,5.77a4,4,0,0,0,3.68,2.48,3.93,3.93,0,0,0,3.64-5.38c-1-2.33-2-4.65-3.06-7,4.09-2.59,8.18-5.19,12.3-7.74A144.18,144.18,0,0,1,147.4,174.07Z"/><path d="M160.81,278.58c1-1.68,2-3.39,2.92-5.11a125.94,125.94,0,0,0,5.79-11.56,55.79,55.79,0,0,0,2-5.26,31.29,31.29,0,0,0,1-3.95,18.87,18.87,0,0,0,.35-3.74,11.67,11.67,0,0,0-2.3-7.05A6.31,6.31,0,0,0,168.1,240a9.85,9.85,0,0,0-1.58-.55,8.38,8.38,0,0,0-1.73-.16c-2-.06-4,1-5.8,1.82-.92.42-1.82.9-2.71,1.38-1.78,1-3.51,2.06-5.22,3.16-2.45,1.56-4.75,3.31-7.08,5a3.83,3.83,0,0,0-3.48,1,12.21,12.21,0,0,0-3.11,3.94,4,4,0,0,0,.17,3.47,3.9,3.9,0,0,0,2.89,2,5.32,5.32,0,0,0,1.78-.07,7.25,7.25,0,0,0,1.91-.85c.82-.5,1.6-1.05,2.38-1.62l2.93-2.17c1.9-1.39,3.8-2.75,5.75-4.06,2.25-1.43,4.53-2.79,6.91-4,.84-.39,1.68-.76,2.54-1.09h0l.09.25c0,.14.08.28.11.41s.07.48.09.72c0,.43,0,.85,0,1.28q-.1,1-.3,2c-.26,1.11-.58,2.2-.94,3.28a90.13,90.13,0,0,1-4.58,10.23c-1.64,3.06-3.27,6.13-5.07,9.11a4,4,0,0,0,1.33,5.4,3.85,3.85,0,0,0,2,.56A3.91,3.91,0,0,0,160.81,278.58Z"/><path d="M185.59,414.66c-.21-.77-.38-1.55-.55-2.33l.09.5c-.09-.51-.19-1-.28-1.53-1.48-8.25-2.61-16.55-3.79-24.84-1.23-8.59-2.55-17.16-4.05-25.71-1.43-8.1-3-16.21-4.8-24.24-1-4.28-1.91-8.58-3.08-12.82-.64-2.32-1.29-4.63-2-6.93-.35-1.11-.73-2.2-1.11-3.3a5.47,5.47,0,0,0-2.72-3.56,3.93,3.93,0,0,0-4.93,5.63c.37.91.68,1.84,1,2.77,3.57,11.48,5.95,23.29,8.29,35.08.8,4.27,1.62,8.53,2.32,12.83q2.07,12.63,3.85,25.33.9,6.4,1.88,12.82.45,2.89.95,5.77c.37,2.17.73,4.35,1.31,6.48a4,4,0,0,0,3.83,2.95,4.47,4.47,0,0,0,.95-.11A4,4,0,0,0,185.59,414.66Z"/></g></svg>